<?xml version="1.0" encoding="UTF-8" standalone="no" ?>
<!DOCTYPE svg PUBLIC "-//W3C//DTD SVG 1.1//EN" "http://www.w3.org/Graphics/SVG/1.1/DTD/svg11.dtd">
<svg xmlns="http://www.w3.org/2000/svg" xmlns:xlink="http://www.w3.org/1999/xlink" version="1.1" width="20" height="20" viewBox="0 0 20 20" xml:space="preserve">
<desc>Created with Fabric.js 4.2.0</desc>
<defs>
</defs>
<rect x="0" y="0" width="100%" height="100%" fill="transparent"></rect>
<g transform="matrix(1 0 0 1 10 10)" id="6b800147-3d08-4dee-8726-4be7f4afda3d"  >
<rect style="stroke: none; stroke-width: 1; stroke-dasharray: none; stroke-linecap: butt; stroke-dashoffset: 0; stroke-linejoin: miter; stroke-miterlimit: 4; fill: rgb(255,255,255); fill-rule: nonzero; opacity: 1;" vector-effect="non-scaling-stroke"  x="-10" y="-10" rx="0" ry="0" width="20" height="20" />
</g>
<g transform="matrix(Infinity NaN NaN Infinity 0 0)" id="8fe04dcb-f6bc-4fc2-ab47-a114bb365aba"  >
</g>
<g transform="matrix(-0.77 0 0 0.77 10 10)" id="7529bc54-4840-410b-89d4-fb1091564685"  >
<path style="stroke: rgb(0,0,0); stroke-width: 0; stroke-dasharray: none; stroke-linecap: butt; stroke-dashoffset: 0; stroke-linejoin: miter; stroke-miterlimit: 4; fill: rgb(0,0,0); fill-rule: nonzero; opacity: 1;" vector-effect="non-scaling-stroke"  transform=" translate(-12, -12)" d="M 12 0 C 18.628 0 24 5.373 24 12 C 24 18.627 18.628 24 12 24 C 5.372 24 0 18.627 0 12 C 0 5.373000000000001 5.372 0 12 0 z M 12 2 C 6.477 2 2 6.477 2 12 C 2 17.523 6.477 22 12 22 C 17.523 22 22 17.523 22 12 C 22 6.477 17.523 2 12 2 z M 16.95 5.636 L 18.364 7.05 L 13.414000000000001 12 L 18.364 16.95 L 16.95 18.364 L 12 13.414000000000001 L 7.05 18.364 L 5.636 16.95 L 10.586 12 L 5.636 7.05 L 7.05 5.636 L 12 10.586 L 16.95 5.636 z" stroke-linecap="round" />
</g>
</svg>