<?xml version="1.0" encoding="UTF-8" standalone="no" ?>
<!DOCTYPE svg PUBLIC "-//W3C//DTD SVG 1.1//EN" "http://www.w3.org/Graphics/SVG/1.1/DTD/svg11.dtd">
<svg xmlns="http://www.w3.org/2000/svg" xmlns:xlink="http://www.w3.org/1999/xlink" version="1.1" width="16" height="16" viewBox="0 0 16 16" xml:space="preserve">
<defs>
</defs>
<rect x="0" y="0" width="100%" height="100%" fill="transparent"></rect>
<g transform="matrix(1 0 0 1 8 8)" id="3592e604-0e6b-4b47-bf95-e76f94baa599"  >
<rect style="stroke: none; stroke-width: 1; stroke-dasharray: none; stroke-linecap: butt; stroke-dashoffset: 0; stroke-linejoin: miter; stroke-miterlimit: 4; fill: transparent; fill-rule: nonzero; opacity: 1;" vector-effect="non-scaling-stroke"  x="-8" y="-8" rx="0" ry="0" width="16" height="16" />
</g>
<g transform="matrix(0 0 0 0 0 0)" id="d471bfc0-cbbb-4f30-ad48-6b368b910e20"  >
</g>
<g transform="matrix(0.26 0 0 0.26 19.46 14.97)"  >
<path style="stroke: rgb(0,0,0); stroke-width: 0; stroke-dasharray: none; stroke-linecap: butt; stroke-dashoffset: 0; stroke-linejoin: miter; stroke-miterlimit: 4; fill: rgb(0,0,0); fill-rule: nonzero; opacity: 1;" vector-effect="non-scaling-stroke"  transform=" translate(-12, -12)" d="M 0 19.0006943 L 0 24 L 4.99930565 24 L 19.7439245 9.2553812 L 14.7446188 4.25607555 L 0 19.0006943 Z M 23.6100542 5.38925149 C 24.1299819 4.86932371 24.1299819 4.02944036 23.6100542 3.50951257 L 20.4904874 0.389945841 C 19.9705596 -0.129981947 19.1306763 -0.129981947 18.6107485 0.389945841 L 16.1710873 2.829607 L 21.170393 7.82891265 L 23.6100542 5.38925149 Z" stroke-linecap="round" />
</g>
<g transform="matrix(0.26 0 0 0.26 -3.53 0.97)"  >
<path style="stroke: rgb(0,0,0); stroke-width: 0; stroke-dasharray: none; stroke-linecap: butt; stroke-dashoffset: 0; stroke-linejoin: miter; stroke-miterlimit: 4; fill: rgb(0,0,0); fill-rule: nonzero; opacity: 1;" vector-effect="non-scaling-stroke"  transform=" translate(-12, -12)" d="M 0 19.0006943 L 0 24 L 4.99930565 24 L 19.7439245 9.2553812 L 14.7446188 4.25607555 L 0 19.0006943 Z M 23.6100542 5.38925149 C 24.1299819 4.86932371 24.1299819 4.02944036 23.6100542 3.50951257 L 20.4904874 0.389945841 C 19.9705596 -0.129981947 19.1306763 -0.129981947 18.6107485 0.389945841 L 16.1710873 2.829607 L 21.170393 7.82891265 L 23.6100542 5.38925149 Z" stroke-linecap="round" />
</g>
<g transform="matrix(0.62 0 0 0.62 8 8)" id="d1729c17-0ee4-4bc9-8b75-885a148cfb9d"  >
<path style="stroke: rgb(0,0,0); stroke-width: 0; stroke-dasharray: none; stroke-linecap: butt; stroke-dashoffset: 0; stroke-linejoin: miter; stroke-miterlimit: 4; fill: rgb(0,0,0); fill-rule: nonzero; opacity: 1;" vector-effect="non-scaling-stroke"  transform=" translate(-12, -12)" d="M 0 19.0006943 L 0 24 L 4.99930565 24 L 19.7439245 9.2553812 L 14.7446188 4.25607555 L 0 19.0006943 Z M 23.6100542 5.38925149 C 24.1299819 4.86932371 24.1299819 4.02944036 23.6100542 3.50951257 L 20.4904874 0.389945841 C 19.9705596 -0.129981947 19.1306763 -0.129981947 18.6107485 0.389945841 L 16.1710873 2.829607 L 21.170393 7.82891265 L 23.6100542 5.38925149 Z" stroke-linecap="round" />
</g>
</svg>