<svg width="9" height="7" viewBox="0 0 9 7" fill="none" xmlns="http://www.w3.org/2000/svg">
<path d="M5.18992 6.78049V3.69218L8.13324 1.06139C8.17698 1.0224 8.21154 0.976001 8.2349 0.924932C8.25825 0.873862 8.26993 0.819148 8.26924 0.764001V0.375103C8.26924 0.314431 8.2422 0.256244 8.19408 0.213343C8.14596 0.170441 8.08069 0.146339 8.01263 0.146339H0.314334C0.246277 0.146339 0.181007 0.170441 0.132883 0.213343C0.0847596 0.256244 0.057724 0.314431 0.057724 0.375103V0.757138C0.057772 0.811169 0.0698139 0.864657 0.0931559 0.91452C0.116498 0.964383 0.150678 1.00964 0.193727 1.04767L3.13704 3.71048V6.04387L5.18992 6.78049Z" fill="black"/>
</svg>
