<?xml version="1.0" encoding="UTF-8"?>
<svg width="10px" height="8px" viewBox="0 0 10 8" version="1.1" xmlns="http://www.w3.org/2000/svg" xmlns:xlink="http://www.w3.org/1999/xlink">
    <!-- Generator: Sketch 52.5 (67469) - http://www.bohemiancoding.com/sketch -->
    <title>sort</title>
    <desc>Created with Sketch.</desc>
    <g id="Page-1" stroke="none" stroke-width="1" fill="none" fill-rule="evenodd">
        <g id="sort" fill="#C40000" fill-rule="nonzero">
            <path d="M2.06931,0.344813 C2.06931,0.253363 2.03298,0.165658 1.96832,0.100993 C1.90365,0.0363284 1.81595,0 1.7245,0 C1.63305,0 1.54534,0.0363284 1.48068,0.100993 C1.41601,0.165658 1.37969,0.253363 1.37969,0.344813 L1.37969,6.40869 L0.589375,5.61769 C0.524629,5.55294 0.436814,5.51657 0.345248,5.51657 C0.253683,5.51657 0.165867,5.55294 0.101121,5.61769 C0.0363743,5.68243 2.15736e-09,5.77025 0,5.86181 C-2.15736e-09,5.95338 0.0363743,6.04119 0.101121,6.10594 L1.48037,7.4845 L1.4852,7.48933 C1.54994,7.55246 1.637,7.58744 1.72742,7.58667 C1.81784,7.58589 1.90429,7.54942 1.96794,7.48519 L3.34719,6.10594 C3.37925,6.07393 3.40469,6.03591 3.42205,5.99407 C3.43942,5.95222 3.44838,5.90736 3.44841,5.86206 C3.44844,5.81675 3.43955,5.77188 3.42224,5.73001 C3.40493,5.68814 3.37955,5.65009 3.34753,5.61803 C3.31552,5.58597 3.2775,5.56053 3.23566,5.54316 C3.19381,5.5258 3.14895,5.51684 3.10365,5.51681 C3.05834,5.51678 3.01347,5.52567 2.9716,5.54298 C2.92973,5.56029 2.89168,5.58567 2.85962,5.61769 L2.06931,6.40869 L2.06931,0.344813 Z M4.483,1.03444 C4.483,0.942988 4.51933,0.855283 4.58399,0.790618 C4.64866,0.725954 4.73636,0.689625 4.82781,0.689625 L9.65519,0.689625 C9.74664,0.689625 9.83434,0.725954 9.89901,0.790618 C9.96367,0.855283 10,0.942988 10,1.03444 C10,1.12589 9.96367,1.21359 9.89901,1.27826 C9.83434,1.34292 9.74664,1.37925 9.65519,1.37925 L4.82781,1.37925 C4.73636,1.37925 4.64866,1.34292 4.58399,1.27826 C4.51933,1.21359 4.483,1.12589 4.483,1.03444 Z M4.82781,2.7585 C4.73636,2.7585 4.64866,2.79483 4.58399,2.85949 C4.51933,2.92416 4.483,3.01186 4.483,3.10331 C4.483,3.19476 4.51933,3.28247 4.58399,3.34713 C4.64866,3.4118 4.73636,3.44813 4.82781,3.44813 L8.27594,3.44813 C8.36739,3.44813 8.45509,3.4118 8.51976,3.34713 C8.58442,3.28247 8.62075,3.19476 8.62075,3.10331 C8.62075,3.01186 8.58442,2.92416 8.51976,2.85949 C8.45509,2.79483 8.36739,2.7585 8.27594,2.7585 L4.82781,2.7585 Z M4.82781,4.82738 C4.73636,4.82738 4.64866,4.8637 4.58399,4.92837 C4.51933,4.99303 4.483,5.08074 4.483,5.17219 C4.483,5.26364 4.51933,5.35134 4.58399,5.41601 C4.64866,5.48067 4.73636,5.517 4.82781,5.517 L6.89669,5.517 C6.98814,5.517 7.07584,5.48067 7.14051,5.41601 C7.20517,5.35134 7.2415,5.26364 7.2415,5.17219 C7.2415,5.08074 7.20517,4.99303 7.14051,4.92837 C7.07584,4.8637 6.98814,4.82738 6.89669,4.82738 L4.82781,4.82738 Z M4.82781,6.89625 C4.73636,6.89625 4.64866,6.93258 4.58399,6.99724 C4.51933,7.06191 4.483,7.14961 4.483,7.24106 C4.483,7.33251 4.51933,7.42022 4.58399,7.48488 C4.64866,7.54955 4.73636,7.58588 4.82781,7.58588 L5.51744,7.58588 C5.60889,7.58588 5.69659,7.54955 5.76126,7.48488 C5.82592,7.42022 5.86225,7.33251 5.86225,7.24106 C5.86225,7.14961 5.82592,7.06191 5.76126,6.99724 C5.69659,6.93258 5.60889,6.89625 5.51744,6.89625 L4.82781,6.89625 Z" id="Shape"></path>
        </g>
    </g>
</svg>