<svg width="84" height="100" viewBox="0 0 84 100" fill="none" xmlns="http://www.w3.org/2000/svg">
<path d="M41.6591 50.014C52.9304 50.014 62.1003 40.8441 62.1003 29.5728C62.1003 18.3015 52.9304 9.13159 41.6591 9.13159C37.0146 9.13159 32.4668 10.7331 28.8533 13.641C28.2233 14.148 28.1237 15.0698 28.6305 15.6998C29.1374 16.3298 30.0591 16.4296 30.6893 15.9225C33.8291 13.3958 37.6224 12.0602 41.6591 12.0602C51.3156 12.0602 59.1718 19.9163 59.1718 29.5728C59.1718 34.3731 57.2297 38.7281 54.0909 41.8946C53.9031 40.7449 53.5591 39.6477 53.0815 38.624C55.1253 36.0508 56.2432 32.876 56.2432 29.5728C56.2432 21.5311 49.7008 14.9887 41.6591 14.9887C33.6177 14.9887 27.0753 21.5311 27.0753 29.5728C27.0753 32.876 28.1934 36.051 30.2368 38.624C29.7592 39.6475 29.4152 40.7449 29.2274 41.8945C26.0885 38.7279 24.1467 34.3729 24.1467 29.5726C24.1467 26.2621 25.0755 23.0388 26.8324 20.2506C27.2637 19.5665 27.0585 18.6623 26.3744 18.231C25.6903 17.7998 24.7859 18.005 24.3548 18.6893C22.3027 21.9452 21.2181 25.7088 21.2181 29.5726C21.2181 40.8441 30.3879 50.014 41.6591 50.014ZM31.9888 44.1657V43.9318C31.9888 38.5994 36.327 34.2614 41.6591 34.2614C46.9913 34.2614 51.3295 38.5994 51.3295 43.9318V44.1657C48.5565 46.0093 45.2314 47.0852 41.6591 47.0852C38.0869 47.0852 34.7616 46.0095 31.9888 44.1657ZM34.9514 24.6251C34.9514 20.9265 37.9604 17.9173 41.6589 17.9173C45.3575 17.9173 48.3667 20.9265 48.3667 24.6251C48.3667 28.3239 45.3575 31.3329 41.6589 31.3329C37.9604 31.3329 34.9514 28.3239 34.9514 24.6251ZM53.3146 29.5728C53.3146 31.8586 52.6434 34.0676 51.4029 35.9547C50.2391 34.5357 48.7724 33.3743 47.102 32.5709C49.6321 30.8325 51.2955 27.9201 51.2955 24.6253C51.2955 23.9917 51.2334 23.3722 51.1163 22.7725C52.4976 24.6879 53.3146 27.0361 53.3146 29.5728ZM30.0038 29.5728C30.0038 27.0353 30.8215 24.6864 32.2034 22.7707C32.0859 23.3711 32.0228 23.9908 32.0228 24.6253C32.0228 27.9201 33.6858 30.8327 36.2155 32.5713C34.5457 33.3747 33.0794 34.5357 31.9158 35.9543C30.6753 34.0672 30.0038 31.8584 30.0038 29.5728Z" fill="black"/>
<path d="M21.3565 71.3887H49.6736C50.4825 71.3887 51.1379 70.7331 51.1379 69.9244C51.1379 69.1157 50.4825 68.4601 49.6736 68.4601H21.8653V62.3921H61.4529V68.4601H55.914C55.1052 68.4601 54.4497 69.1157 54.4497 69.9244C54.4497 70.7331 55.1052 71.3887 55.914 71.3887H61.9621C63.2962 71.3887 64.3817 70.3034 64.3817 68.9691V61.883C64.3817 60.5489 63.2962 59.4634 61.9621 59.4634H21.3565C20.0223 59.4634 18.9368 60.5487 18.9368 61.883V68.9691C18.9368 70.3034 20.0223 71.3887 21.3565 71.3887Z" fill="black"/>
<path d="M81.3749 42.1386C82.1941 42.1386 82.9683 41.7411 83.4458 41.0755C83.9232 40.4097 84.0514 39.5491 83.7888 38.7732L82.7883 35.8164L83.7887 32.8597C84.0514 32.0838 83.9232 31.2232 83.4458 30.5574C82.9683 29.8917 82.1941 29.4944 81.3749 29.4944H74.6351V24.6728H81.3749C82.1941 24.6728 82.9683 24.2753 83.4458 23.6097C83.9232 22.944 84.0514 22.0833 83.7888 21.3075L82.7883 18.3506L83.7887 15.3939C84.0514 14.618 83.9232 13.7574 83.4458 13.0917C82.9683 12.4259 82.1941 12.0286 81.3749 12.0286H74.6351V3.32021C74.6349 1.48947 73.1455 0 71.3145 0H7.00828C3.18651 0 0.0771484 3.10936 0.0771484 6.93114V88.6819C0.0771484 88.7026 0.0792966 88.7225 0.0802728 88.743C0.204249 94.9535 5.42256 100 11.7315 100H71.8077C73.3665 100 74.6347 98.7317 74.6347 97.1728V94.0415C74.6347 92.4826 73.3665 91.2143 71.8077 91.2143H71.1247V85.8066H71.8077C73.3665 85.8066 74.6347 84.5383 74.6347 82.9794V79.9883V77.0699H81.3745C82.1938 77.0699 82.9679 76.6724 83.4454 76.0068C83.9228 75.3411 84.0511 74.4805 83.7885 73.7046L82.7879 70.7477L83.7883 67.791C84.051 67.0152 83.9228 66.1546 83.4454 65.4888C82.9679 64.823 82.1938 64.4257 81.3745 64.4257H74.6347V59.6041H81.3745C82.1938 59.6041 82.9679 59.2066 83.4454 58.5411C83.9228 57.8753 84.0511 57.0147 83.7885 56.2388L82.7879 53.2819L83.7883 50.3253C84.051 49.5494 83.9228 48.6888 83.4454 48.023C82.9679 47.3573 82.1938 46.96 81.3745 46.96H74.6347V42.1384H81.3749V42.1386ZM80.8449 32.4231L79.8554 35.3472C79.7525 35.6518 79.7525 35.9815 79.8554 36.2859L80.8449 39.2102H74.6349V32.4231H80.8449ZM80.8449 14.9574L79.8554 17.8814C79.7525 18.186 79.7525 18.5158 79.8554 18.8203L80.8449 21.7444H74.6349V14.9574H80.8449ZM71.7064 3.32021V77.1609L11.5667 77.0209C11.2188 77.0209 10.874 77.0385 10.5317 77.0687V2.92857H71.3145C71.5307 2.92857 71.7064 3.10428 71.7064 3.32021ZM7.00828 2.92857H7.60317V77.7201C6.02839 78.2974 4.58753 79.221 3.37432 80.4548C3.24781 80.5834 3.1254 80.715 3.00571 80.8484V6.93114C3.00571 4.72417 4.80132 2.92857 7.00828 2.92857ZM71.7064 82.8782H11.5667C10.0235 82.8782 8.58288 83.4919 7.51024 84.6059C6.43819 85.7193 5.88 87.1828 5.93838 88.7268C6.05357 91.7639 8.57058 94.1429 11.6692 94.1429H22.6906C23.4994 94.1429 24.1548 93.4873 24.1548 92.6786C24.1548 91.8699 23.4994 91.2143 22.6906 91.2143H11.6692C10.1772 91.2143 8.91927 90.0487 8.865 88.6159C8.83688 87.8746 9.10494 87.1717 9.61998 86.637C10.1356 86.1014 10.8269 85.8066 11.5669 85.8066H68.1966V91.2143H28.9306C28.1217 91.2143 27.4663 91.8699 27.4663 92.6786C27.4663 93.4873 28.1217 94.1429 28.9306 94.1429H71.7064V97.0714H11.7317C6.99833 97.0714 3.0844 93.2969 3.00689 88.6575C2.96823 86.3414 3.84036 84.1576 5.46239 82.5081C7.08501 80.8581 9.25274 79.9495 11.5632 79.9495L71.7064 80.0893V82.8782ZM80.8449 67.3545L79.8554 70.2786C79.7525 70.5831 79.7525 70.9129 79.8554 71.2173L80.8449 74.1415H74.6349V67.3547H80.8449V67.3545ZM80.8449 49.8887L79.8554 52.8128C79.7525 53.1174 79.7525 53.4471 79.8554 53.7517L80.8449 56.6758H74.6349V49.8889H80.8449V49.8887Z" fill="black"/>
</svg>
