<?xml version="1.0" encoding="UTF-8"?>
<svg width="906px" height="413px" viewBox="0 0 906 413" version="1.1" xmlns="http://www.w3.org/2000/svg" xmlns:xlink="http://www.w3.org/1999/xlink">
    <!-- Generator: Sketch 52.5 (67469) - http://www.bohemiancoding.com/sketch -->
    <title>Slice</title>
    <desc>Created with Sketch.</desc>
    <defs>
        <ellipse id="path-1" cx="459" cy="29" rx="138" ry="26"></ellipse>
        <mask id="mask-2" maskContentUnits="userSpaceOnUse" maskUnits="objectBoundingBox" x="-2" y="-2" width="280" height="56">
            <rect x="319" y="1" width="280" height="56" fill="white"></rect>
            <use xlink:href="#path-1" fill="black"></use>
        </mask>
    </defs>
    <g id="Page-1" stroke="none" stroke-width="1" fill="none" fill-rule="evenodd">
        <path d="M210.350586,300.061035 L205.569336,300.061035 L205.569336,305 L203.079102,305 L203.079102,292.914062 L210.948242,292.914062 L210.948242,294.931152 L205.569336,294.931152 L205.569336,298.052246 L210.350586,298.052246 L210.350586,300.061035 Z M217.065918,298.268066 C216.739419,298.223795 216.451661,298.20166 216.202637,298.20166 C215.29508,298.20166 214.700197,298.508786 214.417969,299.123047 L214.417969,305 L212.019043,305 L212.019043,296.018555 L214.285156,296.018555 L214.351562,297.089355 C214.83301,296.264807 215.499833,295.852539 216.352051,295.852539 C216.617677,295.852539 216.866698,295.888509 217.099121,295.960449 L217.065918,298.268066 Z M223.175293,305 C223.064615,304.784179 222.984375,304.515789 222.93457,304.194824 C222.353513,304.842288 221.598149,305.166016 220.668457,305.166016 C219.78857,305.166016 219.059492,304.911461 218.481201,304.402344 C217.902911,303.893227 217.61377,303.251306 217.61377,302.476562 C217.61377,301.524735 217.966549,300.794273 218.672119,300.285156 C219.377689,299.776039 220.397292,299.518717 221.730957,299.513184 L222.834961,299.513184 L222.834961,298.998535 C222.834961,298.583494 222.728435,298.251466 222.515381,298.002441 C222.302326,297.753417 221.966148,297.628906 221.506836,297.628906 C221.102863,297.628906 220.786053,297.725748 220.556396,297.919434 C220.32674,298.113119 220.211914,298.378742 220.211914,298.716309 L217.812988,298.716309 C217.812988,298.196124 217.973468,297.714683 218.294434,297.271973 C218.615399,296.829262 219.06917,296.482016 219.655762,296.230225 C220.242353,295.978433 220.900875,295.852539 221.631348,295.852539 C222.738124,295.852539 223.616615,296.130612 224.266846,296.686768 C224.917077,297.242923 225.242188,298.024572 225.242188,299.031738 L225.242188,302.924805 C225.247721,303.777022 225.366698,304.42171 225.599121,304.858887 L225.599121,305 L223.175293,305 Z M221.191406,303.331543 C221.545575,303.331543 221.872069,303.252686 222.170898,303.094971 C222.469728,302.937255 222.69108,302.725587 222.834961,302.459961 L222.834961,300.916016 L221.938477,300.916016 C220.737624,300.916016 220.09847,301.331051 220.020996,302.161133 L220.012695,302.302246 C220.012695,302.601076 220.117837,302.84733 220.328125,303.041016 C220.538413,303.234701 220.82617,303.331543 221.191406,303.331543 Z M229.334473,296.018555 L229.40918,297.022949 C230.045576,296.242672 230.906082,295.852539 231.990723,295.852539 C233.147304,295.852539 233.941404,296.309077 234.373047,297.222168 C235.003909,296.309077 235.903152,295.852539 237.070801,295.852539 C238.044764,295.852539 238.769692,296.136146 239.245605,296.703369 C239.721519,297.270592 239.959473,298.12418 239.959473,299.26416 L239.959473,305 L237.552246,305 L237.552246,299.272461 C237.552246,298.763344 237.452638,298.391196 237.253418,298.156006 C237.054198,297.920816 236.702802,297.803223 236.199219,297.803223 C235.479814,297.803223 234.981772,298.146318 234.705078,298.83252 L234.713379,305 L232.314453,305 L232.314453,299.280762 C232.314453,298.760577 232.212078,298.384279 232.007324,298.151855 C231.802571,297.919432 231.453941,297.803223 230.961426,297.803223 C230.280758,297.803223 229.78825,298.085446 229.483887,298.649902 L229.483887,305 L227.084961,305 L227.084961,296.018555 L229.334473,296.018555 Z M245.936035,305.166016 C244.618971,305.166016 243.546798,304.762048 242.719482,303.954102 C241.892167,303.146155 241.478516,302.069831 241.478516,300.725098 L241.478516,300.492676 C241.478516,299.590653 241.65283,298.784102 242.001465,298.072998 C242.350099,297.361894 242.843991,296.814048 243.483154,296.429443 C244.122318,296.044839 244.851396,295.852539 245.67041,295.852539 C246.898932,295.852539 247.865963,296.239905 248.571533,297.014648 C249.277103,297.789392 249.629883,298.887851 249.629883,300.310059 L249.629883,301.289551 L243.910645,301.289551 C243.988119,301.876142 244.221922,302.346515 244.612061,302.700684 C245.002199,303.054852 245.496091,303.231934 246.09375,303.231934 C247.017908,303.231934 247.740069,302.897139 248.260254,302.227539 L249.438965,303.547363 C249.079263,304.05648 248.592288,304.45353 247.978027,304.738525 C247.363766,305.02352 246.683109,305.166016 245.936035,305.166016 Z M245.662109,297.794922 C245.186196,297.794922 244.800213,297.955402 244.50415,298.276367 C244.208088,298.597332 244.018555,299.056638 243.935547,299.654297 L247.272461,299.654297 L247.272461,299.463379 C247.261393,298.932126 247.117514,298.521242 246.84082,298.230713 C246.564126,297.940184 246.171227,297.794922 245.662109,297.794922 Z" id="Frame-Copy" fill="#3D3D3D"></path>
        <path d="M115.079102,203 L115.079102,190.914062 L118.797852,190.914062 C119.860357,190.914062 120.810787,191.153399 121.64917,191.63208 C122.487553,192.110761 123.141925,192.791418 123.612305,193.674072 C124.082685,194.556726 124.317871,195.559727 124.317871,196.683105 L124.317871,197.239258 C124.317871,198.362636 124.086835,199.361487 123.624756,200.23584 C123.162677,201.110193 122.511072,201.788084 121.669922,202.269531 C120.828772,202.750979 119.879725,202.994466 118.822754,203 L115.079102,203 Z M117.569336,192.931152 L117.569336,200.999512 L118.772949,200.999512 C119.746912,200.999512 120.491208,200.681318 121.005859,200.044922 C121.52051,199.408525 121.783366,198.498216 121.794434,197.313965 L121.794434,196.674805 C121.794434,195.446283 121.539879,194.515221 121.030762,193.881592 C120.521645,193.247962 119.777349,192.931152 118.797852,192.931152 L117.569336,192.931152 Z M128.501465,203 L126.094238,203 L126.094238,194.018555 L128.501465,194.018555 L128.501465,203 Z M125.953125,191.694336 C125.953125,191.334634 126.073485,191.038575 126.314209,190.806152 C126.554933,190.573729 126.88281,190.45752 127.297852,190.45752 C127.707359,190.45752 128.033853,190.573729 128.277344,190.806152 C128.520835,191.038575 128.642578,191.334634 128.642578,191.694336 C128.642578,192.059572 128.519451,192.358397 128.273193,192.59082 C128.026936,192.823243 127.701825,192.939453 127.297852,192.939453 C126.893878,192.939453 126.568768,192.823243 126.32251,192.59082 C126.076252,192.358397 125.953125,192.059572 125.953125,191.694336 Z M135.341309,200.518066 C135.341309,200.224771 135.196046,199.993735 134.905518,199.824951 C134.614989,199.656168 134.148766,199.505372 133.506836,199.372559 C131.370758,198.924314 130.302734,198.016771 130.302734,196.649902 C130.302734,195.853023 130.633379,195.187584 131.294678,194.653564 C131.955977,194.119545 132.820633,193.852539 133.888672,193.852539 C135.028652,193.852539 135.940345,194.120928 136.623779,194.657715 C137.307214,195.194501 137.648926,195.89176 137.648926,196.749512 L135.25,196.749512 C135.25,196.406411 135.139324,196.122804 134.917969,195.898682 C134.696613,195.674559 134.350751,195.5625 133.880371,195.5625 C133.476398,195.5625 133.163738,195.653808 132.942383,195.836426 C132.721028,196.019044 132.610352,196.251463 132.610352,196.533691 C132.610352,196.799318 132.736245,197.013752 132.988037,197.177002 C133.239829,197.340251 133.664548,197.481363 134.262207,197.600342 C134.859866,197.71932 135.363442,197.853515 135.772949,198.00293 C137.040208,198.467776 137.673828,199.272943 137.673828,200.418457 C137.673828,201.237472 137.322432,201.900144 136.619629,202.406494 C135.916826,202.912844 135.009283,203.166016 133.896973,203.166016 C133.144365,203.166016 132.476159,203.031821 131.892334,202.763428 C131.308509,202.495034 130.850588,202.127037 130.518555,201.659424 C130.186522,201.191811 130.020508,200.686852 130.020508,200.144531 L132.294922,200.144531 C132.317057,200.57064 132.474771,200.897134 132.768066,201.124023 C133.061362,201.350913 133.454262,201.464355 133.946777,201.464355 C134.40609,201.464355 134.753335,201.377198 134.988525,201.202881 C135.223715,201.028564 135.341309,200.800294 135.341309,200.518066 Z M142.953125,201.231934 C143.395836,201.231934 143.755532,201.11019 144.032227,200.866699 C144.308921,200.623208 144.452799,200.299481 144.463867,199.895508 L146.713379,199.895508 C146.707845,200.504235 146.541831,201.061765 146.215332,201.568115 C145.888833,202.074465 145.441979,202.467365 144.874756,202.746826 C144.307533,203.026287 143.68083,203.166016 142.994629,203.166016 C141.710768,203.166016 140.698083,202.757898 139.956543,201.94165 C139.215003,201.125403 138.844238,199.997891 138.844238,198.559082 L138.844238,198.401367 C138.844238,197.017897 139.212236,195.913904 139.948242,195.089355 C140.684248,194.264807 141.694167,193.852539 142.978027,193.852539 C144.101405,193.852539 145.002031,194.172116 145.679932,194.811279 C146.357832,195.450443 146.702311,196.301264 146.713379,197.36377 L144.463867,197.36377 C144.452799,196.898923 144.308921,196.521242 144.032227,196.230713 C143.755532,195.940184 143.390302,195.794922 142.936523,195.794922 C142.377601,195.794922 141.955649,195.998289 141.670654,196.405029 C141.385659,196.81177 141.243164,197.471675 141.243164,198.384766 L141.243164,198.633789 C141.243164,199.557947 141.384276,200.222003 141.666504,200.625977 C141.948732,201.02995 142.377601,201.231934 142.953125,201.231934 Z M147.709473,198.42627 C147.709473,197.535315 147.88102,196.741214 148.224121,196.043945 C148.567222,195.346676 149.061113,194.807131 149.705811,194.425293 C150.350508,194.043455 151.098954,193.852539 151.951172,193.852539 C153.163092,193.852539 154.152259,194.223304 154.918701,194.964844 C155.685144,195.706384 156.11263,196.713535 156.201172,197.986328 L156.217773,198.600586 C156.217773,199.978523 155.833174,201.083899 155.063965,201.916748 C154.294755,202.749597 153.262702,203.166016 151.967773,203.166016 C150.672845,203.166016 149.639408,202.750981 148.867432,201.920898 C148.095455,201.090816 147.709473,199.961921 147.709473,198.53418 L147.709473,198.42627 Z M150.108398,198.600586 C150.108398,199.452804 150.268879,200.104409 150.589844,200.55542 C150.910809,201.006431 151.370114,201.231934 151.967773,201.231934 C152.548831,201.231934 153.002603,201.009198 153.329102,200.563721 C153.655601,200.118243 153.818848,199.405767 153.818848,198.42627 C153.818848,197.590653 153.655601,196.943199 153.329102,196.483887 C153.002603,196.024575 152.543297,195.794922 151.951172,195.794922 C151.36458,195.794922 150.910809,196.023191 150.589844,196.479736 C150.268879,196.936282 150.108398,197.643224 150.108398,198.600586 Z M160.932617,200.069824 L162.601074,194.018555 L165.10791,194.018555 L162.078125,203 L159.787109,203 L156.757324,194.018555 L159.26416,194.018555 L160.932617,200.069824 Z M170.187988,203.166016 C168.870924,203.166016 167.798751,202.762048 166.971436,201.954102 C166.14412,201.146155 165.730469,200.069831 165.730469,198.725098 L165.730469,198.492676 C165.730469,197.590653 165.904783,196.784102 166.253418,196.072998 C166.602053,195.361894 167.095944,194.814048 167.735107,194.429443 C168.374271,194.044839 169.103349,193.852539 169.922363,193.852539 C171.150885,193.852539 172.117916,194.239905 172.823486,195.014648 C173.529056,195.789392 173.881836,196.887851 173.881836,198.310059 L173.881836,199.289551 L168.162598,199.289551 C168.240072,199.876142 168.473875,200.346515 168.864014,200.700684 C169.254152,201.054852 169.748044,201.231934 170.345703,201.231934 C171.269861,201.231934 171.992022,200.897139 172.512207,200.227539 L173.690918,201.547363 C173.331216,202.05648 172.844241,202.45353 172.22998,202.738525 C171.61572,203.02352 170.935062,203.166016 170.187988,203.166016 Z M169.914062,195.794922 C169.438149,195.794922 169.052166,195.955402 168.756104,196.276367 C168.460041,196.597332 168.270508,197.056638 168.1875,197.654297 L171.524414,197.654297 L171.524414,197.463379 C171.513346,196.932126 171.369468,196.521242 171.092773,196.230713 C170.816079,195.940184 170.42318,195.794922 169.914062,195.794922 Z M180.290039,196.268066 C179.96354,196.223795 179.675782,196.20166 179.426758,196.20166 C178.519201,196.20166 177.924318,196.508786 177.64209,197.123047 L177.64209,203 L175.243164,203 L175.243164,194.018555 L177.509277,194.018555 L177.575684,195.089355 C178.057131,194.264807 178.723954,193.852539 179.576172,193.852539 C179.841798,193.852539 180.090819,193.888509 180.323242,193.960449 L180.290039,196.268066 Z" id="Discover-Copy" fill="#3D3D3D"></path>
        <path d="M263.079102,203 L263.079102,190.914062 L266.797852,190.914062 C267.860357,190.914062 268.810787,191.153399 269.64917,191.63208 C270.487553,192.110761 271.141925,192.791418 271.612305,193.674072 C272.082685,194.556726 272.317871,195.559727 272.317871,196.683105 L272.317871,197.239258 C272.317871,198.362636 272.086835,199.361487 271.624756,200.23584 C271.162677,201.110193 270.511072,201.788084 269.669922,202.269531 C268.828772,202.750979 267.879725,202.994466 266.822754,203 L263.079102,203 Z M265.569336,192.931152 L265.569336,200.999512 L266.772949,200.999512 C267.746912,200.999512 268.491208,200.681318 269.005859,200.044922 C269.52051,199.408525 269.783366,198.498216 269.794434,197.313965 L269.794434,196.674805 C269.794434,195.446283 269.539879,194.515221 269.030762,193.881592 C268.521645,193.247962 267.777349,192.931152 266.797852,192.931152 L265.569336,192.931152 Z M278.103516,203.166016 C276.786452,203.166016 275.714278,202.762048 274.886963,201.954102 C274.059648,201.146155 273.645996,200.069831 273.645996,198.725098 L273.645996,198.492676 C273.645996,197.590653 273.820311,196.784102 274.168945,196.072998 C274.51758,195.361894 275.011471,194.814048 275.650635,194.429443 C276.289798,194.044839 277.018876,193.852539 277.837891,193.852539 C279.066412,193.852539 280.033444,194.239905 280.739014,195.014648 C281.444584,195.789392 281.797363,196.887851 281.797363,198.310059 L281.797363,199.289551 L276.078125,199.289551 C276.155599,199.876142 276.389402,200.346515 276.779541,200.700684 C277.16968,201.054852 277.663571,201.231934 278.26123,201.231934 C279.185389,201.231934 279.907549,200.897139 280.427734,200.227539 L281.606445,201.547363 C281.246743,202.05648 280.759769,202.45353 280.145508,202.738525 C279.531247,203.02352 278.85059,203.166016 278.103516,203.166016 Z M277.82959,195.794922 C277.353676,195.794922 276.967694,195.955402 276.671631,196.276367 C276.375568,196.597332 276.186036,197.056638 276.103027,197.654297 L279.439941,197.654297 L279.439941,197.463379 C279.428874,196.932126 279.284995,196.521242 279.008301,196.230713 C278.731607,195.940184 278.338707,195.794922 277.82959,195.794922 Z M283.739746,203 L283.739746,195.77832 L282.40332,195.77832 L282.40332,194.018555 L283.739746,194.018555 L283.739746,193.603516 C283.750814,192.474604 284.09806,191.604414 284.781494,190.99292 C285.464929,190.381426 286.429193,190.075684 287.674316,190.075684 C288.42139,190.075684 289.328933,190.238931 290.396973,190.56543 L290.04834,192.549316 C289.506019,192.388834 289.085451,192.285075 288.786621,192.238037 C288.487791,192.190999 288.166831,192.16748 287.82373,192.16748 C286.705886,192.16748 286.146973,192.662755 286.146973,193.65332 L286.146973,194.018555 L287.915039,194.018555 L287.915039,195.77832 L286.146973,195.77832 L286.146973,203 L283.739746,203 Z M291.517578,203 L289.110352,203 L289.110352,194.018555 L291.517578,194.018555 L291.517578,203 Z M295.709473,194.018555 L295.78418,195.056152 C296.42611,194.253739 297.286616,193.852539 298.365723,193.852539 C299.31755,193.852539 300.025877,194.131996 300.490723,194.690918 C300.955569,195.24984 301.193522,196.085444 301.20459,197.197754 L301.20459,203 L298.805664,203 L298.805664,197.255859 C298.805664,196.746742 298.694988,196.377361 298.473633,196.147705 C298.252278,195.918049 297.88428,195.803223 297.369629,195.803223 C296.694495,195.803223 296.188153,196.09098 295.850586,196.666504 L295.850586,203 L293.45166,203 L293.45166,194.018555 L295.709473,194.018555 Z M307.15625,203.166016 C305.839186,203.166016 304.767013,202.762048 303.939697,201.954102 C303.112382,201.146155 302.69873,200.069831 302.69873,198.725098 L302.69873,198.492676 C302.69873,197.590653 302.873045,196.784102 303.22168,196.072998 C303.570314,195.361894 304.064206,194.814048 304.703369,194.429443 C305.342532,194.044839 306.07161,193.852539 306.890625,193.852539 C308.119147,193.852539 309.086178,194.239905 309.791748,195.014648 C310.497318,195.789392 310.850098,196.887851 310.850098,198.310059 L310.850098,199.289551 L305.130859,199.289551 C305.208334,199.876142 305.442137,200.346515 305.832275,200.700684 C306.222414,201.054852 306.716306,201.231934 307.313965,201.231934 C308.238123,201.231934 308.960284,200.897139 309.480469,200.227539 L310.65918,201.547363 C310.299477,202.05648 309.812503,202.45353 309.198242,202.738525 C308.583981,203.02352 307.903324,203.166016 307.15625,203.166016 Z M306.882324,195.794922 C306.40641,195.794922 306.020428,195.955402 305.724365,196.276367 C305.428303,196.597332 305.23877,197.056638 305.155762,197.654297 L308.492676,197.654297 L308.492676,197.463379 C308.481608,196.932126 308.337729,196.521242 308.061035,196.230713 C307.784341,195.940184 307.391441,195.794922 306.882324,195.794922 Z" id="Define" fill="#505050"></path>
        <path d="M564.727051,203 L562.236816,203 L562.236816,190.914062 L564.727051,190.914062 L564.727051,203 Z M566.503418,198.442871 C566.503418,197.042799 566.817461,195.927739 567.445557,195.097656 C568.073652,194.267574 568.932774,193.852539 570.022949,193.852539 C570.897303,193.852539 571.619463,194.179033 572.189453,194.832031 L572.189453,190.25 L574.59668,190.25 L574.59668,203 L572.430176,203 L572.313965,202.04541 C571.716306,202.792484 570.947108,203.166016 570.006348,203.166016 C568.949376,203.166016 568.101322,202.749597 567.462158,201.916748 C566.822995,201.083899 566.503418,199.925951 566.503418,198.442871 Z M568.902344,198.617188 C568.902344,199.458338 569.048989,200.103025 569.342285,200.55127 C569.635581,200.999514 570.061683,201.223633 570.620605,201.223633 C571.362146,201.223633 571.88509,200.910973 572.189453,200.285645 L572.189453,196.741211 C571.890624,196.115882 571.373213,195.803223 570.637207,195.803223 C569.480626,195.803223 568.902344,196.741202 568.902344,198.617188 Z M580.589844,203.166016 C579.27278,203.166016 578.200606,202.762048 577.373291,201.954102 C576.545976,201.146155 576.132324,200.069831 576.132324,198.725098 L576.132324,198.492676 C576.132324,197.590653 576.306639,196.784102 576.655273,196.072998 C577.003908,195.361894 577.4978,194.814048 578.136963,194.429443 C578.776126,194.044839 579.505204,193.852539 580.324219,193.852539 C581.552741,193.852539 582.519772,194.239905 583.225342,195.014648 C583.930912,195.789392 584.283691,196.887851 584.283691,198.310059 L584.283691,199.289551 L578.564453,199.289551 C578.641927,199.876142 578.87573,200.346515 579.265869,200.700684 C579.656008,201.054852 580.149899,201.231934 580.747559,201.231934 C581.671717,201.231934 582.393878,200.897139 582.914062,200.227539 L584.092773,201.547363 C583.733071,202.05648 583.246097,202.45353 582.631836,202.738525 C582.017575,203.02352 581.336918,203.166016 580.589844,203.166016 Z M580.315918,195.794922 C579.840004,195.794922 579.454022,195.955402 579.157959,196.276367 C578.861896,196.597332 578.672364,197.056638 578.589355,197.654297 L581.92627,197.654297 L581.92627,197.463379 C581.915202,196.932126 581.771323,196.521242 581.494629,196.230713 C581.217935,195.940184 580.825035,195.794922 580.315918,195.794922 Z M590.849609,203 C590.738932,202.784179 590.658692,202.515789 590.608887,202.194824 C590.027829,202.842288 589.272466,203.166016 588.342773,203.166016 C587.462886,203.166016 586.733808,202.911461 586.155518,202.402344 C585.577227,201.893227 585.288086,201.251306 585.288086,200.476562 C585.288086,199.524735 585.640866,198.794273 586.346436,198.285156 C587.052005,197.776039 588.071608,197.518717 589.405273,197.513184 L590.509277,197.513184 L590.509277,196.998535 C590.509277,196.583494 590.402752,196.251466 590.189697,196.002441 C589.976643,195.753417 589.640465,195.628906 589.181152,195.628906 C588.777179,195.628906 588.460369,195.725748 588.230713,195.919434 C588.001057,196.113119 587.88623,196.378742 587.88623,196.716309 L585.487305,196.716309 C585.487305,196.196124 585.647785,195.714683 585.96875,195.271973 C586.289715,194.829262 586.743487,194.482016 587.330078,194.230225 C587.91667,193.978433 588.575192,193.852539 589.305664,193.852539 C590.41244,193.852539 591.290931,194.130612 591.941162,194.686768 C592.591393,195.242923 592.916504,196.024572 592.916504,197.031738 L592.916504,200.924805 C592.922038,201.777022 593.041014,202.42171 593.273438,202.858887 L593.273438,203 L590.849609,203 Z M588.865723,201.331543 C589.219891,201.331543 589.546385,201.252686 589.845215,201.094971 C590.144044,200.937255 590.365396,200.725587 590.509277,200.459961 L590.509277,198.916016 L589.612793,198.916016 C588.411941,198.916016 587.772787,199.331051 587.695312,200.161133 L587.687012,200.302246 C587.687012,200.601076 587.792154,200.84733 588.002441,201.041016 C588.212729,201.234701 588.500486,201.331543 588.865723,201.331543 Z M597.631348,191.810547 L597.631348,194.018555 L599.166992,194.018555 L599.166992,195.77832 L597.631348,195.77832 L597.631348,200.260742 C597.631348,200.592775 597.694986,200.830728 597.822266,200.974609 C597.949545,201.11849 598.193032,201.19043 598.552734,201.19043 C598.818361,201.19043 599.053547,201.171061 599.258301,201.132324 L599.258301,202.950195 C598.787921,203.094076 598.303713,203.166016 597.805664,203.166016 C596.123364,203.166016 595.265625,202.316578 595.232422,200.617676 L595.232422,195.77832 L593.920898,195.77832 L593.920898,194.018555 L595.232422,194.018555 L595.232422,191.810547 L597.631348,191.810547 Z M604.637207,203.166016 C603.320143,203.166016 602.24797,202.762048 601.420654,201.954102 C600.593339,201.146155 600.179688,200.069831 600.179688,198.725098 L600.179688,198.492676 C600.179688,197.590653 600.354002,196.784102 600.702637,196.072998 C601.051271,195.361894 601.545163,194.814048 602.184326,194.429443 C602.82349,194.044839 603.552568,193.852539 604.371582,193.852539 C605.600104,193.852539 606.567135,194.239905 607.272705,195.014648 C607.978275,195.789392 608.331055,196.887851 608.331055,198.310059 L608.331055,199.289551 L602.611816,199.289551 C602.689291,199.876142 602.923094,200.346515 603.313232,200.700684 C603.703371,201.054852 604.197263,201.231934 604.794922,201.231934 C605.71908,201.231934 606.441241,200.897139 606.961426,200.227539 L608.140137,201.547363 C607.780434,202.05648 607.29346,202.45353 606.679199,202.738525 C606.064938,203.02352 605.384281,203.166016 604.637207,203.166016 Z M604.363281,195.794922 C603.887367,195.794922 603.501385,195.955402 603.205322,196.276367 C602.90926,196.597332 602.719727,197.056638 602.636719,197.654297 L605.973633,197.654297 L605.973633,197.463379 C605.962565,196.932126 605.818686,196.521242 605.541992,196.230713 C605.265298,195.940184 604.872398,195.794922 604.363281,195.794922 Z" id="Ideate-Copy" fill="#3D3D3D"></path>
        <path d="M655.079102,148 L655.079102,135.914062 L658.797852,135.914062 C659.860357,135.914062 660.810787,136.153399 661.64917,136.63208 C662.487553,137.110761 663.141925,137.791418 663.612305,138.674072 C664.082685,139.556726 664.317871,140.559727 664.317871,141.683105 L664.317871,142.239258 C664.317871,143.362636 664.086835,144.361487 663.624756,145.23584 C663.162677,146.110193 662.511072,146.788084 661.669922,147.269531 C660.828772,147.750979 659.879725,147.994466 658.822754,148 L655.079102,148 Z M657.569336,137.931152 L657.569336,145.999512 L658.772949,145.999512 C659.746912,145.999512 660.491208,145.681318 661.005859,145.044922 C661.52051,144.408525 661.783366,143.498216 661.794434,142.313965 L661.794434,141.674805 C661.794434,140.446283 661.539879,139.515221 661.030762,138.881592 C660.521645,138.247962 659.777349,137.931152 658.797852,137.931152 L657.569336,137.931152 Z M670.103516,148.166016 C668.786452,148.166016 667.714278,147.762048 666.886963,146.954102 C666.059648,146.146155 665.645996,145.069831 665.645996,143.725098 L665.645996,143.492676 C665.645996,142.590653 665.820311,141.784102 666.168945,141.072998 C666.51758,140.361894 667.011471,139.814048 667.650635,139.429443 C668.289798,139.044839 669.018876,138.852539 669.837891,138.852539 C671.066412,138.852539 672.033444,139.239905 672.739014,140.014648 C673.444584,140.789392 673.797363,141.887851 673.797363,143.310059 L673.797363,144.289551 L668.078125,144.289551 C668.155599,144.876142 668.389402,145.346515 668.779541,145.700684 C669.16968,146.054852 669.663571,146.231934 670.26123,146.231934 C671.185389,146.231934 671.907549,145.897139 672.427734,145.227539 L673.606445,146.547363 C673.246743,147.05648 672.759769,147.45353 672.145508,147.738525 C671.531247,148.02352 670.85059,148.166016 670.103516,148.166016 Z M669.82959,140.794922 C669.353676,140.794922 668.967694,140.955402 668.671631,141.276367 C668.375568,141.597332 668.186036,142.056638 668.103027,142.654297 L671.439941,142.654297 L671.439941,142.463379 C671.428874,141.932126 671.284995,141.521242 671.008301,141.230713 C670.731607,140.940184 670.338707,140.794922 669.82959,140.794922 Z M680.022949,145.518066 C680.022949,145.224771 679.877687,144.993735 679.587158,144.824951 C679.296629,144.656168 678.830407,144.505372 678.188477,144.372559 C676.052398,143.924314 674.984375,143.016771 674.984375,141.649902 C674.984375,140.853023 675.315019,140.187584 675.976318,139.653564 C676.637617,139.119545 677.502273,138.852539 678.570312,138.852539 C679.710292,138.852539 680.621986,139.120928 681.30542,139.657715 C681.988854,140.194501 682.330566,140.89176 682.330566,141.749512 L679.931641,141.749512 C679.931641,141.406411 679.820965,141.122804 679.599609,140.898682 C679.378254,140.674559 679.032392,140.5625 678.562012,140.5625 C678.158038,140.5625 677.845379,140.653808 677.624023,140.836426 C677.402668,141.019044 677.291992,141.251463 677.291992,141.533691 C677.291992,141.799318 677.417886,142.013752 677.669678,142.177002 C677.921469,142.340251 678.346188,142.481363 678.943848,142.600342 C679.541507,142.71932 680.045083,142.853515 680.45459,143.00293 C681.721849,143.467776 682.355469,144.272943 682.355469,145.418457 C682.355469,146.237472 682.004073,146.900144 681.30127,147.406494 C680.598467,147.912844 679.690924,148.166016 678.578613,148.166016 C677.826005,148.166016 677.157799,148.031821 676.573975,147.763428 C675.99015,147.495034 675.532228,147.127037 675.200195,146.659424 C674.868162,146.191811 674.702148,145.686852 674.702148,145.144531 L676.976562,145.144531 C676.998698,145.57064 677.156411,145.897134 677.449707,146.124023 C677.743003,146.350913 678.135902,146.464355 678.628418,146.464355 C679.08773,146.464355 679.434976,146.377198 679.670166,146.202881 C679.905356,146.028564 680.022949,145.800294 680.022949,145.518066 Z M686.431152,148 L684.023926,148 L684.023926,139.018555 L686.431152,139.018555 L686.431152,148 Z M683.882812,136.694336 C683.882812,136.334634 684.003173,136.038575 684.243896,135.806152 C684.48462,135.573729 684.812498,135.45752 685.227539,135.45752 C685.637046,135.45752 685.96354,135.573729 686.207031,135.806152 C686.450522,136.038575 686.572266,136.334634 686.572266,136.694336 C686.572266,137.059572 686.449139,137.358397 686.202881,137.59082 C685.956623,137.823243 685.631512,137.939453 685.227539,137.939453 C684.823566,137.939453 684.498455,137.823243 684.252197,137.59082 C684.00594,137.358397 683.882812,137.059572 683.882812,136.694336 Z M688.058105,143.442871 C688.058105,142.064935 688.385983,140.955408 689.041748,140.114258 C689.697513,139.273108 690.581537,138.852539 691.693848,138.852539 C692.678879,138.852539 693.44531,139.190101 693.993164,139.865234 L694.092773,139.018555 L696.267578,139.018555 L696.267578,147.701172 C696.267578,148.486983 696.089113,149.170407 695.732178,149.751465 C695.375242,150.332522 694.87305,150.775226 694.225586,151.07959 C693.578122,151.383953 692.819991,151.536133 691.951172,151.536133 C691.29264,151.536133 690.650719,151.404705 690.025391,151.141846 C689.400062,150.878986 688.926922,150.540041 688.605957,150.125 L689.668457,148.664062 C690.266116,149.333662 690.991044,149.668457 691.843262,149.668457 C692.479658,149.668457 692.974933,149.498293 693.329102,149.157959 C693.68327,148.817625 693.860352,148.334801 693.860352,147.709473 L693.860352,147.228027 C693.306963,147.853356 692.579269,148.166016 691.677246,148.166016 C690.598139,148.166016 689.725182,147.744063 689.05835,146.900146 C688.391517,146.05623 688.058105,144.937019 688.058105,143.54248 L688.058105,143.442871 Z M690.457031,143.617188 C690.457031,144.430668 690.620278,145.068438 690.946777,145.530518 C691.273276,145.992597 691.721514,146.223633 692.291504,146.223633 C693.021976,146.223633 693.54492,145.94971 693.860352,145.401855 L693.860352,141.625 C693.539386,141.077146 693.021976,140.803223 692.308105,140.803223 C691.732582,140.803223 691.280194,141.038409 690.950928,141.508789 C690.621662,141.979169 690.457031,142.681961 690.457031,143.617188 Z M700.318359,139.018555 L700.393066,140.056152 C701.034997,139.253739 701.895502,138.852539 702.974609,138.852539 C703.926437,138.852539 704.634763,139.131996 705.099609,139.690918 C705.564455,140.24984 705.802409,141.085444 705.813477,142.197754 L705.813477,148 L703.414551,148 L703.414551,142.255859 C703.414551,141.746742 703.303875,141.377361 703.08252,141.147705 C702.861164,140.918049 702.493167,140.803223 701.978516,140.803223 C701.303382,140.803223 700.797039,141.09098 700.459473,141.666504 L700.459473,148 L698.060547,148 L698.060547,139.018555 L700.318359,139.018555 Z" id="Design-Copy" fill="#3D3D3D"></path>
        <path d="M754.566895,198.974121 C754.472819,200.274583 753.992761,201.298336 753.126709,202.04541 C752.260656,202.792484 751.11931,203.166016 749.702637,203.166016 C748.15315,203.166016 746.934331,202.644455 746.046143,201.601318 C745.157955,200.558182 744.713867,199.126311 744.713867,197.305664 L744.713867,196.566895 C744.713867,195.404779 744.918618,194.381027 745.328125,193.495605 C745.737632,192.610184 746.322831,191.930911 747.08374,191.457764 C747.844649,190.984617 748.728673,190.748047 749.73584,190.748047 C751.130378,190.748047 752.253739,191.121578 753.105957,191.868652 C753.958175,192.615726 754.450683,193.664381 754.583496,195.014648 L752.093262,195.014648 C752.032389,194.234371 751.815187,193.66854 751.44165,193.317139 C751.068113,192.965737 750.499516,192.790039 749.73584,192.790039 C748.905758,192.790039 748.284589,193.087481 747.872314,193.682373 C747.46004,194.277265 747.248372,195.200026 747.237305,196.450684 L747.237305,197.36377 C747.237305,198.669766 747.435138,199.624346 747.830811,200.227539 C748.226483,200.830732 748.850419,201.132324 749.702637,201.132324 C750.471846,201.132324 751.045978,200.956626 751.425049,200.605225 C751.80412,200.253823 752.021321,199.710127 752.07666,198.974121 L754.566895,198.974121 Z M761.091309,196.268066 C760.76481,196.223795 760.477052,196.20166 760.228027,196.20166 C759.320471,196.20166 758.725587,196.508786 758.443359,197.123047 L758.443359,203 L756.044434,203 L756.044434,194.018555 L758.310547,194.018555 L758.376953,195.089355 C758.858401,194.264807 759.525224,193.852539 760.377441,193.852539 C760.643068,193.852539 760.892089,193.888509 761.124512,193.960449 L761.091309,196.268066 Z M766.221191,203.166016 C764.904128,203.166016 763.831954,202.762048 763.004639,201.954102 C762.177323,201.146155 761.763672,200.069831 761.763672,198.725098 L761.763672,198.492676 C761.763672,197.590653 761.937987,196.784102 762.286621,196.072998 C762.635256,195.361894 763.129147,194.814048 763.768311,194.429443 C764.407474,194.044839 765.136552,193.852539 765.955566,193.852539 C767.184088,193.852539 768.15112,194.239905 768.856689,195.014648 C769.562259,195.789392 769.915039,196.887851 769.915039,198.310059 L769.915039,199.289551 L764.195801,199.289551 C764.273275,199.876142 764.507078,200.346515 764.897217,200.700684 C765.287355,201.054852 765.781247,201.231934 766.378906,201.231934 C767.303065,201.231934 768.025225,200.897139 768.54541,200.227539 L769.724121,201.547363 C769.364419,202.05648 768.877444,202.45353 768.263184,202.738525 C767.648923,203.02352 766.968265,203.166016 766.221191,203.166016 Z M765.947266,195.794922 C765.471352,195.794922 765.085369,195.955402 764.789307,196.276367 C764.493244,196.597332 764.303711,197.056638 764.220703,197.654297 L767.557617,197.654297 L767.557617,197.463379 C767.546549,196.932126 767.402671,196.521242 767.125977,196.230713 C766.849282,195.940184 766.456383,195.794922 765.947266,195.794922 Z M776.480957,203 C776.370279,202.784179 776.290039,202.515789 776.240234,202.194824 C775.659177,202.842288 774.903813,203.166016 773.974121,203.166016 C773.094234,203.166016 772.365156,202.911461 771.786865,202.402344 C771.208575,201.893227 770.919434,201.251306 770.919434,200.476562 C770.919434,199.524735 771.272213,198.794273 771.977783,198.285156 C772.683353,197.776039 773.702956,197.518717 775.036621,197.513184 L776.140625,197.513184 L776.140625,196.998535 C776.140625,196.583494 776.034099,196.251466 775.821045,196.002441 C775.60799,195.753417 775.271812,195.628906 774.8125,195.628906 C774.408527,195.628906 774.091717,195.725748 773.862061,195.919434 C773.632404,196.113119 773.517578,196.378742 773.517578,196.716309 L771.118652,196.716309 C771.118652,196.196124 771.279133,195.714683 771.600098,195.271973 C771.921063,194.829262 772.374834,194.482016 772.961426,194.230225 C773.548017,193.978433 774.206539,193.852539 774.937012,193.852539 C776.043788,193.852539 776.922279,194.130612 777.57251,194.686768 C778.222741,195.242923 778.547852,196.024572 778.547852,197.031738 L778.547852,200.924805 C778.553385,201.777022 778.672362,202.42171 778.904785,202.858887 L778.904785,203 L776.480957,203 Z M774.49707,201.331543 C774.851239,201.331543 775.177733,201.252686 775.476562,201.094971 C775.775392,200.937255 775.996744,200.725587 776.140625,200.459961 L776.140625,198.916016 L775.244141,198.916016 C774.043288,198.916016 773.404135,199.331051 773.32666,200.161133 L773.318359,200.302246 C773.318359,200.601076 773.423502,200.84733 773.633789,201.041016 C773.844077,201.234701 774.131834,201.331543 774.49707,201.331543 Z M783.262695,191.810547 L783.262695,194.018555 L784.79834,194.018555 L784.79834,195.77832 L783.262695,195.77832 L783.262695,200.260742 C783.262695,200.592775 783.326334,200.830728 783.453613,200.974609 C783.580893,201.11849 783.82438,201.19043 784.184082,201.19043 C784.449708,201.19043 784.684895,201.171061 784.889648,201.132324 L784.889648,202.950195 C784.419268,203.094076 783.935061,203.166016 783.437012,203.166016 C781.754712,203.166016 780.896973,202.316578 780.86377,200.617676 L780.86377,195.77832 L779.552246,195.77832 L779.552246,194.018555 L780.86377,194.018555 L780.86377,191.810547 L783.262695,191.810547 Z M790.268555,203.166016 C788.951491,203.166016 787.879317,202.762048 787.052002,201.954102 C786.224687,201.146155 785.811035,200.069831 785.811035,198.725098 L785.811035,198.492676 C785.811035,197.590653 785.98535,196.784102 786.333984,196.072998 C786.682619,195.361894 787.17651,194.814048 787.815674,194.429443 C788.454837,194.044839 789.183915,193.852539 790.00293,193.852539 C791.231451,193.852539 792.198483,194.239905 792.904053,195.014648 C793.609623,195.789392 793.962402,196.887851 793.962402,198.310059 L793.962402,199.289551 L788.243164,199.289551 C788.320638,199.876142 788.554441,200.346515 788.94458,200.700684 C789.334719,201.054852 789.82861,201.231934 790.42627,201.231934 C791.350428,201.231934 792.072589,200.897139 792.592773,200.227539 L793.771484,201.547363 C793.411782,202.05648 792.924808,202.45353 792.310547,202.738525 C791.696286,203.02352 791.015629,203.166016 790.268555,203.166016 Z M789.994629,195.794922 C789.518715,195.794922 789.132733,195.955402 788.83667,196.276367 C788.540607,196.597332 788.351075,197.056638 788.268066,197.654297 L791.60498,197.654297 L791.60498,197.463379 C791.593913,196.932126 791.450034,196.521242 791.17334,196.230713 C790.896646,195.940184 790.503746,195.794922 789.994629,195.794922 Z" id="Create-Copy" fill="#3D3D3D"></path>
        <path d="M762.902344,277.509766 L758.536133,277.509766 L757.706055,280 L755.058105,280 L759.557129,267.914062 L761.864746,267.914062 L766.388672,280 L763.740723,280 L762.902344,277.509766 Z M759.208496,275.492676 L762.22998,275.492676 L760.710938,270.96875 L759.208496,275.492676 Z M771.095215,278.231934 C771.537925,278.231934 771.897622,278.11019 772.174316,277.866699 C772.45101,277.623208 772.594889,277.299481 772.605957,276.895508 L774.855469,276.895508 C774.849935,277.504235 774.683921,278.061765 774.357422,278.568115 C774.030923,279.074465 773.584069,279.467365 773.016846,279.746826 C772.449623,280.026287 771.82292,280.166016 771.136719,280.166016 C769.852858,280.166016 768.840173,279.757898 768.098633,278.94165 C767.357093,278.125403 766.986328,276.997891 766.986328,275.559082 L766.986328,275.401367 C766.986328,274.017897 767.354326,272.913904 768.090332,272.089355 C768.826338,271.264807 769.836257,270.852539 771.120117,270.852539 C772.243495,270.852539 773.144121,271.172116 773.822021,271.811279 C774.499922,272.450443 774.844401,273.301264 774.855469,274.36377 L772.605957,274.36377 C772.594889,273.898923 772.45101,273.521242 772.174316,273.230713 C771.897622,272.940184 771.532392,272.794922 771.078613,272.794922 C770.519691,272.794922 770.097739,272.998289 769.812744,273.405029 C769.527749,273.81177 769.385254,274.471675 769.385254,275.384766 L769.385254,275.633789 C769.385254,276.557947 769.526366,277.222003 769.808594,277.625977 C770.090822,278.02995 770.519691,278.231934 771.095215,278.231934 Z M779.097168,268.810547 L779.097168,271.018555 L780.632812,271.018555 L780.632812,272.77832 L779.097168,272.77832 L779.097168,277.260742 C779.097168,277.592775 779.160807,277.830728 779.288086,277.974609 C779.415365,278.11849 779.658852,278.19043 780.018555,278.19043 C780.284181,278.19043 780.519367,278.171061 780.724121,278.132324 L780.724121,279.950195 C780.253741,280.094076 779.769534,280.166016 779.271484,280.166016 C777.589184,280.166016 776.731445,279.316578 776.698242,277.617676 L776.698242,272.77832 L775.386719,272.77832 L775.386719,271.018555 L776.698242,271.018555 L776.698242,268.810547 L779.097168,268.810547 Z M784.500977,280 L782.09375,280 L782.09375,271.018555 L784.500977,271.018555 L784.500977,280 Z M781.952637,268.694336 C781.952637,268.334634 782.072997,268.038575 782.313721,267.806152 C782.554445,267.573729 782.882322,267.45752 783.297363,267.45752 C783.706871,267.45752 784.033365,267.573729 784.276855,267.806152 C784.520346,268.038575 784.64209,268.334634 784.64209,268.694336 C784.64209,269.059572 784.518963,269.358397 784.272705,269.59082 C784.026447,269.823243 783.701337,269.939453 783.297363,269.939453 C782.89339,269.939453 782.568279,269.823243 782.322021,269.59082 C782.075764,269.358397 781.952637,269.059572 781.952637,268.694336 Z M789.838379,277.069824 L791.506836,271.018555 L794.013672,271.018555 L790.983887,280 L788.692871,280 L785.663086,271.018555 L788.169922,271.018555 L789.838379,277.069824 Z M800.147949,280 C800.037272,279.784179 799.957031,279.515789 799.907227,279.194824 C799.326169,279.842288 798.570805,280.166016 797.641113,280.166016 C796.761226,280.166016 796.032148,279.911461 795.453857,279.402344 C794.875567,278.893227 794.586426,278.251306 794.586426,277.476562 C794.586426,276.524735 794.939205,275.794273 795.644775,275.285156 C796.350345,274.776039 797.369948,274.518717 798.703613,274.513184 L799.807617,274.513184 L799.807617,273.998535 C799.807617,273.583494 799.701092,273.251466 799.488037,273.002441 C799.274983,272.753417 798.938804,272.628906 798.479492,272.628906 C798.075519,272.628906 797.758709,272.725748 797.529053,272.919434 C797.299397,273.113119 797.18457,273.378742 797.18457,273.716309 L794.785645,273.716309 C794.785645,273.196124 794.946125,272.714683 795.26709,272.271973 C795.588055,271.829262 796.041826,271.482016 796.628418,271.230225 C797.215009,270.978433 797.873532,270.852539 798.604004,270.852539 C799.71078,270.852539 800.589271,271.130612 801.239502,271.686768 C801.889733,272.242923 802.214844,273.024572 802.214844,274.031738 L802.214844,277.924805 C802.220378,278.777022 802.339354,279.42171 802.571777,279.858887 L802.571777,280 L800.147949,280 Z M798.164062,278.331543 C798.518231,278.331543 798.844725,278.252686 799.143555,278.094971 C799.442384,277.937255 799.663736,277.725587 799.807617,277.459961 L799.807617,275.916016 L798.911133,275.916016 C797.71028,275.916016 797.071127,276.331051 796.993652,277.161133 L796.985352,277.302246 C796.985352,277.601076 797.090494,277.84733 797.300781,278.041016 C797.511069,278.234701 797.798826,278.331543 798.164062,278.331543 Z M806.929688,268.810547 L806.929688,271.018555 L808.465332,271.018555 L808.465332,272.77832 L806.929688,272.77832 L806.929688,277.260742 C806.929688,277.592775 806.993326,277.830728 807.120605,277.974609 C807.247885,278.11849 807.491372,278.19043 807.851074,278.19043 C808.116701,278.19043 808.351887,278.171061 808.556641,278.132324 L808.556641,279.950195 C808.086261,280.094076 807.602053,280.166016 807.104004,280.166016 C805.421704,280.166016 804.563965,279.316578 804.530762,277.617676 L804.530762,272.77832 L803.219238,272.77832 L803.219238,271.018555 L804.530762,271.018555 L804.530762,268.810547 L806.929688,268.810547 Z M813.935547,280.166016 C812.618483,280.166016 811.546309,279.762048 810.718994,278.954102 C809.891679,278.146155 809.478027,277.069831 809.478027,275.725098 L809.478027,275.492676 C809.478027,274.590653 809.652342,273.784102 810.000977,273.072998 C810.349611,272.361894 810.843503,271.814048 811.482666,271.429443 C812.121829,271.044839 812.850907,270.852539 813.669922,270.852539 C814.898444,270.852539 815.865475,271.239905 816.571045,272.014648 C817.276615,272.789392 817.629395,273.887851 817.629395,275.310059 L817.629395,276.289551 L811.910156,276.289551 C811.987631,276.876142 812.221434,277.346515 812.611572,277.700684 C813.001711,278.054852 813.495602,278.231934 814.093262,278.231934 C815.01742,278.231934 815.739581,277.897139 816.259766,277.227539 L817.438477,278.547363 C817.078774,279.05648 816.5918,279.45353 815.977539,279.738525 C815.363278,280.02352 814.682621,280.166016 813.935547,280.166016 Z M813.661621,272.794922 C813.185707,272.794922 812.799725,272.955402 812.503662,273.276367 C812.207599,273.597332 812.018067,274.056638 811.935059,274.654297 L815.271973,274.654297 L815.271973,274.463379 C815.260905,273.932126 815.117026,273.521242 814.840332,273.230713 C814.563638,272.940184 814.170738,272.794922 813.661621,272.794922 Z" id="Activate-Copy" fill="#3D3D3D"></path>
        <path d="M225.906638,72.5 L225.906638,243" id="Line-Copy" stroke="#BFBFBF" stroke-linecap="square" stroke-dasharray="2" fill-rule="nonzero"></path>
        <path d="M224.906638,23.2215025 L224.906638,462.611236" id="Line-Copy" stroke="#BFBFBF" stroke-linecap="square" stroke-dasharray="2" fill-rule="nonzero" transform="translate(225.000000, 243.000000) rotate(-90.000000) translate(-225.000000, -243.000000) "></path>
        <path d="M604.5,355 L747,129.5" id="Line-2-Copy" stroke="#BFBFBF" stroke-linecap="square" stroke-dasharray="2" fill-rule="nonzero"></path>
        <path d="M897,244 L461,242" id="Line-6-Copy" stroke="#BFBFBF" stroke-linecap="square" stroke-dasharray="2" fill-rule="nonzero"></path>
        <path d="M749.5,354.5 L605,135.5" id="Line-7-Copy" stroke="#BFBFBF" stroke-linecap="square" stroke-dasharray="2" fill-rule="nonzero"></path>
        <path d="M659.569336,345.999512 L664.856934,345.999512 L664.856934,348 L657.079102,348 L657.079102,335.914062 L659.569336,335.914062 L659.569336,345.999512 Z M670.260742,348.166016 C668.943678,348.166016 667.871505,347.762048 667.044189,346.954102 C666.216874,346.146155 665.803223,345.069831 665.803223,343.725098 L665.803223,343.492676 C665.803223,342.590653 665.977537,341.784102 666.326172,341.072998 C666.674806,340.361894 667.168698,339.814048 667.807861,339.429443 C668.447025,339.044839 669.176103,338.852539 669.995117,338.852539 C671.223639,338.852539 672.19067,339.239905 672.89624,340.014648 C673.60181,340.789392 673.95459,341.887851 673.95459,343.310059 L673.95459,344.289551 L668.235352,344.289551 C668.312826,344.876142 668.546629,345.346515 668.936768,345.700684 C669.326906,346.054852 669.820798,346.231934 670.418457,346.231934 C671.342615,346.231934 672.064776,345.897139 672.584961,345.227539 L673.763672,346.547363 C673.40397,347.05648 672.916995,347.45353 672.302734,347.738525 C671.688473,348.02352 671.007816,348.166016 670.260742,348.166016 Z M669.986816,340.794922 C669.510903,340.794922 669.12492,340.955402 668.828857,341.276367 C668.532795,341.597332 668.343262,342.056638 668.260254,342.654297 L671.597168,342.654297 L671.597168,342.463379 C671.5861,341.932126 671.442221,341.521242 671.165527,341.230713 C670.888833,340.940184 670.495934,340.794922 669.986816,340.794922 Z M680.520508,348 C680.40983,347.784179 680.32959,347.515789 680.279785,347.194824 C679.698728,347.842288 678.943364,348.166016 678.013672,348.166016 C677.133785,348.166016 676.404707,347.911461 675.826416,347.402344 C675.248125,346.893227 674.958984,346.251306 674.958984,345.476562 C674.958984,344.524735 675.311764,343.794273 676.017334,343.285156 C676.722904,342.776039 677.742506,342.518717 679.076172,342.513184 L680.180176,342.513184 L680.180176,341.998535 C680.180176,341.583494 680.07365,341.251466 679.860596,341.002441 C679.647541,340.753417 679.311363,340.628906 678.852051,340.628906 C678.448077,340.628906 678.131267,340.725748 677.901611,340.919434 C677.671955,341.113119 677.557129,341.378742 677.557129,341.716309 L675.158203,341.716309 C675.158203,341.196124 675.318683,340.714683 675.639648,340.271973 C675.960614,339.829262 676.414385,339.482016 677.000977,339.230225 C677.587568,338.978433 678.24609,338.852539 678.976562,338.852539 C680.083339,338.852539 680.961829,339.130612 681.612061,339.686768 C682.262292,340.242923 682.587402,341.024572 682.587402,342.031738 L682.587402,345.924805 C682.592936,346.777022 682.711913,347.42171 682.944336,347.858887 L682.944336,348 L680.520508,348 Z M678.536621,346.331543 C678.89079,346.331543 679.217284,346.252686 679.516113,346.094971 C679.814943,345.937255 680.036295,345.725587 680.180176,345.459961 L680.180176,343.916016 L679.283691,343.916016 C678.082839,343.916016 677.443685,344.331051 677.366211,345.161133 L677.35791,345.302246 C677.35791,345.601076 677.463052,345.84733 677.67334,346.041016 C677.883627,346.234701 678.171385,346.331543 678.536621,346.331543 Z M689.477051,341.268066 C689.150552,341.223795 688.862794,341.20166 688.61377,341.20166 C687.706213,341.20166 687.11133,341.508786 686.829102,342.123047 L686.829102,348 L684.430176,348 L684.430176,339.018555 L686.696289,339.018555 L686.762695,340.089355 C687.244143,339.264807 687.910966,338.852539 688.763184,338.852539 C689.02881,338.852539 689.277831,338.888509 689.510254,338.960449 L689.477051,341.268066 Z M692.838867,339.018555 L692.913574,340.056152 C693.555505,339.253739 694.41601,338.852539 695.495117,338.852539 C696.446945,338.852539 697.155271,339.131996 697.620117,339.690918 C698.084963,340.24984 698.322917,341.085444 698.333984,342.197754 L698.333984,348 L695.935059,348 L695.935059,342.255859 C695.935059,341.746742 695.824383,341.377361 695.603027,341.147705 C695.381672,340.918049 695.013674,340.803223 694.499023,340.803223 C693.82389,340.803223 693.317547,341.09098 692.97998,341.666504 L692.97998,348 L690.581055,348 L690.581055,339.018555 L692.838867,339.018555 Z" id="Learn-Copy" fill="#3D3D3D"></path>
        <path d="M564.006836,273.230957 C564.006836,274.420742 563.796552,275.463863 563.375977,276.360352 C562.955402,277.25684 562.353601,277.948565 561.570557,278.435547 C560.787512,278.922528 559.889654,279.166016 558.876953,279.166016 C557.875321,279.166016 556.981612,278.925295 556.195801,278.443848 C555.40999,277.9624 554.801272,277.274825 554.369629,276.381104 C553.937986,275.487382 553.719401,274.459478 553.713867,273.297363 L553.713867,272.699707 C553.713867,271.509922 553.928302,270.462651 554.357178,269.557861 C554.786054,268.653072 555.392005,267.95858 556.175049,267.474365 C556.958093,266.990151 557.853185,266.748047 558.860352,266.748047 C559.867518,266.748047 560.76261,266.990151 561.545654,267.474365 C562.328699,267.95858 562.93465,268.653072 563.363525,269.557861 C563.792401,270.462651 564.006836,271.507156 564.006836,272.691406 L564.006836,273.230957 Z M561.483398,272.683105 C561.483398,271.415847 561.256513,270.452966 560.802734,269.794434 C560.348956,269.135902 559.701502,268.806641 558.860352,268.806641 C558.024735,268.806641 557.380048,269.131751 556.92627,269.781982 C556.472491,270.432214 556.242839,271.38541 556.237305,272.641602 L556.237305,273.230957 C556.237305,274.465013 556.46419,275.42236 556.917969,276.103027 C557.371747,276.783695 558.024735,277.124023 558.876953,277.124023 C559.712569,277.124023 560.35449,276.796146 560.802734,276.140381 C561.250979,275.484616 561.477865,274.528652 561.483398,273.272461 L561.483398,272.683105 Z M573.743652,274.592285 C573.743652,275.975756 573.429609,277.083899 572.801514,277.916748 C572.173418,278.749597 571.325363,279.166016 570.257324,279.166016 C569.349768,279.166016 568.616539,278.850589 568.057617,278.219727 L568.057617,282.453125 L565.658691,282.453125 L565.658691,270.018555 L567.883301,270.018555 L567.966309,270.898438 C568.547366,270.201168 569.305497,269.852539 570.240723,269.852539 C571.347499,269.852539 572.208005,270.26204 572.822266,271.081055 C573.436527,271.900069 573.743652,273.028964 573.743652,274.467773 L573.743652,274.592285 Z M571.344727,274.417969 C571.344727,273.582353 571.196697,272.937665 570.900635,272.483887 C570.604572,272.030108 570.174319,271.803223 569.609863,271.803223 C568.857255,271.803223 568.339845,272.09098 568.057617,272.666504 L568.057617,276.34375 C568.350913,276.935875 568.873857,277.231934 569.626465,277.231934 C570.771978,277.231934 571.344727,276.293955 571.344727,274.417969 Z M578.101562,267.810547 L578.101562,270.018555 L579.637207,270.018555 L579.637207,271.77832 L578.101562,271.77832 L578.101562,276.260742 C578.101562,276.592775 578.165201,276.830728 578.29248,276.974609 C578.41976,277.11849 578.663247,277.19043 579.022949,277.19043 C579.288576,277.19043 579.523762,277.171061 579.728516,277.132324 L579.728516,278.950195 C579.258136,279.094076 578.773928,279.166016 578.275879,279.166016 C576.593579,279.166016 575.73584,278.316578 575.702637,276.617676 L575.702637,271.77832 L574.391113,271.77832 L574.391113,270.018555 L575.702637,270.018555 L575.702637,267.810547 L578.101562,267.810547 Z M583.505371,279 L581.098145,279 L581.098145,270.018555 L583.505371,270.018555 L583.505371,279 Z M580.957031,267.694336 C580.957031,267.334634 581.077391,267.038575 581.318115,266.806152 C581.558839,266.573729 581.886717,266.45752 582.301758,266.45752 C582.711265,266.45752 583.037759,266.573729 583.28125,266.806152 C583.524741,267.038575 583.646484,267.334634 583.646484,267.694336 C583.646484,268.059572 583.523357,268.358397 583.2771,268.59082 C583.030842,268.823243 582.705731,268.939453 582.301758,268.939453 C581.897784,268.939453 581.572674,268.823243 581.326416,268.59082 C581.080158,268.358397 580.957031,268.059572 580.957031,267.694336 Z M587.730469,270.018555 L587.805176,271.022949 C588.441572,270.242672 589.302078,269.852539 590.386719,269.852539 C591.5433,269.852539 592.3374,270.309077 592.769043,271.222168 C593.399905,270.309077 594.299148,269.852539 595.466797,269.852539 C596.44076,269.852539 597.165688,270.136146 597.641602,270.703369 C598.117515,271.270592 598.355469,272.12418 598.355469,273.26416 L598.355469,279 L595.948242,279 L595.948242,273.272461 C595.948242,272.763344 595.848634,272.391196 595.649414,272.156006 C595.450194,271.920816 595.098798,271.803223 594.595215,271.803223 C593.87581,271.803223 593.377768,272.146318 593.101074,272.83252 L593.109375,279 L590.710449,279 L590.710449,273.280762 C590.710449,272.760577 590.608074,272.384279 590.40332,272.151855 C590.198567,271.919432 589.849937,271.803223 589.357422,271.803223 C588.676754,271.803223 588.184246,272.085446 587.879883,272.649902 L587.879883,279 L585.480957,279 L585.480957,270.018555 L587.730469,270.018555 Z M602.72998,279 L600.322754,279 L600.322754,270.018555 L602.72998,270.018555 L602.72998,279 Z M600.181641,267.694336 C600.181641,267.334634 600.302001,267.038575 600.542725,266.806152 C600.783448,266.573729 601.111326,266.45752 601.526367,266.45752 C601.935874,266.45752 602.262369,266.573729 602.505859,266.806152 C602.74935,267.038575 602.871094,267.334634 602.871094,267.694336 C602.871094,268.059572 602.747967,268.358397 602.501709,268.59082 C602.255451,268.823243 601.930341,268.939453 601.526367,268.939453 C601.122394,268.939453 600.797283,268.823243 600.551025,268.59082 C600.304768,268.358397 600.181641,268.059572 600.181641,267.694336 Z M609.569824,276.518066 C609.569824,276.224771 609.424562,275.993735 609.134033,275.824951 C608.843504,275.656168 608.377282,275.505372 607.735352,275.372559 C605.599273,274.924314 604.53125,274.016771 604.53125,272.649902 C604.53125,271.853023 604.861894,271.187584 605.523193,270.653564 C606.184492,270.119545 607.049148,269.852539 608.117188,269.852539 C609.257167,269.852539 610.168861,270.120928 610.852295,270.657715 C611.535729,271.194501 611.877441,271.89176 611.877441,272.749512 L609.478516,272.749512 C609.478516,272.406411 609.36784,272.122804 609.146484,271.898682 C608.925129,271.674559 608.579267,271.5625 608.108887,271.5625 C607.704913,271.5625 607.392254,271.653808 607.170898,271.836426 C606.949543,272.019044 606.838867,272.251463 606.838867,272.533691 C606.838867,272.799318 606.964761,273.013752 607.216553,273.177002 C607.468344,273.340251 607.893063,273.481363 608.490723,273.600342 C609.088382,273.71932 609.591958,273.853515 610.001465,274.00293 C611.268724,274.467776 611.902344,275.272943 611.902344,276.418457 C611.902344,277.237472 611.550948,277.900144 610.848145,278.406494 C610.145342,278.912844 609.237799,279.166016 608.125488,279.166016 C607.37288,279.166016 606.704674,279.031821 606.12085,278.763428 C605.537025,278.495034 605.079103,278.127037 604.74707,277.659424 C604.415037,277.191811 604.249023,276.686852 604.249023,276.144531 L606.523438,276.144531 C606.545573,276.57064 606.703286,276.897134 606.996582,277.124023 C607.289878,277.350913 607.682777,277.464355 608.175293,277.464355 C608.634605,277.464355 608.981851,277.377198 609.217041,277.202881 C609.452231,277.028564 609.569824,276.800294 609.569824,276.518066 Z M617.580078,279.166016 C616.263014,279.166016 615.190841,278.762048 614.363525,277.954102 C613.53621,277.146155 613.122559,276.069831 613.122559,274.725098 L613.122559,274.492676 C613.122559,273.590653 613.296873,272.784102 613.645508,272.072998 C613.994142,271.361894 614.488034,270.814048 615.127197,270.429443 C615.766361,270.044839 616.495439,269.852539 617.314453,269.852539 C618.542975,269.852539 619.510006,270.239905 620.215576,271.014648 C620.921146,271.789392 621.273926,272.887851 621.273926,274.310059 L621.273926,275.289551 L615.554688,275.289551 C615.632162,275.876142 615.865965,276.346515 616.256104,276.700684 C616.646242,277.054852 617.140134,277.231934 617.737793,277.231934 C618.661951,277.231934 619.384112,276.897139 619.904297,276.227539 L621.083008,277.547363 C620.723305,278.05648 620.236331,278.45353 619.62207,278.738525 C619.007809,279.02352 618.327152,279.166016 617.580078,279.166016 Z M617.306152,271.794922 C616.830239,271.794922 616.444256,271.955402 616.148193,272.276367 C615.852131,272.597332 615.662598,273.056638 615.57959,273.654297 L618.916504,273.654297 L618.916504,273.463379 C618.905436,272.932126 618.761557,272.521242 618.484863,272.230713 C618.208169,271.940184 617.815269,271.794922 617.306152,271.794922 Z" id="Optimise-Copy" fill="#3D3D3D"></path>
        <path d="M178.953857,22.0703125 L178.953857,31.8422852 C178.953857,32.9497126 178.71802,33.9084432 178.246338,34.7185059 C177.774656,35.5285685 177.097905,36.1455057 176.216064,36.5693359 C175.334224,36.9931662 174.291754,37.2050781 173.088623,37.2050781 C171.270255,37.2050781 169.83814,36.7334032 168.792236,35.7900391 C167.746333,34.846675 167.213135,33.5546957 167.192627,31.9140625 L167.192627,22.0703125 L170.812256,22.0703125 L170.812256,31.9858398 C170.853272,33.6196371 171.612053,34.4365234 173.088623,34.4365234 C173.833744,34.4365234 174.397703,34.2314474 174.780518,33.8212891 C175.163332,33.4111308 175.354736,32.7446335 175.354736,31.8217773 L175.354736,22.0703125 L178.953857,22.0703125 Z M184.214111,25.9052734 L184.326904,27.2075195 C185.092533,26.2026317 186.148675,25.7001953 187.495361,25.7001953 C188.650641,25.7001953 189.513669,26.0454067 190.084473,26.7358398 C190.655276,27.426273 190.950928,28.4653251 190.971436,29.8530273 L190.971436,37 L187.505615,37 L187.505615,29.996582 C187.505615,29.4360324 187.392823,29.0241712 187.167236,28.7609863 C186.941649,28.4978014 186.531497,28.3662109 185.936768,28.3662109 C185.260006,28.3662109 184.75757,28.6328098 184.429443,29.1660156 L184.429443,37 L180.973877,37 L180.973877,25.9052734 L184.214111,25.9052734 Z M192.447998,31.3706055 C192.447998,29.6137607 192.827389,28.2294972 193.586182,27.2177734 C194.344974,26.2060496 195.404534,25.7001953 196.764893,25.7001953 C197.756108,25.7001953 198.590085,26.0898399 199.266846,26.8691406 L199.266846,21.25 L202.732666,21.25 L202.732666,37 L199.625732,37 L199.451416,35.8105469 C198.740475,36.740239 197.83814,37.2050781 196.744385,37.2050781 C195.425042,37.2050781 194.379154,36.6992238 193.606689,35.6875 C192.834225,34.6757762 192.447998,33.2368257 192.447998,31.3706055 Z M195.903564,31.5859375 C195.903564,33.5546973 196.477777,34.5390625 197.626221,34.5390625 C198.39185,34.5390625 198.938719,34.2177767 199.266846,33.5751953 L199.266846,29.3505859 C198.952391,28.6943327 198.412357,28.3662109 197.646729,28.3662109 C196.580317,28.3662109 196.002686,29.2275304 195.913818,30.9501953 L195.903564,31.5859375 Z M210.064209,37.2050781 C208.362052,37.2050781 206.984624,36.6975148 205.931885,35.682373 C204.879145,34.6672313 204.352783,33.3461995 204.352783,31.7192383 L204.352783,31.4321289 C204.352783,30.2973576 204.562986,29.2959028 204.983398,28.4277344 C205.403811,27.559566 206.01733,26.8879418 206.823975,26.4128418 C207.630619,25.9377418 208.587641,25.7001953 209.695068,25.7001953 C211.25367,25.7001953 212.484126,26.1838331 213.386475,27.151123 C214.288823,28.118413 214.73999,29.4667882 214.73999,31.1962891 L214.73999,32.5395508 L207.869873,32.5395508 C207.992921,33.1616242 208.262937,33.6503888 208.679932,34.0058594 C209.096926,34.3613299 209.63696,34.5390625 210.300049,34.5390625 C211.393804,34.5390625 212.248288,34.1562538 212.863525,33.390625 L214.442627,35.2568359 C214.011961,35.8515655 213.401859,36.3249494 212.612305,36.677002 C211.82275,37.0290545 210.973393,37.2050781 210.064209,37.2050781 Z M209.674561,28.3662109 C208.662837,28.3662109 208.06128,29.0361261 207.869873,30.3759766 L211.356201,30.3759766 L211.356201,30.109375 C211.369873,29.5556613 211.229738,29.1267105 210.935791,28.8225098 C210.641844,28.518309 210.221438,28.3662109 209.674561,28.3662109 Z M222.840576,29.0327148 L221.702393,28.9506836 C220.615473,28.9506836 219.918214,29.2924771 219.610596,29.9760742 L219.610596,37 L216.155029,37 L216.155029,25.9052734 L219.395264,25.9052734 L219.508057,27.3305664 C220.089114,26.2436469 220.899165,25.7001953 221.938232,25.7001953 C222.307375,25.7001953 222.628661,25.7412105 222.9021,25.8232422 L222.840576,29.0327148 Z M229.895264,33.8828125 C229.895264,33.5888657 229.741457,33.3530282 229.433838,33.175293 C229.126219,32.9975577 228.541752,32.8129892 227.68042,32.621582 C226.819087,32.4301748 226.108157,32.1789566 225.547607,31.8679199 C224.987058,31.5568832 224.559816,31.1792014 224.265869,30.7348633 C223.971922,30.2905251 223.824951,29.7812529 223.824951,29.2070312 C223.824951,28.1884715 224.245357,27.3493685 225.086182,26.6896973 C225.927006,26.030026 227.027581,25.7001953 228.387939,25.7001953 C229.850837,25.7001953 231.026607,26.031735 231.915283,26.6948242 C232.80396,27.3579135 233.248291,28.2294868 233.248291,29.3095703 L229.782471,29.3095703 C229.782471,28.420894 229.314214,27.9765625 228.377686,27.9765625 C228.015379,27.9765625 227.711183,28.0773916 227.465088,28.2790527 C227.218993,28.4807139 227.095947,28.7319321 227.095947,29.0327148 C227.095947,29.3403336 227.246336,29.5898428 227.547119,29.78125 C227.847902,29.9726572 228.328122,30.1298822 228.987793,30.2529297 C229.647464,30.3759772 230.226804,30.5229484 230.72583,30.6938477 C232.393807,31.2680693 233.227783,32.2968676 233.227783,33.7802734 C233.227783,34.7919972 232.778325,35.6157195 231.879395,36.2514648 C230.980464,36.8872102 229.816658,37.2050781 228.387939,37.2050781 C227.437739,37.2050781 226.590092,37.0341814 225.844971,36.6923828 C225.09985,36.3505842 224.518801,35.8857451 224.101807,35.2978516 C223.684812,34.709958 223.476318,34.0913118 223.476318,33.4418945 L226.706299,33.4418945 C226.719971,33.9545924 226.890867,34.3288562 227.218994,34.5646973 C227.547121,34.8005383 227.967527,34.918457 228.480225,34.918457 C228.951907,34.918457 229.305663,34.8227549 229.541504,34.6313477 C229.777345,34.4399404 229.895264,34.1904312 229.895264,33.8828125 Z M238.867432,23.1469727 L238.867432,25.9052734 L240.692627,25.9052734 L240.692627,28.3046875 L238.867432,28.3046875 L238.867432,33.3803711 C238.867432,33.7973654 238.942626,34.0878898 239.093018,34.2519531 C239.243409,34.4160164 239.540769,34.4980469 239.985107,34.4980469 C240.326906,34.4980469 240.614013,34.4775393 240.846436,34.4365234 L240.846436,36.9077148 C240.224362,37.105958 239.574955,37.2050781 238.898193,37.2050781 C237.708734,37.2050781 236.830325,36.9248075 236.262939,36.3642578 C235.695554,35.8037081 235.411865,34.9526424 235.411865,33.8110352 L235.411865,28.3046875 L233.996826,28.3046875 L233.996826,25.9052734 L235.411865,25.9052734 L235.411865,23.1469727 L238.867432,23.1469727 Z M248.301025,37 C248.177978,36.7744129 248.068604,36.4428733 247.9729,36.0053711 C247.337155,36.8051798 246.448492,37.2050781 245.306885,37.2050781 C244.260981,37.2050781 243.372318,36.8889192 242.640869,36.2565918 C241.90942,35.6242644 241.543701,34.8295946 241.543701,33.8725586 C241.543701,32.6694276 241.988033,31.760257 242.876709,31.1450195 C243.765385,30.5297821 245.057365,30.222168 246.752686,30.222168 L247.819092,30.222168 L247.819092,29.6376953 C247.819092,28.6191355 247.378178,28.1098633 246.496338,28.1098633 C245.676021,28.1098633 245.265869,28.5131796 245.265869,29.3198242 L241.810303,29.3198242 C241.810303,28.2465767 242.266597,27.3750033 243.179199,26.7050781 C244.091801,26.0351529 245.255608,25.7001953 246.670654,25.7001953 C248.0857,25.7001953 249.203365,26.0454067 250.023682,26.7358398 C250.843998,27.426273 251.264404,28.3730409 251.284912,29.5761719 L251.284912,34.487793 C251.298584,35.5063527 251.455809,36.2856418 251.756592,36.8256836 L251.756592,37 L248.301025,37 Z M246.137451,34.7441406 C246.568117,34.7441406 246.925292,34.6518564 247.208984,34.4672852 C247.492677,34.2827139 247.696044,34.0742199 247.819092,33.8417969 L247.819092,32.0678711 L246.814209,32.0678711 C245.611078,32.0678711 245.009521,32.6079048 245.009521,33.6879883 C245.009521,34.002443 245.115477,34.2570791 245.327393,34.4519043 C245.539308,34.6467295 245.809325,34.7441406 246.137451,34.7441406 Z M256.37085,25.9052734 L256.483643,27.2075195 C257.249271,26.2026317 258.305413,25.7001953 259.6521,25.7001953 C260.807379,25.7001953 261.670407,26.0454067 262.241211,26.7358398 C262.812015,27.426273 263.107666,28.4653251 263.128174,29.8530273 L263.128174,37 L259.662354,37 L259.662354,29.996582 C259.662354,29.4360324 259.549562,29.0241712 259.323975,28.7609863 C259.098388,28.4978014 258.688235,28.3662109 258.093506,28.3662109 C257.416745,28.3662109 256.914308,28.6328098 256.586182,29.1660156 L256.586182,37 L253.130615,37 L253.130615,25.9052734 L256.37085,25.9052734 Z M264.604736,31.3706055 C264.604736,29.6137607 264.984127,28.2294972 265.74292,27.2177734 C266.501713,26.2060496 267.561272,25.7001953 268.921631,25.7001953 C269.912847,25.7001953 270.746823,26.0898399 271.423584,26.8691406 L271.423584,21.25 L274.889404,21.25 L274.889404,37 L271.782471,37 L271.608154,35.8105469 C270.897213,36.740239 269.994879,37.2050781 268.901123,37.2050781 C267.581781,37.2050781 266.535893,36.6992238 265.763428,35.6875 C264.990963,34.6757762 264.604736,33.2368257 264.604736,31.3706055 Z M268.060303,31.5859375 C268.060303,33.5546973 268.634516,34.5390625 269.782959,34.5390625 C270.548588,34.5390625 271.095457,34.2177767 271.423584,33.5751953 L271.423584,29.3505859 C271.109129,28.6943327 270.569096,28.3662109 269.803467,28.3662109 C268.737055,28.3662109 268.159424,29.2275304 268.070557,30.9501953 L268.060303,31.5859375 Z" id="Understand-Copy" fill="#3D3D3D"></path>
        <path d="M652.796387,30.6733398 L647.13623,30.6733398 L647.13623,34.2314453 L653.821777,34.2314453 L653.821777,37 L643.537109,37 L643.537109,22.0703125 L653.842285,22.0703125 L653.842285,24.8491211 L647.13623,24.8491211 L647.13623,27.9970703 L652.796387,27.9970703 L652.796387,30.6733398 Z M659.625488,28.9609375 L661.235352,25.9052734 L664.824219,25.9052734 L661.901855,31.309082 L664.967773,37 L661.358398,37 L659.615234,33.71875 L657.902832,37 L654.272949,37 L657.349121,31.309082 L654.437012,25.9052734 L658.066895,25.9052734 L659.625488,28.9609375 Z M671.099609,37.2050781 C669.397452,37.2050781 668.020025,36.6975148 666.967285,35.682373 C665.914546,34.6672313 665.388184,33.3461995 665.388184,31.7192383 L665.388184,31.4321289 C665.388184,30.2973576 665.598387,29.2959028 666.018799,28.4277344 C666.439211,27.559566 667.05273,26.8879418 667.859375,26.4128418 C668.66602,25.9377418 669.623041,25.7001953 670.730469,25.7001953 C672.28907,25.7001953 673.519527,26.1838331 674.421875,27.151123 C675.324223,28.118413 675.775391,29.4667882 675.775391,31.1962891 L675.775391,32.5395508 L668.905273,32.5395508 C669.028321,33.1616242 669.298338,33.6503888 669.715332,34.0058594 C670.132326,34.3613299 670.67236,34.5390625 671.335449,34.5390625 C672.429205,34.5390625 673.283688,34.1562538 673.898926,33.390625 L675.478027,35.2568359 C675.047361,35.8515655 674.43726,36.3249494 673.647705,36.677002 C672.85815,37.0290545 672.008794,37.2050781 671.099609,37.2050781 Z M670.709961,28.3662109 C669.698237,28.3662109 669.096681,29.0361261 668.905273,30.3759766 L672.391602,30.3759766 L672.391602,30.109375 C672.405274,29.5556613 672.265138,29.1267105 671.971191,28.8225098 C671.677245,28.518309 671.256839,28.3662109 670.709961,28.3662109 Z M681.855957,34.5390625 C682.341311,34.5390625 682.717284,34.407472 682.983887,34.1442871 C683.25049,33.8811022 683.380371,33.5136742 683.373535,33.0419922 L686.61377,33.0419922 C686.61377,34.2587951 686.177983,35.256832 685.306396,36.0361328 C684.43481,36.8154336 683.312019,37.2050781 681.937988,37.2050781 C680.324699,37.2050781 679.053227,36.6992238 678.123535,35.6875 C677.193843,34.6757762 676.729004,33.274423 676.729004,31.4833984 L676.729004,31.3398438 C676.729004,30.2187444 676.935789,29.2292523 677.349365,28.3713379 C677.762942,27.5134234 678.359371,26.8537621 679.138672,26.392334 C679.917973,25.9309059 680.840815,25.7001953 681.907227,25.7001953 C683.349617,25.7001953 684.494625,26.1000937 685.342285,26.8999023 C686.189946,27.699711 686.61377,28.7831963 686.61377,30.1503906 L683.373535,30.1503906 C683.373535,29.576169 683.2334,29.1352554 682.953125,28.8276367 C682.67285,28.520018 682.296877,28.3662109 681.825195,28.3662109 C680.929683,28.3662109 680.406739,28.937006 680.256348,30.0786133 C680.208496,30.4409198 680.18457,30.9399382 680.18457,31.5756836 C680.18457,32.689947 680.31787,33.4624002 680.584473,33.8930664 C680.851076,34.3237326 681.274899,34.5390625 681.855957,34.5390625 Z M694.683594,35.800293 C693.952145,36.7368211 692.964362,37.2050781 691.720215,37.2050781 C690.503412,37.2050781 689.582279,36.8513219 688.956787,36.1437988 C688.331296,35.4362758 688.018555,34.4194402 688.018555,33.0932617 L688.018555,25.9052734 L691.474121,25.9052734 L691.474121,33.1137695 C691.474121,34.0639696 691.935542,34.5390625 692.858398,34.5390625 C693.651371,34.5390625 694.21533,34.2553739 694.550293,33.6879883 L694.550293,25.9052734 L698.026367,25.9052734 L698.026367,37 L694.786133,37 L694.683594,35.800293 Z M703.942871,23.1469727 L703.942871,25.9052734 L705.768066,25.9052734 L705.768066,28.3046875 L703.942871,28.3046875 L703.942871,33.3803711 C703.942871,33.7973654 704.018066,34.0878898 704.168457,34.2519531 C704.318848,34.4160164 704.616209,34.4980469 705.060547,34.4980469 C705.402345,34.4980469 705.689452,34.4775393 705.921875,34.4365234 L705.921875,36.9077148 C705.299802,37.105958 704.650394,37.2050781 703.973633,37.2050781 C702.784174,37.2050781 701.905765,36.9248075 701.338379,36.3642578 C700.770993,35.8037081 700.487305,34.9526424 700.487305,33.8110352 L700.487305,28.3046875 L699.072266,28.3046875 L699.072266,25.9052734 L700.487305,25.9052734 L700.487305,23.1469727 L703.942871,23.1469727 Z M712.494629,37.2050781 C710.792472,37.2050781 709.415044,36.6975148 708.362305,35.682373 C707.309565,34.6672313 706.783203,33.3461995 706.783203,31.7192383 L706.783203,31.4321289 C706.783203,30.2973576 706.993406,29.2959028 707.413818,28.4277344 C707.834231,27.559566 708.44775,26.8879418 709.254395,26.4128418 C710.061039,25.9377418 711.018061,25.7001953 712.125488,25.7001953 C713.68409,25.7001953 714.914546,26.1838331 715.816895,27.151123 C716.719243,28.118413 717.17041,29.4667882 717.17041,31.1962891 L717.17041,32.5395508 L710.300293,32.5395508 C710.42334,33.1616242 710.693357,33.6503888 711.110352,34.0058594 C711.527346,34.3613299 712.067379,34.5390625 712.730469,34.5390625 C713.824224,34.5390625 714.678708,34.1562538 715.293945,33.390625 L716.873047,35.2568359 C716.442381,35.8515655 715.832279,36.3249494 715.042725,36.677002 C714.25317,37.0290545 713.403813,37.2050781 712.494629,37.2050781 Z M712.10498,28.3662109 C711.093257,28.3662109 710.4917,29.0361261 710.300293,30.3759766 L713.786621,30.3759766 L713.786621,30.109375 C713.800293,29.5556613 713.660158,29.1267105 713.366211,28.8225098 C713.072264,28.518309 712.651858,28.3662109 712.10498,28.3662109 Z" id="Execute-Copy" fill="#3D3D3D"></path>
        <path d="M428.239746,36 L425.95752,36 L428.304688,22.4921875 L430.586914,22.4921875 L428.239746,36 Z M435.837891,23.5219727 L435.411133,25.9619141 L437.127441,25.9619141 L436.839844,27.6318359 L435.114258,27.6318359 L434.167969,33.2539062 C434.149414,33.4085294 434.146322,33.5476882 434.158691,33.6713867 C434.195801,34.073407 434.443194,34.2836913 434.900879,34.3022461 C435.129721,34.3022461 435.389484,34.2744143 435.680176,34.21875 L435.531738,35.9814453 C435.074054,36.1113288 434.613284,36.1762695 434.149414,36.1762695 C433.382483,36.1638997 432.80884,35.9025904 432.428467,35.392334 C432.048094,34.8820775 431.898112,34.2063844 431.978516,33.3652344 L432.915527,27.6318359 L431.310547,27.6318359 L431.607422,25.9619141 L433.203125,25.9619141 L433.629883,23.5219727 L435.837891,23.5219727 Z M441.682617,36.1855469 C440.810543,36.1669921 440.054447,35.9474305 439.414307,35.5268555 C438.774167,35.1062804 438.301027,34.5310909 437.994873,33.8012695 C437.688719,33.0714482 437.572754,32.2581425 437.646973,31.3613281 L437.674805,30.980957 C437.786133,29.9604441 438.084552,29.0435425 438.570068,28.2302246 C439.055585,27.4169067 439.660153,26.7999696 440.383789,26.3793945 C441.107425,25.9588195 441.892899,25.7578124 442.740234,25.7763672 C443.995775,25.8011069 444.937415,26.2680619 445.565186,27.1772461 C446.192956,28.0864303 446.429526,29.270826 446.274902,30.7304688 L446.14502,31.6953125 L439.827148,31.6953125 C439.771484,32.4931681 439.93229,33.1363908 440.30957,33.625 C440.686851,34.1136092 441.206377,34.364095 441.868164,34.3764648 C442.814458,34.4073895 443.686519,33.996098 444.484375,33.1425781 L445.597656,34.3115234 C445.177081,34.9114613 444.623539,35.3768701 443.937012,35.7077637 C443.250485,36.0386573 442.499028,36.1979167 441.682617,36.1855469 Z M442.619629,27.5761719 C441.456863,27.5390623 440.584801,28.3616452 440.003418,30.0439453 L444.168945,30.0532227 L444.206055,29.8583984 C444.249349,29.5738918 444.252442,29.2955743 444.215332,29.0234375 C444.147298,28.5843077 443.974122,28.237957 443.695801,27.984375 C443.417479,27.730793 443.058759,27.5947267 442.619629,27.5761719 Z M453.6875,28.0214844 C453.402993,27.9596351 453.115399,27.9287109 452.824707,27.9287109 C451.859858,27.9039712 451.092939,28.302893 450.523926,29.1254883 L449.317871,36 L447.119141,36 L448.854004,25.9619141 L450.941406,25.9526367 L450.71875,27.09375 C451.405277,26.1845658 452.196936,25.7392577 453.09375,25.7578125 C453.297853,25.7578125 453.579263,25.8041988 453.937988,25.8969727 L453.6875,28.0214844 Z M459.374512,36 C459.300293,35.7526029 459.269368,35.4402688 459.281738,35.0629883 C458.452958,35.8361041 457.55925,36.2102866 456.600586,36.1855469 C455.728511,36.173177 455.006432,35.8933133 454.434326,35.3459473 C453.86222,34.7985812 453.594726,34.1043336 453.631836,33.2631836 C453.681315,32.2055611 454.138993,31.3737009 455.004883,30.7675781 C455.870773,30.1614553 457.033521,29.8583984 458.493164,29.8583984 L459.921875,29.8769531 L460.051758,29.1904297 C460.088867,28.9492175 460.088867,28.7234711 460.051758,28.5131836 C459.928059,27.8452115 459.485844,27.5019532 458.725098,27.4833984 C458.255043,27.4710286 457.842206,27.5900866 457.486572,27.8405762 C457.130939,28.0910657 456.912924,28.4265929 456.83252,28.847168 L454.633789,28.8657227 C454.677084,28.24723 454.896645,27.7045108 455.29248,27.2375488 C455.688316,26.7705869 456.214027,26.4072279 456.869629,26.1474609 C457.525231,25.887694 458.217933,25.7639973 458.947754,25.7763672 C460.042486,25.8011069 460.895993,26.1304493 461.508301,26.7644043 C462.120609,27.3983593 462.374187,28.219396 462.269043,29.2275391 L461.499023,33.9311523 L461.424805,34.7661133 C461.40625,35.131024 461.452636,35.4866519 461.563965,35.8330078 L461.554688,36 L459.374512,36 Z M457.11084,34.3857422 C457.574709,34.398112 458.004555,34.2914237 458.400391,34.0656738 C458.796226,33.839924 459.133299,33.5476906 459.411621,33.1889648 L459.754883,31.2871094 L458.706543,31.277832 C457.877763,31.277832 457.215986,31.4339991 456.721191,31.7463379 C456.226397,32.0586767 455.944987,32.4869764 455.876953,33.03125 C455.827474,33.4456401 455.9187,33.7718901 456.150635,34.0100098 C456.38257,34.2481294 456.702635,34.3733723 457.11084,34.3857422 Z M468.401367,23.5219727 L467.974609,25.9619141 L469.690918,25.9619141 L469.40332,27.6318359 L467.677734,27.6318359 L466.731445,33.2539062 C466.712891,33.4085294 466.709798,33.5476882 466.722168,33.6713867 C466.759278,34.073407 467.006671,34.2836913 467.464355,34.3022461 C467.693198,34.3022461 467.952961,34.2744143 468.243652,34.21875 L468.095215,35.9814453 C467.63753,36.1113288 467.17676,36.1762695 466.712891,36.1762695 C465.94596,36.1638997 465.372316,35.9025904 464.991943,35.392334 C464.61157,34.8820775 464.461588,34.2063844 464.541992,33.3652344 L465.479004,27.6318359 L463.874023,27.6318359 L464.170898,25.9619141 L465.766602,25.9619141 L466.193359,23.5219727 L468.401367,23.5219727 Z M474.246094,36.1855469 C473.374019,36.1669921 472.617923,35.9474305 471.977783,35.5268555 C471.337643,35.1062804 470.864503,34.5310909 470.55835,33.8012695 C470.252196,33.0714482 470.13623,32.2581425 470.210449,31.3613281 L470.238281,30.980957 C470.34961,29.9604441 470.648028,29.0435425 471.133545,28.2302246 C471.619062,27.4169067 472.223629,26.7999696 472.947266,26.3793945 C473.670902,25.9588195 474.456376,25.7578124 475.303711,25.7763672 C476.559251,25.8011069 477.500892,26.2680619 478.128662,27.1772461 C478.756432,28.0864303 478.993002,29.270826 478.838379,30.7304688 L478.708496,31.6953125 L472.390625,31.6953125 C472.334961,32.4931681 472.495766,33.1363908 472.873047,33.625 C473.250327,34.1136092 473.769853,34.364095 474.431641,34.3764648 C475.377934,34.4073895 476.249996,33.996098 477.047852,33.1425781 L478.161133,34.3115234 C477.740558,34.9114613 477.187015,35.3768701 476.500488,35.7077637 C475.813961,36.0386573 475.062504,36.1979167 474.246094,36.1855469 Z M475.183105,27.5761719 C474.020339,27.5390623 473.148278,28.3616452 472.566895,30.0439453 L476.732422,30.0532227 L476.769531,29.8583984 C476.812826,29.5738918 476.815918,29.2955743 476.778809,29.0234375 C476.710774,28.5843077 476.537599,28.237957 476.259277,27.984375 C475.980956,27.730793 475.622235,27.5947267 475.183105,27.5761719 Z" id="Iterate" fill="#3D3D3D"></path>
        <path d="M4.15862702,242.219095 L226.27417,409.309783 L448.389713,242.219095 L226.27417,75.1284071 L4.15862702,242.219095 Z" id="Rectangle" stroke="#DA1710" stroke-width="5" fill-rule="nonzero"></path>
        <path d="M457.166565,242.712079 L679.27417,409.299114 L901.381775,242.712079 L679.27417,76.1250428 L457.166565,242.712079 Z" id="Rectangle-Copy" stroke="#DA1710" stroke-width="5" fill-rule="nonzero"></path>
        <use id="Oval" stroke="#C3C3C3" mask="url(#mask-2)" stroke-width="4" stroke-dasharray="9" fill-rule="nonzero" xlink:href="#path-1"></use>
        <polygon id="Triangle" fill="#C3C3C3" fill-rule="nonzero" transform="translate(346.322314, 12.665126) rotate(-106.000000) translate(-346.322314, -12.665126) " points="346.322314 7.66512611 351.822314 17.6651261 340.822314 17.6651261"></polygon>
        <polygon id="Triangle" fill="#C3C3C3" fill-rule="nonzero" transform="translate(569.253134, 45.606687) rotate(75.000000) translate(-569.253134, -45.606687) " points="569.253134 40.6066873 574.753134 50.6066873 563.753134 50.6066873"></polygon>
    </g>
</svg>