<svg width="1164" height="572" viewBox="0 0 1164 572" fill="none" xmlns="http://www.w3.org/2000/svg">
<path d="M397.148 284.806H390.398V291.779H386.882V274.716H397.992V277.564H390.398V281.97H397.148V284.806ZM406.474 282.275C406.013 282.213 405.607 282.181 405.256 282.181C403.974 282.181 403.134 282.615 402.736 283.482V291.779H399.349V279.099H402.549L402.642 280.611C403.322 279.447 404.263 278.865 405.466 278.865C405.841 278.865 406.193 278.916 406.521 279.017L406.474 282.275ZM414.957 291.779C414.801 291.474 414.688 291.095 414.617 290.642C413.797 291.556 412.73 292.013 411.418 292.013C410.176 292.013 409.145 291.654 408.324 290.935C407.512 290.216 407.105 289.31 407.105 288.216C407.105 286.873 407.602 285.841 408.594 285.123C409.594 284.404 411.035 284.041 412.918 284.033H414.477V283.306C414.477 282.72 414.324 282.252 414.02 281.9C413.723 281.549 413.25 281.373 412.602 281.373C412.031 281.373 411.582 281.509 411.254 281.783C410.934 282.056 410.773 282.431 410.773 282.908H407.387C407.387 282.174 407.613 281.494 408.066 280.869C408.52 280.244 409.16 279.756 409.988 279.404C410.816 279.045 411.746 278.865 412.777 278.865C414.34 278.865 415.578 279.259 416.492 280.049C417.414 280.83 417.875 281.931 417.875 283.353V288.849C417.883 290.052 418.051 290.963 418.379 291.58V291.779H414.957ZM412.156 289.424C412.656 289.424 413.117 289.314 413.539 289.095C413.961 288.869 414.273 288.568 414.477 288.193V286.013H413.211C411.516 286.013 410.613 286.599 410.504 287.771L410.492 287.97C410.492 288.392 410.641 288.74 410.938 289.013C411.234 289.287 411.641 289.424 412.156 289.424ZM423.498 279.099L423.604 280.517C424.502 279.416 425.717 278.865 427.248 278.865C428.881 278.865 430.002 279.509 430.612 280.799C431.502 279.509 432.772 278.865 434.42 278.865C435.795 278.865 436.819 279.267 437.491 280.072C438.162 280.869 438.498 282.072 438.498 283.681V291.779H435.1V283.693C435.1 282.974 434.959 282.451 434.678 282.123C434.397 281.787 433.901 281.619 433.19 281.619C432.174 281.619 431.471 282.103 431.08 283.072L431.092 291.779H427.705V283.705C427.705 282.97 427.561 282.439 427.272 282.111C426.983 281.783 426.491 281.619 425.795 281.619C424.834 281.619 424.139 282.017 423.709 282.814V291.779H420.323V279.099H423.498ZM446.794 292.013C444.934 292.013 443.419 291.443 442.247 290.302C441.083 289.162 440.501 287.642 440.501 285.744V285.416C440.501 284.142 440.747 283.006 441.239 282.006C441.731 280.998 442.426 280.224 443.325 279.685C444.231 279.138 445.262 278.865 446.419 278.865C448.153 278.865 449.516 279.412 450.508 280.506C451.508 281.599 452.008 283.15 452.008 285.158V286.541H443.934C444.044 287.369 444.372 288.033 444.919 288.533C445.473 289.033 446.172 289.283 447.016 289.283C448.321 289.283 449.34 288.81 450.075 287.865L451.739 289.728C451.231 290.447 450.544 291.009 449.676 291.416C448.809 291.814 447.848 292.013 446.794 292.013ZM446.407 281.607C445.735 281.607 445.188 281.834 444.766 282.287C444.352 282.74 444.087 283.388 443.969 284.232H448.68V283.963C448.665 283.213 448.462 282.634 448.071 282.228C447.68 281.814 447.126 281.607 446.407 281.607Z" fill="#474747"/>
<path d="M123.906 287.302C123.906 286.638 123.672 286.131 123.203 285.779C122.734 285.42 121.891 285.045 120.672 284.654C119.453 284.256 118.488 283.865 117.777 283.482C115.84 282.435 114.871 281.025 114.871 279.252C114.871 278.33 115.129 277.509 115.644 276.791C116.168 276.064 116.914 275.498 117.883 275.091C118.859 274.685 119.953 274.482 121.164 274.482C122.383 274.482 123.469 274.705 124.422 275.15C125.375 275.588 126.113 276.209 126.637 277.013C127.168 277.818 127.434 278.732 127.434 279.756H123.918C123.918 278.974 123.672 278.369 123.18 277.939C122.687 277.502 121.996 277.283 121.105 277.283C120.246 277.283 119.578 277.466 119.102 277.834C118.625 278.193 118.387 278.67 118.387 279.263C118.387 279.818 118.664 280.283 119.219 280.658C119.781 281.033 120.605 281.384 121.691 281.713C123.691 282.314 125.148 283.06 126.062 283.951C126.977 284.841 127.434 285.951 127.434 287.279C127.434 288.756 126.875 289.916 125.758 290.759C124.641 291.595 123.137 292.013 121.246 292.013C119.934 292.013 118.738 291.775 117.66 291.299C116.582 290.814 115.758 290.154 115.187 289.318C114.625 288.482 114.344 287.513 114.344 286.412H117.871C117.871 288.295 118.996 289.236 121.246 289.236C122.082 289.236 122.734 289.068 123.203 288.732C123.672 288.388 123.906 287.912 123.906 287.302ZM133.502 275.982V279.099H135.67V281.584H133.502V287.912C133.502 288.381 133.592 288.716 133.772 288.92C133.951 289.123 134.295 289.224 134.803 289.224C135.178 289.224 135.51 289.197 135.799 289.142V291.709C135.135 291.912 134.451 292.013 133.748 292.013C131.373 292.013 130.162 290.814 130.115 288.416V281.584H128.264V279.099H130.115V275.982H133.502ZM144.528 282.275C144.067 282.213 143.661 282.181 143.309 282.181C142.028 282.181 141.188 282.615 140.79 283.482V291.779H137.403V279.099H140.602L140.696 280.611C141.376 279.447 142.317 278.865 143.52 278.865C143.895 278.865 144.247 278.916 144.575 279.017L144.528 282.275ZM153.011 291.779C152.854 291.474 152.741 291.095 152.671 290.642C151.85 291.556 150.784 292.013 149.472 292.013C148.229 292.013 147.198 291.654 146.378 290.935C145.565 290.216 145.159 289.31 145.159 288.216C145.159 286.873 145.655 285.841 146.647 285.123C147.647 284.404 149.089 284.041 150.972 284.033H152.53V283.306C152.53 282.72 152.378 282.252 152.073 281.9C151.776 281.549 151.304 281.373 150.655 281.373C150.085 281.373 149.636 281.509 149.307 281.783C148.987 282.056 148.827 282.431 148.827 282.908H145.44C145.44 282.174 145.667 281.494 146.12 280.869C146.573 280.244 147.214 279.756 148.042 279.404C148.87 279.045 149.8 278.865 150.831 278.865C152.393 278.865 153.632 279.259 154.546 280.049C155.468 280.83 155.929 281.931 155.929 283.353V288.849C155.936 290.052 156.104 290.963 156.432 291.58V291.779H153.011ZM150.21 289.424C150.71 289.424 151.171 289.314 151.593 289.095C152.015 288.869 152.327 288.568 152.53 288.193V286.013H151.265C149.569 286.013 148.667 286.599 148.557 287.771L148.546 287.97C148.546 288.392 148.694 288.74 148.991 289.013C149.288 289.287 149.694 289.424 150.21 289.424ZM162.431 275.982V279.099H164.599V281.584H162.431V287.912C162.431 288.381 162.521 288.716 162.7 288.92C162.88 289.123 163.224 289.224 163.732 289.224C164.107 289.224 164.439 289.197 164.728 289.142V291.709C164.064 291.912 163.38 292.013 162.677 292.013C160.302 292.013 159.091 290.814 159.044 288.416V281.584H157.193V279.099H159.044V275.982H162.431ZM172.167 292.013C170.308 292.013 168.792 291.443 167.621 290.302C166.456 289.162 165.874 287.642 165.874 285.744V285.416C165.874 284.142 166.121 283.006 166.613 282.006C167.105 280.998 167.8 280.224 168.699 279.685C169.605 279.138 170.636 278.865 171.792 278.865C173.527 278.865 174.89 279.412 175.882 280.506C176.882 281.599 177.382 283.15 177.382 285.158V286.541H169.308C169.417 287.369 169.746 288.033 170.292 288.533C170.847 289.033 171.546 289.283 172.39 289.283C173.695 289.283 174.714 288.81 175.449 287.865L177.113 289.728C176.605 290.447 175.917 291.009 175.05 291.416C174.183 291.814 173.222 292.013 172.167 292.013ZM171.781 281.607C171.109 281.607 170.562 281.834 170.14 282.287C169.726 282.74 169.46 283.388 169.343 284.232H174.054V283.963C174.039 283.213 173.835 282.634 173.445 282.228C173.054 281.814 172.499 281.607 171.781 281.607ZM178.67 285.345C178.67 283.4 179.131 281.834 180.052 280.646C180.982 279.459 182.232 278.865 183.802 278.865C185.193 278.865 186.275 279.341 187.049 280.295L187.189 279.099H190.26V291.357C190.26 292.466 190.006 293.431 189.498 294.252C188.998 295.072 188.291 295.697 187.377 296.127C186.463 296.556 185.392 296.771 184.166 296.771C183.236 296.771 182.33 296.584 181.447 296.209C180.564 295.841 179.896 295.365 179.443 294.779L180.943 292.716C181.787 293.662 182.81 294.134 184.013 294.134C184.912 294.134 185.611 293.892 186.111 293.408C186.611 292.931 186.861 292.252 186.861 291.369V290.689C186.08 291.572 185.052 292.013 183.779 292.013C182.256 292.013 181.021 291.42 180.076 290.232C179.138 289.037 178.67 287.455 178.67 285.486V285.345ZM182.056 285.591C182.056 286.74 182.287 287.642 182.748 288.299C183.209 288.947 183.842 289.271 184.646 289.271C185.677 289.271 186.416 288.884 186.861 288.111V282.779C186.408 282.006 185.677 281.619 184.67 281.619C183.857 281.619 183.217 281.951 182.748 282.615C182.287 283.279 182.056 284.271 182.056 285.591ZM197.453 286.986L199.797 279.099H203.43L198.332 293.748L198.051 294.416C197.293 296.072 196.043 296.9 194.301 296.9C193.809 296.9 193.309 296.826 192.801 296.677V294.111L193.316 294.123C193.957 294.123 194.434 294.025 194.746 293.83C195.066 293.634 195.316 293.31 195.496 292.857L195.895 291.814L191.453 279.099H195.098L197.453 286.986Z" fill="#474747"/>
<path d="M261.515 182.847V165.785H266.765C268.265 165.785 269.605 166.125 270.785 166.804C271.972 167.476 272.898 168.437 273.562 169.687C274.226 170.929 274.558 172.344 274.558 173.929V174.715C274.558 176.301 274.23 177.711 273.574 178.945C272.925 180.179 272.007 181.136 270.82 181.816C269.632 182.496 268.292 182.84 266.8 182.847H261.515ZM265.031 168.633V180.023H266.73C268.105 180.023 269.156 179.574 269.882 178.676C270.609 177.777 270.98 176.492 270.995 174.82V173.918C270.995 172.183 270.636 170.871 269.917 169.98C269.199 169.082 268.148 168.633 266.765 168.633H265.031ZM282.584 183.082C280.724 183.082 279.209 182.511 278.037 181.371C276.873 180.23 276.291 178.711 276.291 176.812V176.484C276.291 175.211 276.537 174.074 277.029 173.074C277.521 172.066 278.216 171.293 279.115 170.754C280.021 170.207 281.052 169.933 282.209 169.933C283.943 169.933 285.306 170.48 286.299 171.574C287.299 172.668 287.799 174.219 287.799 176.226V177.609H279.724C279.834 178.437 280.162 179.101 280.709 179.601C281.263 180.101 281.963 180.351 282.806 180.351C284.111 180.351 285.131 179.879 285.865 178.933L287.529 180.797C287.021 181.515 286.334 182.078 285.466 182.484C284.599 182.883 283.638 183.082 282.584 183.082ZM282.197 172.676C281.525 172.676 280.978 172.902 280.556 173.355C280.142 173.808 279.877 174.457 279.759 175.301H284.47V175.031C284.455 174.281 284.252 173.703 283.861 173.297C283.47 172.883 282.916 172.676 282.197 172.676ZM290.398 182.847V172.652H288.512V170.168H290.398V169.582C290.414 167.988 290.902 166.761 291.863 165.902C292.832 165.035 294.195 164.601 295.953 164.601C297.008 164.601 298.289 164.832 299.797 165.293L299.305 168.094C298.539 167.867 297.945 167.722 297.523 167.66C297.102 167.59 296.648 167.554 296.164 167.554C294.586 167.554 293.797 168.254 293.797 169.652V170.168H296.293V172.652H293.797V182.847H290.398ZM301.379 182.847H297.98V170.168H301.379V182.847ZM307.143 170.168L307.248 171.633C308.155 170.5 309.369 169.933 310.893 169.933C312.237 169.933 313.237 170.328 313.893 171.117C314.549 171.906 314.885 173.086 314.901 174.656V182.847H311.514V174.738C311.514 174.019 311.358 173.5 311.045 173.179C310.733 172.851 310.213 172.687 309.487 172.687C308.533 172.687 307.819 173.094 307.342 173.906V182.847H303.955V170.168H307.143ZM323.161 183.082C321.301 183.082 319.786 182.511 318.614 181.371C317.45 180.23 316.868 178.711 316.868 176.812V176.484C316.868 175.211 317.114 174.074 317.606 173.074C318.098 172.066 318.794 171.293 319.692 170.754C320.598 170.207 321.63 169.933 322.786 169.933C324.52 169.933 325.883 170.48 326.876 171.574C327.876 172.668 328.376 174.219 328.376 176.226V177.609H320.301C320.411 178.437 320.739 179.101 321.286 179.601C321.84 180.101 322.54 180.351 323.383 180.351C324.688 180.351 325.708 179.879 326.442 178.933L328.106 180.797C327.598 181.515 326.911 182.078 326.044 182.484C325.176 182.883 324.215 183.082 323.161 183.082ZM322.774 172.676C322.102 172.676 321.555 172.902 321.133 173.355C320.719 173.808 320.454 174.457 320.337 175.301H325.047V175.031C325.032 174.281 324.829 173.703 324.438 173.297C324.047 172.883 323.493 172.676 322.774 172.676Z" fill="#474747"/>
<path d="M248.582 416.7V399.638H253.832C255.332 399.638 256.672 399.978 257.852 400.657C259.039 401.329 259.965 402.29 260.629 403.54C261.293 404.782 261.625 406.197 261.625 407.782V408.568C261.625 410.154 261.297 411.564 260.641 412.798C259.992 414.032 259.074 414.99 257.887 415.669C256.699 416.349 255.359 416.693 253.867 416.7H248.582ZM252.098 402.486V413.876H253.797C255.172 413.876 256.223 413.427 256.949 412.529C257.676 411.63 258.047 410.345 258.062 408.673V407.771C258.062 406.036 257.703 404.724 256.984 403.833C256.266 402.935 255.215 402.486 253.832 402.486H252.098ZM267.389 416.7H263.99V404.021H267.389V416.7ZM263.791 400.74C263.791 400.232 263.959 399.814 264.295 399.486C264.639 399.157 265.104 398.993 265.69 398.993C266.268 398.993 266.729 399.157 267.073 399.486C267.416 399.814 267.588 400.232 267.588 400.74C267.588 401.255 267.412 401.677 267.061 402.005C266.717 402.333 266.26 402.497 265.69 402.497C265.119 402.497 264.658 402.333 264.307 402.005C263.963 401.677 263.791 401.255 263.791 400.74ZM276.903 413.197C276.903 412.782 276.696 412.458 276.282 412.224C275.876 411.982 275.219 411.767 274.313 411.579C271.297 410.947 269.79 409.665 269.79 407.736C269.79 406.611 270.254 405.673 271.184 404.923C272.122 404.165 273.344 403.786 274.852 403.786C276.461 403.786 277.747 404.165 278.708 404.923C279.676 405.681 280.161 406.665 280.161 407.876H276.774C276.774 407.392 276.618 406.993 276.305 406.681C275.993 406.361 275.504 406.2 274.84 406.2C274.27 406.2 273.829 406.329 273.516 406.587C273.204 406.845 273.047 407.173 273.047 407.572C273.047 407.947 273.223 408.251 273.575 408.486C273.934 408.712 274.536 408.911 275.379 409.083C276.223 409.247 276.934 409.435 277.512 409.646C279.301 410.302 280.196 411.439 280.196 413.056C280.196 414.212 279.7 415.15 278.708 415.868C277.715 416.579 276.434 416.935 274.864 416.935C273.801 416.935 272.856 416.747 272.028 416.372C271.208 415.99 270.563 415.47 270.094 414.814C269.626 414.15 269.391 413.435 269.391 412.669H272.602C272.633 413.271 272.856 413.732 273.27 414.052C273.684 414.372 274.239 414.532 274.934 414.532C275.583 414.532 276.071 414.411 276.399 414.169C276.735 413.919 276.903 413.595 276.903 413.197ZM287.507 414.204C288.132 414.204 288.639 414.032 289.03 413.689C289.421 413.345 289.624 412.888 289.639 412.318H292.815C292.807 413.177 292.573 413.966 292.112 414.685C291.651 415.396 291.018 415.95 290.214 416.349C289.417 416.74 288.534 416.935 287.565 416.935C285.753 416.935 284.323 416.361 283.276 415.212C282.229 414.056 281.706 412.462 281.706 410.431V410.208C281.706 408.255 282.225 406.697 283.264 405.532C284.304 404.368 285.729 403.786 287.542 403.786C289.128 403.786 290.397 404.24 291.35 405.146C292.311 406.044 292.8 407.243 292.815 408.743H289.639C289.624 408.087 289.421 407.556 289.03 407.15C288.639 406.736 288.124 406.529 287.483 406.529C286.694 406.529 286.097 406.818 285.69 407.396C285.292 407.966 285.093 408.896 285.093 410.185V410.536C285.093 411.841 285.292 412.779 285.69 413.349C286.089 413.919 286.694 414.204 287.507 414.204ZM294.068 410.243C294.068 408.986 294.31 407.865 294.794 406.88C295.278 405.896 295.974 405.134 296.88 404.595C297.794 404.056 298.853 403.786 300.056 403.786C301.767 403.786 303.161 404.31 304.239 405.357C305.325 406.404 305.931 407.825 306.056 409.622L306.079 410.49C306.079 412.435 305.536 413.997 304.45 415.177C303.364 416.349 301.907 416.935 300.079 416.935C298.251 416.935 296.79 416.349 295.696 415.177C294.611 414.005 294.068 412.411 294.068 410.396V410.243ZM297.454 410.49C297.454 411.693 297.681 412.615 298.134 413.255C298.587 413.888 299.236 414.204 300.079 414.204C300.9 414.204 301.54 413.892 302.001 413.267C302.462 412.634 302.693 411.626 302.693 410.243C302.693 409.064 302.462 408.15 302.001 407.501C301.54 406.853 300.892 406.529 300.056 406.529C299.228 406.529 298.587 406.853 298.134 407.501C297.681 408.142 297.454 409.138 297.454 410.49ZM312.57 412.564L314.925 404.021H318.464L314.187 416.7H310.953L306.675 404.021H310.214L312.57 412.564ZM325.482 416.935C323.623 416.935 322.107 416.365 320.935 415.224C319.771 414.083 319.189 412.564 319.189 410.665V410.337C319.189 409.064 319.435 407.927 319.927 406.927C320.42 405.919 321.115 405.146 322.013 404.607C322.92 404.06 323.951 403.786 325.107 403.786C326.842 403.786 328.205 404.333 329.197 405.427C330.197 406.521 330.697 408.072 330.697 410.079V411.462H322.623C322.732 412.29 323.06 412.954 323.607 413.454C324.162 413.954 324.861 414.204 325.705 414.204C327.01 414.204 328.029 413.732 328.763 412.786L330.427 414.65C329.92 415.368 329.232 415.931 328.365 416.337C327.498 416.736 326.537 416.935 325.482 416.935ZM325.095 406.529C324.424 406.529 323.877 406.755 323.455 407.208C323.041 407.661 322.775 408.31 322.658 409.154H327.369V408.884C327.353 408.134 327.15 407.556 326.76 407.15C326.369 406.736 325.814 406.529 325.095 406.529ZM339.602 407.197C339.141 407.134 338.734 407.103 338.383 407.103C337.102 407.103 336.262 407.536 335.863 408.404V416.7H332.477V404.021H335.676L335.77 405.532C336.449 404.368 337.391 403.786 338.594 403.786C338.969 403.786 339.32 403.837 339.648 403.939L339.602 407.197Z" fill="#474747"/>
<line y1="-2" x2="393.848" y2="-2" transform="matrix(0.72363 0.690188 -0.690642 0.723196 148 149.848)" stroke="#ECB2B2" stroke-opacity="0.3" stroke-width="4" stroke-dasharray="6 6"/>
<line y1="-2" x2="393.848" y2="-2" transform="matrix(0.72363 0.690188 -0.690642 0.723196 148 149.848)" stroke="#ECB2B2" stroke-opacity="0.3" stroke-width="4" stroke-dasharray="6 6"/>
<line y1="-2" x2="387.093" y2="-2" transform="matrix(-0.772424 0.635107 -0.635583 -0.772032 433 161.84)" stroke="#ECB2B2" stroke-opacity="0.3" stroke-width="4" stroke-dasharray="6 6"/>
<line y1="-2" x2="387.093" y2="-2" transform="matrix(-0.772424 0.635107 -0.635583 -0.772032 433 161.84)" stroke="#ECB2B2" stroke-opacity="0.3" stroke-width="4" stroke-dasharray="6 6"/>
<path d="M523.607 484.658H519.506V464.752H523.607V484.658ZM531.738 466.229V469.865H534.268V472.764H531.738V480.147C531.738 480.693 531.843 481.085 532.053 481.322C532.262 481.559 532.663 481.678 533.256 481.678C533.693 481.678 534.081 481.646 534.418 481.582V484.576C533.643 484.813 532.846 484.932 532.025 484.932C529.254 484.932 527.842 483.533 527.787 480.734V472.764H525.627V469.865H527.787V466.229H531.738ZM543.123 484.932C540.954 484.932 539.186 484.266 537.819 482.936C536.461 481.605 535.781 479.832 535.781 477.617V477.234C535.781 475.749 536.069 474.423 536.643 473.256C537.217 472.08 538.028 471.178 539.076 470.549C540.134 469.911 541.337 469.592 542.686 469.592C544.709 469.592 546.3 470.23 547.457 471.506C548.624 472.782 549.207 474.591 549.207 476.934V478.547H539.787C539.915 479.513 540.298 480.288 540.936 480.871C541.583 481.455 542.399 481.746 543.383 481.746C544.905 481.746 546.095 481.195 546.951 480.092L548.893 482.266C548.3 483.104 547.498 483.761 546.487 484.234C545.475 484.699 544.354 484.932 543.123 484.932ZM542.672 472.791C541.888 472.791 541.25 473.055 540.758 473.584C540.275 474.113 539.965 474.869 539.828 475.854H545.324V475.539C545.306 474.664 545.069 473.99 544.614 473.516C544.158 473.033 543.511 472.791 542.672 472.791ZM559.622 473.57C559.084 473.498 558.61 473.461 558.2 473.461C556.705 473.461 555.725 473.967 555.26 474.979V484.658H551.309V469.865H555.042L555.151 471.629C555.944 470.271 557.042 469.592 558.446 469.592C558.883 469.592 559.293 469.651 559.676 469.77L559.622 473.57ZM569.544 484.658C569.362 484.303 569.229 483.861 569.147 483.332C568.19 484.399 566.946 484.932 565.415 484.932C563.966 484.932 562.763 484.512 561.806 483.674C560.858 482.835 560.384 481.778 560.384 480.502C560.384 478.934 560.962 477.731 562.12 476.893C563.287 476.054 564.968 475.63 567.165 475.621H568.983V474.774C568.983 474.09 568.806 473.543 568.45 473.133C568.104 472.723 567.552 472.518 566.796 472.518C566.13 472.518 565.606 472.677 565.223 472.996C564.85 473.315 564.663 473.753 564.663 474.309H560.712C560.712 473.452 560.976 472.659 561.505 471.93C562.033 471.201 562.781 470.631 563.747 470.221C564.713 469.802 565.798 469.592 567.001 469.592C568.824 469.592 570.268 470.052 571.335 470.973C572.41 471.884 572.948 473.169 572.948 474.828V481.24C572.957 482.644 573.153 483.706 573.536 484.426V484.658H569.544ZM566.276 481.91C566.86 481.91 567.397 481.783 567.889 481.527C568.382 481.263 568.746 480.912 568.983 480.475V477.932H567.507C565.529 477.932 564.476 478.615 564.348 479.983L564.335 480.215C564.335 480.707 564.508 481.113 564.854 481.432C565.201 481.751 565.675 481.91 566.276 481.91ZM580.56 466.229V469.865H583.089V472.764H580.56V480.147C580.56 480.693 580.665 481.085 580.874 481.322C581.084 481.559 581.485 481.678 582.077 481.678C582.515 481.678 582.902 481.646 583.239 481.582V484.576C582.465 484.813 581.667 484.932 580.847 484.932C578.076 484.932 576.663 483.533 576.609 480.734V472.764H574.448V469.865H576.609V466.229H580.56ZM589.306 484.658H585.341V469.865H589.306V484.658ZM585.109 466.037C585.109 465.445 585.305 464.957 585.697 464.574C586.098 464.192 586.64 464 587.324 464C587.998 464 588.536 464.192 588.937 464.574C589.338 464.957 589.539 465.445 589.539 466.037C589.539 466.639 589.333 467.131 588.923 467.514C588.522 467.897 587.989 468.088 587.324 468.088C586.658 468.088 586.121 467.897 585.71 467.514C585.309 467.131 585.109 466.639 585.109 466.037ZM591.804 477.125C591.804 475.658 592.087 474.35 592.652 473.201C593.217 472.053 594.028 471.164 595.086 470.535C596.152 469.906 597.387 469.592 598.791 469.592C600.787 469.592 602.414 470.203 603.672 471.424C604.939 472.645 605.645 474.304 605.791 476.401L605.818 477.412C605.818 479.682 605.185 481.505 603.918 482.881C602.651 484.248 600.951 484.932 598.818 484.932C596.685 484.932 594.981 484.248 593.705 482.881C592.438 481.514 591.804 479.654 591.804 477.303V477.125ZM595.756 477.412C595.756 478.816 596.02 479.891 596.549 480.639C597.077 481.377 597.834 481.746 598.818 481.746C599.775 481.746 600.523 481.382 601.06 480.652C601.598 479.914 601.867 478.738 601.867 477.125C601.867 475.749 601.598 474.682 601.06 473.926C600.523 473.169 599.766 472.791 598.791 472.791C597.825 472.791 597.077 473.169 596.549 473.926C596.02 474.673 595.756 475.835 595.756 477.412ZM611.734 469.865L611.857 471.574C612.915 470.253 614.332 469.592 616.109 469.592C617.677 469.592 618.844 470.052 619.609 470.973C620.375 471.893 620.767 473.27 620.785 475.102V484.658H616.834V475.197C616.834 474.359 616.652 473.753 616.287 473.379C615.923 472.996 615.316 472.805 614.469 472.805C613.357 472.805 612.523 473.279 611.967 474.227V484.658H608.016V469.865H611.734ZM631.651 480.57C631.651 480.087 631.409 479.709 630.926 479.436C630.452 479.153 629.687 478.902 628.629 478.684C625.111 477.945 623.352 476.451 623.352 474.199C623.352 472.887 623.894 471.793 624.979 470.918C626.073 470.034 627.499 469.592 629.258 469.592C631.136 469.592 632.635 470.034 633.756 470.918C634.886 471.802 635.452 472.951 635.452 474.363H631.5C631.5 473.798 631.318 473.333 630.953 472.969C630.589 472.595 630.019 472.408 629.244 472.408C628.579 472.408 628.064 472.559 627.7 472.859C627.335 473.16 627.153 473.543 627.153 474.008C627.153 474.445 627.358 474.801 627.768 475.074C628.187 475.339 628.889 475.571 629.873 475.772C630.858 475.963 631.687 476.182 632.362 476.428C634.449 477.193 635.493 478.52 635.493 480.406C635.493 481.755 634.914 482.849 633.756 483.688C632.599 484.517 631.104 484.932 629.272 484.932C628.032 484.932 626.929 484.713 625.963 484.276C625.006 483.829 624.254 483.223 623.707 482.457C623.161 481.682 622.887 480.848 622.887 479.955H626.633C626.67 480.657 626.929 481.195 627.412 481.568C627.896 481.942 628.543 482.129 629.354 482.129C630.11 482.129 630.68 481.988 631.063 481.705C631.455 481.414 631.651 481.035 631.651 480.57Z" fill="#3A3A3A"/>
<path d="M19.25 12.1917V27.176C19.25 29.6656 18.4688 31.6344 16.9062 33.0823C15.3542 34.5302 13.2292 35.2542 10.5312 35.2542C7.875 35.2542 5.76562 34.551 4.20312 33.1448C2.64062 31.7385 1.84375 29.8062 1.8125 27.3479V12.1917H6.5V27.2073C6.5 28.6969 6.85417 29.7854 7.5625 30.4729C8.28125 31.15 9.27083 31.4885 10.5312 31.4885C13.1667 31.4885 14.5052 30.1031 14.5469 27.3323V12.1917H19.25ZM26.7991 18.0354L26.9398 19.9885C28.1481 18.4781 29.7679 17.7229 31.7991 17.7229C33.5908 17.7229 34.9241 18.2489 35.7991 19.301C36.6741 20.3531 37.122 21.926 37.1429 24.0198V34.9417H32.6273V24.1292C32.6273 23.1708 32.4189 22.4781 32.0023 22.051C31.5856 21.6135 30.8929 21.3948 29.9241 21.3948C28.6533 21.3948 27.7002 21.9364 27.0648 23.0198V34.9417H22.5491V18.0354H26.7991ZM39.7233 26.3635C39.7233 23.7281 40.3118 21.6292 41.4889 20.0667C42.6764 18.5042 44.2962 17.7229 46.3483 17.7229C47.9941 17.7229 49.3535 18.3375 50.4264 19.5667V10.9417H54.9576V34.9417H50.8795L50.6608 33.1448C49.5358 34.551 48.0878 35.2542 46.317 35.2542C44.3274 35.2542 42.7285 34.4729 41.5201 32.9104C40.3222 31.3375 39.7233 29.1552 39.7233 26.3635ZM44.2389 26.6917C44.2389 28.275 44.5149 29.4885 45.067 30.3323C45.6191 31.176 46.4212 31.5979 47.4733 31.5979C48.8691 31.5979 49.8535 31.0094 50.4264 29.8323V23.1604C49.8639 21.9833 48.8899 21.3948 47.5045 21.3948C45.3274 21.3948 44.2389 23.1604 44.2389 26.6917ZM66.0849 35.2542C63.6057 35.2542 61.5849 34.4937 60.0224 32.9729C58.4703 31.4521 57.6942 29.426 57.6942 26.8948V26.4573C57.6942 24.7594 58.0224 23.2437 58.6786 21.9104C59.3349 20.5667 60.262 19.5354 61.4599 18.8167C62.6682 18.0875 64.0432 17.7229 65.5849 17.7229C67.8974 17.7229 69.7151 18.4521 71.038 19.9104C72.3713 21.3687 73.038 23.4364 73.038 26.1135V27.9573H62.2724C62.4182 29.0614 62.8557 29.9469 63.5849 30.6135C64.3245 31.2802 65.2567 31.6135 66.3817 31.6135C68.1213 31.6135 69.4807 30.9833 70.4599 29.7229L72.6786 32.2073C72.0015 33.1656 71.0849 33.9156 69.9286 34.4573C68.7724 34.9885 67.4911 35.2542 66.0849 35.2542ZM65.5692 21.3792C64.6734 21.3792 63.9442 21.6812 63.3817 22.2854C62.8297 22.8896 62.4755 23.7542 62.3192 24.8792H68.6005V24.5198C68.5797 23.5198 68.3088 22.7489 67.788 22.2073C67.2672 21.6552 66.5276 21.3792 65.5692 21.3792ZM84.9621 22.2698C84.3475 22.1864 83.8059 22.1448 83.3371 22.1448C81.6288 22.1448 80.509 22.7229 79.9778 23.8792V34.9417H75.4621V18.0354H79.7278L79.8528 20.051C80.759 18.4989 82.0142 17.7229 83.6184 17.7229C84.1184 17.7229 84.5871 17.7906 85.0246 17.926L84.9621 22.2698ZM96.1519 30.2698C96.1519 29.7177 95.8758 29.2854 95.3238 28.9729C94.7821 28.65 93.9071 28.3635 92.6988 28.1135C88.6779 27.2698 86.6675 25.5614 86.6675 22.9885C86.6675 21.4885 87.2873 20.2385 88.5269 19.2385C89.7769 18.2281 91.4071 17.7229 93.4175 17.7229C95.5633 17.7229 97.2769 18.2281 98.5581 19.2385C99.8498 20.2489 100.496 21.5614 100.496 23.176H95.98C95.98 22.5302 95.7717 21.9989 95.355 21.5823C94.9383 21.1552 94.2873 20.9417 93.4019 20.9417C92.6415 20.9417 92.0529 21.1135 91.6363 21.4573C91.2196 21.801 91.0113 22.2385 91.0113 22.7698C91.0113 23.2698 91.2456 23.676 91.7144 23.9885C92.1935 24.2906 92.9956 24.5562 94.1206 24.7854C95.2456 25.0042 96.1935 25.2542 96.9644 25.5354C99.3498 26.4104 100.543 27.926 100.543 30.0823C100.543 31.6239 99.881 32.8739 98.5581 33.8323C97.2352 34.7802 95.5269 35.2542 93.4331 35.2542C92.0165 35.2542 90.756 35.0042 89.6519 34.5042C88.5581 33.9937 87.6988 33.301 87.0738 32.426C86.4488 31.5406 86.1363 30.5875 86.1363 29.5667H90.4175C90.4592 30.3687 90.756 30.9833 91.3081 31.4104C91.8602 31.8375 92.5998 32.051 93.5269 32.051C94.3915 32.051 95.0425 31.8896 95.48 31.5667C95.9279 31.2333 96.1519 30.801 96.1519 30.2698ZM108.717 13.8792V18.0354H111.607V21.3479H108.717V29.7854C108.717 30.4104 108.836 30.8583 109.076 31.1292C109.316 31.4 109.774 31.5354 110.451 31.5354C110.951 31.5354 111.394 31.4989 111.779 31.426V34.8479C110.894 35.1187 109.982 35.2542 109.045 35.2542C105.878 35.2542 104.263 33.6552 104.201 30.4573V21.3479H101.732V18.0354H104.201V13.8792H108.717ZM123.766 34.9417C123.557 34.5354 123.406 34.0302 123.313 33.426C122.219 34.6448 120.797 35.2542 119.047 35.2542C117.391 35.2542 116.016 34.775 114.922 33.8167C113.839 32.8583 113.297 31.65 113.297 30.1917C113.297 28.4 113.958 27.025 115.281 26.0667C116.615 25.1083 118.537 24.6239 121.047 24.6135H123.125V23.6448C123.125 22.8635 122.922 22.2385 122.516 21.7698C122.12 21.301 121.49 21.0667 120.625 21.0667C119.865 21.0667 119.266 21.2489 118.828 21.6135C118.401 21.9781 118.188 22.4781 118.188 23.1135H113.672C113.672 22.1344 113.974 21.2281 114.578 20.3948C115.182 19.5614 116.037 18.9104 117.141 18.4417C118.245 17.9625 119.484 17.7229 120.859 17.7229C122.943 17.7229 124.594 18.2489 125.813 19.301C127.042 20.3427 127.656 21.8114 127.656 23.7073V31.0354C127.667 32.6396 127.891 33.8531 128.328 34.676V34.9417H123.766ZM120.031 31.801C120.698 31.801 121.313 31.6552 121.875 31.3635C122.438 31.0614 122.854 30.6604 123.125 30.1604V27.2542H121.438C119.177 27.2542 117.974 28.0354 117.828 29.5979L117.813 29.8635C117.813 30.426 118.011 30.8896 118.406 31.2542C118.802 31.6187 119.344 31.801 120.031 31.801ZM135.127 18.0354L135.268 19.9885C136.476 18.4781 138.096 17.7229 140.127 17.7229C141.919 17.7229 143.252 18.2489 144.127 19.301C145.002 20.3531 145.45 21.926 145.471 24.0198V34.9417H140.956V24.1292C140.956 23.1708 140.747 22.4781 140.331 22.051C139.914 21.6135 139.221 21.3948 138.252 21.3948C136.982 21.3948 136.028 21.9364 135.393 23.0198V34.9417H130.877V18.0354H135.127ZM148.051 26.3635C148.051 23.7281 148.64 21.6292 149.817 20.0667C151.005 18.5042 152.624 17.7229 154.676 17.7229C156.322 17.7229 157.682 18.3375 158.755 19.5667V10.9417H163.286V34.9417H159.208L158.989 33.1448C157.864 34.551 156.416 35.2542 154.645 35.2542C152.656 35.2542 151.057 34.4729 149.848 32.9104C148.65 31.3375 148.051 29.1552 148.051 26.3635ZM152.567 26.6917C152.567 28.275 152.843 29.4885 153.395 30.3323C153.947 31.176 154.749 31.5979 155.801 31.5979C157.197 31.5979 158.182 31.0094 158.755 29.8323V23.1604C158.192 21.9833 157.218 21.3948 155.833 21.3948C153.656 21.3948 152.567 23.1604 152.567 26.6917Z" fill="#474747"/>
<path d="M1066.64 25.0823H1057.64V31.176H1068.21V34.9417H1052.96V12.1917H1068.17V15.9885H1057.64V21.4104H1066.64V25.0823ZM1076.94 23.0823L1079.79 18.0354H1084.61L1079.8 26.3167L1084.82 34.9417H1079.97L1076.96 29.6292L1073.96 34.9417H1069.1L1074.11 26.3167L1069.32 18.0354H1074.16L1076.94 23.0823ZM1094.1 35.2542C1091.62 35.2542 1089.6 34.4937 1088.04 32.9729C1086.49 31.4521 1085.71 29.426 1085.71 26.8948V26.4573C1085.71 24.7594 1086.04 23.2437 1086.69 21.9104C1087.35 20.5667 1088.28 19.5354 1089.48 18.8167C1090.68 18.0875 1092.06 17.7229 1093.6 17.7229C1095.91 17.7229 1097.73 18.4521 1099.05 19.9104C1100.39 21.3687 1101.05 23.4364 1101.05 26.1135V27.9573H1090.29C1090.43 29.0614 1090.87 29.9469 1091.6 30.6135C1092.34 31.2802 1093.27 31.6135 1094.4 31.6135C1096.14 31.6135 1097.5 30.9833 1098.48 29.7229L1100.69 32.2073C1100.02 33.1656 1099.1 33.9156 1097.94 34.4573C1096.79 34.9885 1095.51 35.2542 1094.1 35.2542ZM1093.58 21.3792C1092.69 21.3792 1091.96 21.6812 1091.4 22.2854C1090.85 22.8896 1090.49 23.7542 1090.33 24.8792H1096.62V24.5198C1096.6 23.5198 1096.32 22.7489 1095.8 22.2073C1095.28 21.6552 1094.54 21.3792 1093.58 21.3792ZM1110.51 31.6135C1111.34 31.6135 1112.02 31.3844 1112.54 30.926C1113.06 30.4677 1113.33 29.8583 1113.35 29.0979H1117.59C1117.58 30.2437 1117.26 31.2958 1116.65 32.2542C1116.03 33.2021 1115.19 33.9417 1114.12 34.4729C1113.06 34.9937 1111.88 35.2542 1110.59 35.2542C1108.17 35.2542 1106.26 34.4885 1104.87 32.9573C1103.47 31.4156 1102.77 29.2906 1102.77 26.5823V26.2854C1102.77 23.6812 1103.47 21.6031 1104.85 20.051C1106.24 18.4989 1108.14 17.7229 1110.56 17.7229C1112.67 17.7229 1114.36 18.3271 1115.63 19.5354C1116.92 20.7333 1117.57 22.3323 1117.59 24.3323H1113.35C1113.33 23.4573 1113.06 22.7489 1112.54 22.2073C1112.02 21.6552 1111.33 21.3792 1110.48 21.3792C1109.43 21.3792 1108.63 21.7646 1108.09 22.5354C1107.56 23.2958 1107.29 24.5354 1107.29 26.2542V26.7229C1107.29 28.4625 1107.56 29.7125 1108.09 30.4729C1108.62 31.2333 1109.43 31.6135 1110.51 31.6135ZM1130.14 33.2229C1129.02 34.5771 1127.48 35.2542 1125.51 35.2542C1123.7 35.2542 1122.31 34.7333 1121.35 33.6917C1120.41 32.65 1119.92 31.1239 1119.9 29.1135V18.0354H1124.42V28.9573C1124.42 30.7177 1125.22 31.5979 1126.82 31.5979C1128.35 31.5979 1129.41 31.0667 1129.98 30.0042V18.0354H1134.51V34.9417H1130.26L1130.14 33.2229ZM1143.17 13.8792V18.0354H1146.06V21.3479H1143.17V29.7854C1143.17 30.4104 1143.29 30.8583 1143.53 31.1292C1143.77 31.4 1144.23 31.5354 1144.9 31.5354C1145.4 31.5354 1145.85 31.4989 1146.23 31.426V34.8479C1145.35 35.1187 1144.44 35.2542 1143.5 35.2542C1140.33 35.2542 1138.72 33.6552 1138.65 30.4573V21.3479H1136.19V18.0354H1138.65V13.8792H1143.17ZM1156.2 35.2542C1153.72 35.2542 1151.7 34.4937 1150.14 32.9729C1148.59 31.4521 1147.81 29.426 1147.81 26.8948V26.4573C1147.81 24.7594 1148.14 23.2437 1148.8 21.9104C1149.45 20.5667 1150.38 19.5354 1151.58 18.8167C1152.79 18.0875 1154.16 17.7229 1155.7 17.7229C1158.02 17.7229 1159.83 18.4521 1161.16 19.9104C1162.49 21.3687 1163.16 23.4364 1163.16 26.1135V27.9573H1152.39C1152.54 29.0614 1152.97 29.9469 1153.7 30.6135C1154.44 31.2802 1155.38 31.6135 1156.5 31.6135C1158.24 31.6135 1159.6 30.9833 1160.58 29.7229L1162.8 32.2073C1162.12 33.1656 1161.2 33.9156 1160.05 34.4573C1158.89 34.9885 1157.61 35.2542 1156.2 35.2542ZM1155.69 21.3792C1154.79 21.3792 1154.06 21.6812 1153.5 22.2854C1152.95 22.8896 1152.59 23.7542 1152.44 24.8792H1158.72V24.5198C1158.7 23.5198 1158.43 22.7489 1157.91 22.2073C1157.39 21.6552 1156.65 21.3792 1155.69 21.3792Z" fill="#474747"/>
<path d="M966.539 283.634C966.539 285.314 966.242 286.787 965.648 288.052C965.055 289.318 964.203 290.295 963.094 290.982C961.992 291.67 960.727 292.013 959.297 292.013C957.883 292.013 956.621 291.673 955.512 290.994C954.402 290.314 953.543 289.345 952.934 288.088C952.324 286.822 952.016 285.369 952.008 283.728V282.884C952.008 281.205 952.309 279.728 952.91 278.455C953.519 277.173 954.375 276.193 955.477 275.513C956.586 274.826 957.852 274.482 959.273 274.482C960.695 274.482 961.957 274.826 963.059 275.513C964.168 276.193 965.023 277.173 965.625 278.455C966.234 279.728 966.539 281.201 966.539 282.873V283.634ZM962.977 282.861C962.977 281.072 962.656 279.713 962.016 278.783C961.375 277.853 960.461 277.388 959.273 277.388C958.094 277.388 957.184 277.849 956.543 278.771C955.902 279.685 955.578 281.029 955.57 282.802V283.634C955.57 285.377 955.891 286.728 956.531 287.689C957.172 288.65 958.094 289.13 959.297 289.13C960.477 289.13 961.383 288.67 962.016 287.748C962.648 286.818 962.969 285.466 962.977 283.693V282.861ZM980.131 285.556C980.131 287.509 979.686 289.076 978.795 290.255C977.912 291.427 976.717 292.013 975.209 292.013C973.928 292.013 972.893 291.568 972.104 290.677V296.654H968.717V279.099H971.858L971.975 280.341C972.795 279.357 973.865 278.865 975.186 278.865C976.748 278.865 977.963 279.443 978.83 280.599C979.698 281.755 980.131 283.349 980.131 285.38V285.556ZM976.744 285.31C976.744 284.13 976.533 283.22 976.112 282.58C975.698 281.939 975.092 281.619 974.295 281.619C973.233 281.619 972.502 282.025 972.104 282.838V288.029C972.518 288.865 973.256 289.283 974.319 289.283C975.936 289.283 976.744 287.959 976.744 285.31ZM986.141 275.982V279.099H988.309V281.584H986.141V287.912C986.141 288.38 986.231 288.716 986.411 288.92C986.59 289.123 986.934 289.224 987.442 289.224C987.817 289.224 988.149 289.197 988.438 289.142V291.709C987.774 291.912 987.09 292.013 986.387 292.013C984.012 292.013 982.801 290.814 982.754 288.416V281.584H980.903V279.099H982.754V275.982H986.141ZM993.616 291.779H990.218V279.099H993.616V291.779ZM990.018 275.818C990.018 275.31 990.186 274.892 990.522 274.564C990.866 274.236 991.331 274.072 991.917 274.072C992.495 274.072 992.956 274.236 993.3 274.564C993.643 274.892 993.815 275.31 993.815 275.818C993.815 276.334 993.639 276.755 993.288 277.084C992.944 277.412 992.487 277.576 991.917 277.576C991.347 277.576 990.886 277.412 990.534 277.084C990.19 276.755 990.018 276.334 990.018 275.818ZM999.439 279.099L999.544 280.517C1000.44 279.416 1001.66 278.865 1003.19 278.865C1004.82 278.865 1005.94 279.509 1006.55 280.798C1007.44 279.509 1008.71 278.865 1010.36 278.865C1011.74 278.865 1012.76 279.267 1013.43 280.072C1014.1 280.869 1014.44 282.072 1014.44 283.681V291.779H1011.04V283.693C1011.04 282.974 1010.9 282.451 1010.62 282.123C1010.34 281.787 1009.84 281.619 1009.13 281.619C1008.11 281.619 1007.41 282.103 1007.02 283.072L1007.03 291.779H1003.65V283.705C1003.65 282.97 1003.5 282.439 1003.21 282.111C1002.92 281.783 1002.43 281.619 1001.74 281.619C1000.77 281.619 1000.08 282.017 999.65 282.814V291.779H996.263V279.099H999.439ZM1020.47 291.779H1017.07V279.099H1020.47V291.779ZM1016.87 275.818C1016.87 275.31 1017.04 274.892 1017.38 274.564C1017.72 274.236 1018.19 274.072 1018.77 274.072C1019.35 274.072 1019.81 274.236 1020.16 274.564C1020.5 274.892 1020.67 275.31 1020.67 275.818C1020.67 276.334 1020.5 276.755 1020.14 277.084C1019.8 277.412 1019.34 277.576 1018.77 277.576C1018.2 277.576 1017.74 277.412 1017.39 277.084C1017.05 276.755 1016.87 276.334 1016.87 275.818ZM1029.99 288.275C1029.99 287.861 1029.78 287.537 1029.36 287.302C1028.96 287.06 1028.3 286.845 1027.4 286.658C1024.38 286.025 1022.87 284.744 1022.87 282.814C1022.87 281.689 1023.34 280.752 1024.27 280.002C1025.2 279.244 1026.43 278.865 1027.94 278.865C1029.54 278.865 1030.83 279.244 1031.79 280.002C1032.76 280.759 1033.24 281.744 1033.24 282.955H1029.86C1029.86 282.47 1029.7 282.072 1029.39 281.759C1029.08 281.439 1028.59 281.279 1027.92 281.279C1027.35 281.279 1026.91 281.408 1026.6 281.666C1026.29 281.923 1026.13 282.252 1026.13 282.65C1026.13 283.025 1026.31 283.33 1026.66 283.564C1027.02 283.791 1027.62 283.99 1028.46 284.162C1029.31 284.326 1030.02 284.513 1030.6 284.724C1032.38 285.38 1033.28 286.517 1033.28 288.134C1033.28 289.291 1032.78 290.228 1031.79 290.947C1030.8 291.658 1029.52 292.013 1027.95 292.013C1026.88 292.013 1025.94 291.826 1025.11 291.451C1024.29 291.068 1023.65 290.548 1023.18 289.892C1022.71 289.228 1022.47 288.513 1022.47 287.748H1025.69C1025.72 288.349 1025.94 288.81 1026.35 289.13C1026.77 289.451 1027.32 289.611 1028.02 289.611C1028.67 289.611 1029.15 289.49 1029.48 289.248C1029.82 288.998 1029.99 288.673 1029.99 288.275ZM1041.15 292.013C1039.29 292.013 1037.78 291.443 1036.61 290.302C1035.44 289.162 1034.86 287.642 1034.86 285.744V285.416C1034.86 284.142 1035.11 283.005 1035.6 282.005C1036.09 280.998 1036.79 280.224 1037.68 279.685C1038.59 279.138 1039.62 278.865 1040.78 278.865C1042.51 278.865 1043.88 279.412 1044.87 280.505C1045.87 281.599 1046.37 283.15 1046.37 285.158V286.541H1038.29C1038.4 287.369 1038.73 288.033 1039.28 288.533C1039.83 289.033 1040.53 289.283 1041.38 289.283C1042.68 289.283 1043.7 288.81 1044.43 287.865L1046.1 289.728C1045.59 290.447 1044.9 291.009 1044.04 291.416C1043.17 291.814 1042.21 292.013 1041.15 292.013ZM1040.77 281.607C1040.09 281.607 1039.55 281.834 1039.13 282.287C1038.71 282.74 1038.45 283.388 1038.33 284.232H1043.04V283.963C1043.02 283.213 1042.82 282.634 1042.43 282.228C1042.04 281.814 1041.48 281.607 1040.77 281.607Z" fill="#474747"/>
<path d="M689.408 291.779H685.893V274.716H689.408V291.779ZM691.774 285.345C691.774 283.369 692.215 281.795 693.098 280.623C693.989 279.451 695.204 278.865 696.743 278.865C697.977 278.865 698.997 279.326 699.801 280.248V273.779H703.2V291.779H700.141L699.977 290.431C699.133 291.486 698.047 292.013 696.719 292.013C695.227 292.013 694.028 291.427 693.122 290.255C692.223 289.076 691.774 287.439 691.774 285.345ZM695.161 285.591C695.161 286.779 695.368 287.689 695.782 288.322C696.196 288.955 696.797 289.271 697.586 289.271C698.633 289.271 699.372 288.83 699.801 287.947V282.943C699.379 282.06 698.649 281.619 697.61 281.619C695.977 281.619 695.161 282.943 695.161 285.591ZM711.507 292.013C709.647 292.013 708.132 291.443 706.96 290.302C705.796 289.162 705.214 287.642 705.214 285.744V285.416C705.214 284.142 705.46 283.005 705.952 282.005C706.444 280.998 707.139 280.224 708.038 279.685C708.944 279.138 709.975 278.865 711.132 278.865C712.866 278.865 714.229 279.412 715.222 280.505C716.222 281.599 716.722 283.15 716.722 285.158V286.541H708.647C708.757 287.369 709.085 288.033 709.632 288.533C710.186 289.033 710.886 289.283 711.729 289.283C713.034 289.283 714.054 288.81 714.788 287.865L716.452 289.728C715.944 290.447 715.257 291.009 714.389 291.416C713.522 291.814 712.561 292.013 711.507 292.013ZM711.12 281.607C710.448 281.607 709.901 281.834 709.479 282.287C709.065 282.74 708.8 283.388 708.682 284.232H713.393V283.963C713.378 283.213 713.175 282.634 712.784 282.228C712.393 281.814 711.839 281.607 711.12 281.607ZM725.849 291.779C725.693 291.474 725.579 291.095 725.509 290.642C724.689 291.556 723.622 292.013 722.31 292.013C721.068 292.013 720.036 291.654 719.216 290.935C718.403 290.216 717.997 289.31 717.997 288.216C717.997 286.873 718.493 285.841 719.485 285.123C720.485 284.404 721.927 284.041 723.81 284.033H725.368V283.306C725.368 282.72 725.216 282.252 724.911 281.9C724.614 281.548 724.142 281.373 723.493 281.373C722.923 281.373 722.474 281.509 722.146 281.783C721.825 282.056 721.665 282.431 721.665 282.908H718.278C718.278 282.173 718.505 281.494 718.958 280.869C719.411 280.244 720.052 279.755 720.88 279.404C721.708 279.045 722.638 278.865 723.669 278.865C725.232 278.865 726.47 279.259 727.384 280.048C728.306 280.83 728.767 281.931 728.767 283.353V288.849C728.775 290.052 728.943 290.963 729.271 291.58V291.779H725.849ZM723.048 289.423C723.548 289.423 724.009 289.314 724.431 289.095C724.853 288.869 725.165 288.568 725.368 288.193V286.013H724.103C722.407 286.013 721.505 286.599 721.396 287.771L721.384 287.97C721.384 288.392 721.532 288.74 721.829 289.013C722.126 289.287 722.532 289.423 723.048 289.423ZM735.269 275.982V279.099H737.437V281.584H735.269V287.912C735.269 288.38 735.359 288.716 735.539 288.92C735.718 289.123 736.062 289.224 736.57 289.224C736.945 289.224 737.277 289.197 737.566 289.142V291.709C736.902 291.912 736.218 292.013 735.515 292.013C733.14 292.013 731.929 290.814 731.882 288.416V281.584H730.031V279.099H731.882V275.982H735.269ZM745.006 292.013C743.146 292.013 741.631 291.443 740.459 290.302C739.295 289.162 738.713 287.642 738.713 285.744V285.416C738.713 284.142 738.959 283.005 739.451 282.005C739.943 280.998 740.638 280.224 741.537 279.685C742.443 279.138 743.474 278.865 744.631 278.865C746.365 278.865 747.728 279.412 748.72 280.505C749.72 281.599 750.22 283.15 750.22 285.158V286.541H742.146C742.256 287.369 742.584 288.033 743.131 288.533C743.685 289.033 744.385 289.283 745.228 289.283C746.533 289.283 747.552 288.81 748.287 287.865L749.951 289.728C749.443 290.447 748.756 291.009 747.888 291.416C747.021 291.814 746.06 292.013 745.006 292.013ZM744.619 281.607C743.947 281.607 743.4 281.834 742.978 282.287C742.564 282.74 742.299 283.388 742.181 284.232H746.892V283.963C746.877 283.213 746.674 282.634 746.283 282.228C745.892 281.814 745.338 281.607 744.619 281.607Z" fill="#474747"/>
<path d="M731.166 195.839V178.777H736.416C737.916 178.777 739.256 179.117 740.436 179.796C741.623 180.468 742.549 181.429 743.213 182.679C743.877 183.921 744.209 185.335 744.209 186.921V187.706C744.209 189.292 743.881 190.703 743.225 191.937C742.576 193.171 741.658 194.128 740.471 194.808C739.283 195.488 737.944 195.831 736.451 195.839H731.166ZM734.682 181.624V193.015H736.381C737.756 193.015 738.807 192.566 739.533 191.667C740.26 190.769 740.631 189.484 740.647 187.812V186.91C740.647 185.175 740.287 183.863 739.569 182.972C738.85 182.074 737.799 181.624 736.416 181.624H734.682ZM752.235 196.074C750.376 196.074 748.86 195.503 747.688 194.363C746.524 193.222 745.942 191.703 745.942 189.804V189.476C745.942 188.203 746.188 187.066 746.68 186.066C747.172 185.058 747.868 184.285 748.766 183.745C749.672 183.199 750.704 182.925 751.86 182.925C753.594 182.925 754.958 183.472 755.95 184.566C756.95 185.66 757.45 187.21 757.45 189.218V190.601H749.376C749.485 191.429 749.813 192.093 750.36 192.593C750.915 193.093 751.614 193.343 752.458 193.343C753.762 193.343 754.782 192.87 755.516 191.925L757.18 193.788C756.672 194.507 755.985 195.07 755.118 195.476C754.251 195.874 753.29 196.074 752.235 196.074ZM751.848 185.667C751.176 185.667 750.629 185.894 750.208 186.347C749.793 186.8 749.528 187.449 749.411 188.292H754.122V188.023C754.106 187.273 753.903 186.695 753.512 186.288C753.122 185.874 752.567 185.667 751.848 185.667ZM766.097 192.335C766.097 191.921 765.889 191.597 765.475 191.363C765.069 191.12 764.413 190.906 763.507 190.718C760.491 190.085 758.983 188.804 758.983 186.874C758.983 185.749 759.448 184.812 760.378 184.062C761.315 183.304 762.538 182.925 764.046 182.925C765.655 182.925 766.94 183.304 767.901 184.062C768.87 184.82 769.354 185.804 769.354 187.015H765.968C765.968 186.531 765.811 186.132 765.499 185.82C765.186 185.499 764.698 185.339 764.034 185.339C763.464 185.339 763.022 185.468 762.71 185.726C762.397 185.984 762.241 186.312 762.241 186.71C762.241 187.085 762.417 187.39 762.768 187.624C763.128 187.851 763.729 188.05 764.573 188.222C765.417 188.386 766.128 188.574 766.706 188.785C768.495 189.441 769.389 190.578 769.389 192.195C769.389 193.351 768.893 194.288 767.901 195.007C766.909 195.718 765.628 196.074 764.057 196.074C762.995 196.074 762.05 195.886 761.222 195.511C760.401 195.128 759.757 194.609 759.288 193.953C758.819 193.288 758.585 192.574 758.585 191.808H761.796C761.827 192.41 762.05 192.87 762.464 193.191C762.878 193.511 763.432 193.671 764.128 193.671C764.776 193.671 765.264 193.55 765.593 193.308C765.929 193.058 766.097 192.734 766.097 192.335ZM775.001 195.839H771.603V183.16H775.001V195.839ZM771.403 179.878C771.403 179.37 771.571 178.953 771.907 178.624C772.251 178.296 772.716 178.132 773.302 178.132C773.88 178.132 774.341 178.296 774.685 178.624C775.028 178.953 775.2 179.37 775.2 179.878C775.2 180.394 775.025 180.816 774.673 181.144C774.329 181.472 773.872 181.636 773.302 181.636C772.732 181.636 772.271 181.472 771.919 181.144C771.575 180.816 771.403 180.394 771.403 179.878ZM777.156 189.406C777.156 187.46 777.617 185.894 778.539 184.706C779.468 183.519 780.718 182.925 782.289 182.925C783.679 182.925 784.761 183.402 785.535 184.355L785.675 183.16H788.746V195.417C788.746 196.527 788.492 197.492 787.984 198.312C787.484 199.132 786.777 199.757 785.863 200.187C784.949 200.617 783.878 200.831 782.652 200.831C781.722 200.831 780.816 200.644 779.933 200.269C779.05 199.902 778.382 199.425 777.929 198.839L779.429 196.777C780.273 197.722 781.296 198.195 782.499 198.195C783.398 198.195 784.097 197.953 784.597 197.468C785.097 196.992 785.347 196.312 785.347 195.429V194.749C784.566 195.632 783.539 196.074 782.265 196.074C780.742 196.074 779.507 195.48 778.562 194.292C777.624 193.097 777.156 191.515 777.156 189.546V189.406ZM780.542 189.652C780.542 190.8 780.773 191.703 781.234 192.359C781.695 193.007 782.328 193.331 783.132 193.331C784.164 193.331 784.902 192.945 785.347 192.171V186.839C784.894 186.066 784.164 185.679 783.156 185.679C782.343 185.679 781.703 186.011 781.234 186.675C780.773 187.339 780.542 188.331 780.542 189.652ZM794.322 183.16L794.427 184.624C795.334 183.492 796.549 182.925 798.072 182.925C799.416 182.925 800.416 183.32 801.072 184.109C801.728 184.898 802.064 186.078 802.08 187.648V195.839H798.693V187.73C798.693 187.011 798.537 186.492 798.224 186.171C797.912 185.843 797.392 185.679 796.666 185.679C795.713 185.679 794.998 186.085 794.521 186.898V195.839H791.135V183.16H794.322Z" fill="#474747"/>
<path d="M777.213 405.021C777.08 406.856 776.401 408.302 775.174 409.356C773.955 410.411 772.346 410.938 770.346 410.938C768.158 410.938 766.436 410.204 765.178 408.735C763.928 407.259 763.303 405.235 763.303 402.665V401.622C763.303 399.981 763.592 398.536 764.17 397.286C764.748 396.036 765.572 395.079 766.643 394.415C767.721 393.743 768.971 393.407 770.393 393.407C772.362 393.407 773.947 393.935 775.151 394.989C776.354 396.044 777.049 397.524 777.237 399.431H773.721C773.635 398.329 773.326 397.532 772.795 397.04C772.272 396.54 771.471 396.29 770.393 396.29C769.221 396.29 768.342 396.712 767.756 397.556C767.178 398.392 766.881 399.692 766.865 401.458V402.747C766.865 404.591 767.143 405.938 767.697 406.79C768.26 407.642 769.143 408.067 770.346 408.067C771.432 408.067 772.24 407.821 772.772 407.329C773.311 406.829 773.619 406.06 773.697 405.021H777.213ZM786.27 401.2C785.809 401.138 785.403 401.106 785.051 401.106C783.77 401.106 782.93 401.54 782.532 402.407V410.704H779.145V398.024H782.344L782.438 399.536C783.118 398.372 784.059 397.79 785.262 397.79C785.637 397.79 785.989 397.841 786.317 397.942L786.27 401.2ZM793.358 410.938C791.499 410.938 789.983 410.368 788.811 409.228C787.647 408.087 787.065 406.567 787.065 404.669V404.341C787.065 403.067 787.311 401.931 787.804 400.931C788.296 399.923 788.991 399.149 789.889 398.61C790.796 398.063 791.827 397.79 792.983 397.79C794.718 397.79 796.081 398.337 797.073 399.431C798.073 400.524 798.573 402.075 798.573 404.083V405.466H790.499C790.608 406.294 790.936 406.958 791.483 407.458C792.038 407.958 792.737 408.208 793.581 408.208C794.886 408.208 795.905 407.735 796.639 406.79L798.304 408.653C797.796 409.372 797.108 409.935 796.241 410.341C795.374 410.739 794.413 410.938 793.358 410.938ZM792.972 400.532C792.3 400.532 791.753 400.759 791.331 401.212C790.917 401.665 790.651 402.313 790.534 403.157H795.245V402.888C795.229 402.138 795.026 401.56 794.636 401.153C794.245 400.739 793.69 400.532 792.972 400.532ZM807.7 410.704C807.544 410.399 807.431 410.021 807.36 409.567C806.54 410.481 805.474 410.938 804.161 410.938C802.919 410.938 801.888 410.579 801.068 409.86C800.255 409.142 799.849 408.235 799.849 407.142C799.849 405.798 800.345 404.767 801.337 404.048C802.337 403.329 803.778 402.966 805.661 402.958H807.22V402.231C807.22 401.646 807.068 401.177 806.763 400.825C806.466 400.474 805.993 400.298 805.345 400.298C804.775 400.298 804.325 400.435 803.997 400.708C803.677 400.981 803.517 401.356 803.517 401.833H800.13C800.13 401.099 800.357 400.419 800.81 399.794C801.263 399.169 801.903 398.681 802.732 398.329C803.56 397.97 804.489 397.79 805.521 397.79C807.083 397.79 808.321 398.185 809.235 398.974C810.157 399.755 810.618 400.856 810.618 402.278V407.774C810.626 408.978 810.794 409.888 811.122 410.505V410.704H807.7ZM804.9 408.349C805.4 408.349 805.86 408.239 806.282 408.021C806.704 407.794 807.017 407.493 807.22 407.118V404.938H805.954C804.259 404.938 803.357 405.524 803.247 406.696L803.235 406.896C803.235 407.317 803.384 407.665 803.681 407.938C803.978 408.212 804.384 408.349 804.9 408.349ZM817.121 394.907V398.024H819.289V400.509H817.121V406.837C817.121 407.306 817.21 407.642 817.39 407.845C817.57 408.048 817.914 408.149 818.421 408.149C818.796 408.149 819.128 408.122 819.417 408.067V410.634C818.753 410.837 818.07 410.938 817.367 410.938C814.992 410.938 813.781 409.739 813.734 407.341V400.509H811.882V398.024H813.734V394.907H817.121ZM826.857 410.938C824.998 410.938 823.482 410.368 822.31 409.228C821.146 408.087 820.564 406.567 820.564 404.669V404.341C820.564 403.067 820.81 401.931 821.302 400.931C821.795 399.923 822.49 399.149 823.388 398.61C824.295 398.063 825.326 397.79 826.482 397.79C828.217 397.79 829.58 398.337 830.572 399.431C831.572 400.524 832.072 402.075 832.072 404.083V405.466H823.998C824.107 406.294 824.435 406.958 824.982 407.458C825.537 407.958 826.236 408.208 827.08 408.208C828.385 408.208 829.404 407.735 830.138 406.79L831.802 408.653C831.295 409.372 830.607 409.935 829.74 410.341C828.873 410.739 827.912 410.938 826.857 410.938ZM826.47 400.532C825.799 400.532 825.252 400.759 824.83 401.212C824.416 401.665 824.15 402.313 824.033 403.157H828.744V402.888C828.728 402.138 828.525 401.56 828.135 401.153C827.744 400.739 827.189 400.532 826.47 400.532Z" fill="#474747"/>
<path d="M879.164 177.333H873L871.828 180.849H868.09L874.441 163.786H877.699L884.086 180.849H880.348L879.164 177.333ZM873.949 174.485H878.215L876.07 168.099L873.949 174.485ZM890.576 178.353C891.201 178.353 891.709 178.181 892.1 177.837C892.49 177.493 892.694 177.036 892.709 176.466H895.885C895.877 177.325 895.643 178.114 895.182 178.833C894.721 179.544 894.088 180.099 893.283 180.497C892.487 180.888 891.604 181.083 890.635 181.083C888.823 181.083 887.393 180.509 886.346 179.36C885.299 178.204 884.776 176.61 884.776 174.579V174.357C884.776 172.403 885.295 170.845 886.334 169.681C887.373 168.517 888.799 167.935 890.612 167.935C892.198 167.935 893.467 168.388 894.42 169.294C895.381 170.192 895.869 171.392 895.885 172.892H892.709C892.694 172.235 892.49 171.704 892.1 171.298C891.709 170.884 891.194 170.677 890.553 170.677C889.764 170.677 889.166 170.966 888.76 171.544C888.362 172.114 888.162 173.044 888.162 174.333V174.685C888.162 175.989 888.362 176.927 888.76 177.497C889.158 178.067 889.764 178.353 890.576 178.353ZM901.719 165.052V168.169H903.887V170.653H901.719V176.982C901.719 177.45 901.809 177.786 901.989 177.989C902.169 178.192 902.512 178.294 903.02 178.294C903.395 178.294 903.727 178.267 904.016 178.212V180.778C903.352 180.982 902.669 181.083 901.965 181.083C899.59 181.083 898.379 179.884 898.333 177.485V170.653H896.481V168.169H898.333V165.052H901.719ZM909.194 180.849H905.796V168.169H909.194V180.849ZM905.597 164.888C905.597 164.38 905.764 163.962 906.1 163.634C906.444 163.306 906.909 163.142 907.495 163.142C908.073 163.142 908.534 163.306 908.878 163.634C909.222 163.962 909.393 164.38 909.393 164.888C909.393 165.403 909.218 165.825 908.866 166.153C908.522 166.482 908.065 166.646 907.495 166.646C906.925 166.646 906.464 166.482 906.112 166.153C905.768 165.825 905.597 165.403 905.597 164.888ZM916.587 176.712L918.943 168.169H922.482L918.204 180.849H914.97L910.693 168.169H914.232L916.587 176.712ZM930.988 180.849C930.831 180.544 930.718 180.165 930.648 179.712C929.828 180.626 928.761 181.083 927.449 181.083C926.206 181.083 925.175 180.724 924.355 180.005C923.542 179.286 923.136 178.38 923.136 177.286C923.136 175.942 923.632 174.911 924.624 174.192C925.624 173.474 927.066 173.11 928.949 173.103H930.507V172.376C930.507 171.79 930.355 171.321 930.05 170.97C929.753 170.618 929.281 170.442 928.632 170.442C928.062 170.442 927.613 170.579 927.285 170.853C926.964 171.126 926.804 171.501 926.804 171.978H923.417C923.417 171.243 923.644 170.564 924.097 169.939C924.55 169.314 925.191 168.825 926.019 168.474C926.847 168.114 927.777 167.935 928.808 167.935C930.371 167.935 931.609 168.329 932.523 169.118C933.445 169.899 933.906 171.001 933.906 172.423V177.919C933.914 179.122 934.081 180.032 934.41 180.649V180.849H930.988ZM928.187 178.493C928.687 178.493 929.148 178.384 929.57 178.165C929.992 177.939 930.304 177.638 930.507 177.263V175.083H929.242C927.546 175.083 926.644 175.669 926.535 176.841L926.523 177.04C926.523 177.462 926.671 177.81 926.968 178.083C927.265 178.357 927.671 178.493 928.187 178.493ZM940.408 165.052V168.169H942.576V170.653H940.408V176.982C940.408 177.45 940.498 177.786 940.677 177.989C940.857 178.192 941.201 178.294 941.709 178.294C942.084 178.294 942.416 178.267 942.705 178.212V180.778C942.041 180.982 941.357 181.083 940.654 181.083C938.279 181.083 937.068 179.884 937.021 177.485V170.653H935.17V168.169H937.021V165.052H940.408ZM950.145 181.083C948.285 181.083 946.77 180.513 945.598 179.372C944.434 178.232 943.852 176.712 943.852 174.814V174.485C943.852 173.212 944.098 172.075 944.59 171.075C945.082 170.067 945.777 169.294 946.676 168.755C947.582 168.208 948.613 167.935 949.77 167.935C951.504 167.935 952.867 168.482 953.859 169.575C954.859 170.669 955.359 172.22 955.359 174.228V175.61H947.285C947.395 176.439 947.723 177.103 948.27 177.603C948.824 178.103 949.523 178.353 950.367 178.353C951.672 178.353 952.691 177.88 953.426 176.935L955.09 178.798C954.582 179.517 953.895 180.079 953.027 180.485C952.16 180.884 951.199 181.083 950.145 181.083ZM949.758 170.677C949.086 170.677 948.539 170.903 948.117 171.357C947.703 171.81 947.438 172.458 947.32 173.302H952.031V173.032C952.016 172.282 951.813 171.704 951.422 171.298C951.031 170.884 950.477 170.677 949.758 170.677Z" fill="#474747"/>
<line y1="-2" x2="404.736" y2="-2" transform="matrix(0.901822 0.432109 -0.43255 0.90161 675 200.816)" stroke="#ECB2B2" stroke-opacity="0.3" stroke-width="4" stroke-dasharray="6 6"/>
<line y1="-2" x2="404.736" y2="-2" transform="matrix(0.901822 0.432109 -0.43255 0.90161 675 200.816)" stroke="#ECB2B2" stroke-opacity="0.3" stroke-width="4" stroke-dasharray="6 6"/>
<line y1="-2" x2="456.44" y2="-2" transform="matrix(0.234423 0.972135 -0.972202 0.234145 800 67.8996)" stroke="#ECB2B2" stroke-opacity="0.3" stroke-width="4" stroke-dasharray="6 6"/>
<line y1="-2" x2="456.44" y2="-2" transform="matrix(0.234423 0.972135 -0.972202 0.234145 800 67.8996)" stroke="#ECB2B2" stroke-opacity="0.3" stroke-width="4" stroke-dasharray="6 6"/>
<line y1="-2" x2="401.072" y2="-2" transform="matrix(-0.855208 0.518284 -0.518761 -0.854919 1018 183.827)" stroke="#ECB2B2" stroke-opacity="0.3" stroke-width="4" stroke-dasharray="6 6"/>
<line y1="-2" x2="401.072" y2="-2" transform="matrix(-0.855208 0.518284 -0.518761 -0.854919 1018 183.827)" stroke="#ECB2B2" stroke-opacity="0.3" stroke-width="4" stroke-dasharray="6 6"/>
<rect x="5.6584" y="-0.0516758" width="391.872" height="391.877" transform="matrix(0.700844 -0.713315 0.713755 0.700396 575.73 293.195)" stroke="#C42933" stroke-width="8"/>
<path d="M910.808 383.895H918.273V386.719H907.292V369.657H910.808V383.895ZM925.759 386.954C923.9 386.954 922.384 386.383 921.213 385.243C920.049 384.102 919.466 382.583 919.466 380.684V380.356C919.466 379.083 919.713 377.946 920.205 376.946C920.697 375.938 921.392 375.165 922.291 374.625C923.197 374.079 924.228 373.805 925.384 373.805C927.119 373.805 928.482 374.352 929.474 375.446C930.474 376.54 930.974 378.09 930.974 380.098V381.481H922.9C923.009 382.309 923.338 382.973 923.884 383.473C924.439 383.973 925.138 384.223 925.982 384.223C927.287 384.223 928.306 383.75 929.041 382.805L930.705 384.668C930.197 385.387 929.509 385.95 928.642 386.356C927.775 386.754 926.814 386.954 925.759 386.954ZM925.373 376.547C924.701 376.547 924.154 376.774 923.732 377.227C923.318 377.68 923.052 378.329 922.935 379.172H927.646V378.903C927.631 378.153 927.427 377.575 927.037 377.168C926.646 376.754 926.091 376.547 925.373 376.547ZM940.102 386.719C939.945 386.415 939.832 386.036 939.762 385.583C938.941 386.497 937.875 386.954 936.562 386.954C935.32 386.954 934.289 386.594 933.469 385.875C932.656 385.157 932.25 384.25 932.25 383.157C932.25 381.813 932.746 380.782 933.738 380.063C934.738 379.344 936.18 378.981 938.062 378.973H939.621V378.247C939.621 377.661 939.469 377.192 939.164 376.84C938.867 376.489 938.395 376.313 937.746 376.313C937.176 376.313 936.727 376.45 936.398 376.723C936.078 376.997 935.918 377.372 935.918 377.848H932.531C932.531 377.114 932.758 376.434 933.211 375.809C933.664 375.184 934.305 374.696 935.133 374.344C935.961 373.985 936.891 373.805 937.922 373.805C939.484 373.805 940.723 374.2 941.637 374.989C942.559 375.77 943.02 376.872 943.02 378.293V383.79C943.027 384.993 943.195 385.903 943.523 386.52V386.719H940.102ZM937.301 384.364C937.801 384.364 938.262 384.254 938.684 384.036C939.105 383.809 939.418 383.508 939.621 383.133V380.954H938.355C936.66 380.954 935.758 381.54 935.648 382.711L935.637 382.911C935.637 383.333 935.785 383.68 936.082 383.954C936.379 384.227 936.785 384.364 937.301 384.364ZM952.592 377.215C952.131 377.153 951.725 377.122 951.373 377.122C950.092 377.122 949.252 377.555 948.854 378.422V386.719H945.467V374.04H948.666L948.76 375.551C949.44 374.387 950.381 373.805 951.584 373.805C951.959 373.805 952.311 373.856 952.639 373.958L952.592 377.215ZM957.196 374.04L957.301 375.504C958.208 374.372 959.422 373.805 960.946 373.805C962.29 373.805 963.29 374.2 963.946 374.989C964.602 375.778 964.938 376.958 964.954 378.528V386.719H961.567V378.61C961.567 377.891 961.411 377.372 961.098 377.051C960.786 376.723 960.266 376.559 959.54 376.559C958.587 376.559 957.872 376.965 957.395 377.778V386.719H954.008V374.04H957.196Z" fill="#474747"/>
<rect x="5.65858" y="0.0232289" width="391.875" height="391.873" transform="matrix(0.710225 -0.703975 0.704421 0.709782 12.6234 290.432)" stroke="#C42933" stroke-width="8"/>
<path d="M155.858 80.3854C156.683 80.464 157.415 79.8593 157.494 79.0349L158.773 65.5999C158.852 64.7754 158.247 64.0434 157.422 63.9648C156.597 63.8863 155.864 64.4909 155.786 65.3154L154.648 77.2576L142.699 76.1196C141.874 76.041 141.141 76.6456 141.063 77.4701C140.984 78.2945 141.59 79.0265 142.414 79.1051L155.858 80.3854ZM135.843 56.8621L154.843 79.8476L157.157 77.9377L138.157 54.9521L135.843 56.8621Z" fill="black"/>
<path d="M1022.57 79.3488C1022.82 80.1378 1023.67 80.5732 1024.46 80.3213L1037.32 76.2157C1038.11 75.9637 1038.55 75.1199 1038.29 74.3309C1038.04 73.5419 1037.2 73.1065 1036.41 73.3584L1024.97 77.0078L1021.33 65.5788C1021.07 64.7898 1020.23 64.3545 1019.44 64.6064C1018.65 64.8583 1018.22 65.7022 1018.47 66.4912L1022.57 79.3488ZM1038.67 47.2245L1022.67 78.205L1025.33 79.5803L1041.33 48.5997L1038.67 47.2245Z" fill="black"/>
<path d="M419.439 85.4284L418.189 86.9898L421.311 89.4895L422.561 87.9282L419.439 85.4284ZM730 86.6783L724.335 64.2898L707.779 80.3897L730 86.6783ZM422.561 87.9282C422.726 87.7225 423.34 87.0241 424.425 85.8811L421.524 83.127C420.436 84.273 419.719 85.0785 419.439 85.4284L422.561 87.9282ZM428.622 81.6472C429.898 80.4052 431.363 79.014 433.009 77.5001L430.301 74.5559C428.627 76.0959 427.134 77.5132 425.832 78.7811L428.622 81.6472ZM437.496 73.4773C438.926 72.2264 440.451 70.9214 442.068 69.5728L439.506 66.5012C437.864 67.8703 436.316 69.1956 434.863 70.4664L437.496 73.4773ZM446.736 65.7679C448.262 64.5519 449.854 63.3111 451.509 62.0522L449.088 58.8684C447.408 60.1459 445.793 61.405 444.243 62.6391L446.736 65.7679ZM456.376 58.4355C457.952 57.292 459.575 56.1393 461.246 54.9821L458.969 51.6937C457.273 52.8682 455.625 54.038 454.027 55.1984L456.376 58.4355ZM466.241 51.6058C467.9 50.5112 469.6 49.4166 471.34 48.3258L469.215 44.9368C467.449 46.0443 465.723 47.1556 464.038 48.2668L466.241 51.6058ZM476.439 45.2107C478.147 44.1941 479.89 43.1844 481.665 42.1846L479.703 38.6991C477.899 39.7149 476.129 40.7407 474.393 41.7733L476.439 45.2107ZM486.942 39.2979C488.693 38.3676 490.473 37.4494 492.282 36.5459L490.494 32.9675C488.655 33.8862 486.845 34.8198 485.065 35.7654L486.942 39.2979ZM497.722 33.9155C499.515 33.0773 501.333 32.2554 503.176 31.4523L501.578 27.7853C499.702 28.6028 497.852 29.4392 496.028 30.2919L497.722 33.9155ZM508.747 29.1146C510.584 28.3731 512.444 27.6517 514.326 26.9526L512.934 23.203C511.016 23.9153 509.121 24.6501 507.25 25.4052L508.747 29.1146ZM520.005 24.9359C521.886 24.2984 523.787 23.6845 525.708 23.096L524.537 19.2714C522.577 19.8716 520.638 20.4977 518.721 21.1475L520.005 24.9359ZM531.485 21.4221C533.402 20.898 535.339 20.4004 537.293 19.9313L536.359 16.0418C534.364 16.5208 532.387 17.0287 530.43 17.5636L531.485 21.4221ZM543.154 18.6225C545.102 18.2203 547.066 17.8473 549.046 17.5054L548.366 13.5637C546.342 13.9132 544.335 14.2943 542.345 14.7051L543.154 18.6225ZM554.976 16.5828C556.945 16.3101 558.928 16.069 560.927 15.8611L560.513 11.8825C558.469 12.0952 556.44 12.3418 554.427 12.6207L554.976 16.5828ZM566.903 15.3431C568.884 15.2059 570.878 15.1022 572.885 15.0335L572.748 11.0358C570.694 11.1061 568.653 11.2123 566.626 11.3527L566.903 15.3431ZM578.885 14.9342C580.867 14.9365 582.86 14.9737 584.866 15.0474L585.012 11.0501C582.959 10.9747 580.918 10.9366 578.89 10.9342L578.885 14.9342ZM590.868 15.3756C592.839 15.5189 594.82 15.698 596.812 15.9143L597.244 11.9377C595.205 11.7162 593.176 11.5328 591.158 11.3861L590.868 15.3756ZM602.796 16.6736C604.743 16.9564 606.7 17.2753 608.666 17.6318L609.38 13.696C607.368 13.3311 605.364 13.0046 603.37 12.7151L602.796 16.6736ZM614.589 18.8152C616.51 19.2345 618.439 19.6903 620.376 20.1837L621.364 16.3075C619.382 15.8027 617.408 15.3363 615.442 14.9072L614.589 18.8152ZM626.18 21.7692C628.08 22.3233 629.987 22.9142 631.9 23.5429L633.149 19.7428C631.193 19.1001 629.243 18.4959 627.3 17.9292L626.18 21.7692ZM637.55 25.503C639.43 26.1899 641.316 26.9138 643.208 27.6759L644.702 23.9655C642.77 23.1873 640.844 22.4478 638.923 21.7459L637.55 25.503ZM648.672 29.9757C650.498 30.778 652.33 31.6162 654.166 32.4913L655.887 28.8802C654.013 27.9876 652.144 27.1323 650.28 26.3135L648.672 29.9757ZM659.534 35.1473C661.289 36.0479 663.048 36.9826 664.811 37.9521L666.738 34.447C664.942 33.4593 663.149 32.5067 661.361 31.5887L659.534 35.1473ZM670.113 40.966C671.798 41.956 673.488 42.9782 675.181 44.0334L677.297 40.6389C675.574 39.5652 673.855 38.5247 672.138 37.5167L670.113 40.966ZM680.24 47.2795C681.923 48.3897 683.608 49.533 685.297 50.7099L687.584 47.4283C685.868 46.2322 684.154 45.07 682.443 43.9409L680.24 47.2795ZM690.102 54.1446C691.706 55.32 693.313 56.5261 694.922 57.7635L697.361 54.5926C695.727 53.3365 694.096 52.1118 692.466 50.9179L690.102 54.1446ZM699.734 61.5512C701.251 62.7736 702.77 64.0241 704.291 65.3031L706.865 62.2418C705.323 60.9448 703.782 59.6765 702.243 58.4364L699.734 61.5512ZM708.859 69.2266C710.384 70.5633 711.91 71.929 713.438 73.3242L716.135 70.3706C714.587 68.9573 713.041 67.5736 711.496 66.219L708.859 69.2266ZM717.77 77.3567C719.206 78.7181 720.643 80.1057 722.081 81.5201L724.886 78.6683C723.431 77.237 721.976 75.8324 720.523 74.4542L717.77 77.3567Z" fill="#676C6C"/>
<path d="M424 495.631L445.984 502.703L428.867 518.206L424 495.631ZM731.558 494.245L732.944 492.803L735.828 495.575L734.442 497.017L731.558 494.245ZM431.619 500.677C432.894 501.921 434.357 503.316 436.002 504.833L433.29 507.773C431.617 506.23 430.126 504.809 428.824 503.539L431.619 500.677ZM440.486 508.865C441.915 510.118 443.439 511.427 445.055 512.778L442.488 515.846C440.848 514.474 439.3 513.145 437.848 511.872L440.486 508.865ZM449.72 516.593C451.246 517.812 452.837 519.056 454.492 520.318L452.066 523.498C450.387 522.217 448.772 520.955 447.224 519.718L449.72 516.593ZM459.356 523.943C460.93 525.09 462.554 526.246 464.224 527.406L461.942 530.691C460.247 529.514 458.599 528.34 457.001 527.177L459.356 523.943ZM469.217 530.792C470.876 531.89 472.575 532.987 474.314 534.081L472.185 537.467C470.419 536.356 468.694 535.242 467.01 534.128L469.217 530.792ZM479.413 537.205C481.121 538.225 482.863 539.238 484.638 540.24L482.671 543.723C480.867 542.704 479.097 541.675 477.362 540.64L479.413 537.205ZM489.914 543.136C491.665 544.069 493.445 544.99 495.254 545.896L493.462 549.473C491.622 548.551 489.812 547.614 488.032 546.666L489.914 543.136ZM500.694 548.535C502.487 549.376 504.305 550.201 506.149 551.007L504.547 554.672C502.67 553.851 500.82 553.012 498.995 552.157L500.694 548.535ZM511.72 553.352C513.558 554.096 515.418 554.82 517.301 555.522L515.904 559.27C513.986 558.555 512.091 557.818 510.219 557.06L511.72 553.352ZM522.98 557.545C524.862 558.185 526.763 558.801 528.685 559.392L527.51 563.215C525.55 562.613 523.611 561.985 521.693 561.333L522.98 557.545ZM534.464 561.072C536.382 561.598 538.319 562.097 540.274 562.568L539.338 566.457C537.342 565.976 535.364 565.466 533.406 564.93L534.464 561.072ZM546.139 563.882C548.087 564.286 550.052 564.66 552.033 565.003L551.35 568.945C549.326 568.594 547.318 568.211 545.327 567.799L546.139 563.882ZM557.966 565.929C559.936 566.203 561.92 566.445 563.92 566.654L563.504 570.632C561.459 570.419 559.429 570.171 557.415 569.891L557.966 565.929ZM569.899 567.174C571.881 567.312 573.877 567.416 575.885 567.485L575.747 571.482C573.692 571.412 571.65 571.305 569.622 571.164L569.899 567.174ZM581.889 567.584C583.872 567.582 585.866 567.544 587.873 567.47L588.02 571.468C585.966 571.543 583.923 571.582 581.893 571.584L581.889 567.584ZM593.878 567.141C595.85 566.997 597.833 566.817 599.826 566.6L600.259 570.576C598.219 570.799 596.189 570.983 594.169 571.13L593.878 567.141ZM605.813 565.837C607.761 565.553 609.719 565.233 611.686 564.875L612.402 568.81C610.389 569.177 608.384 569.505 606.389 569.795L605.813 565.837ZM617.612 563.687C619.534 563.266 621.463 562.808 623.401 562.313L624.392 566.189C622.409 566.695 620.435 567.163 618.468 567.594L617.612 563.687ZM629.208 560.721C631.108 560.165 633.015 559.572 634.929 558.941L636.181 562.74C634.225 563.385 632.275 563.992 630.331 564.56L629.208 560.721ZM640.58 556.974C642.46 556.285 644.346 555.558 646.239 554.794L647.737 558.502C645.805 559.283 643.878 560.025 641.957 560.729L640.58 556.974ZM651.703 552.486C653.53 551.68 655.362 550.839 657.199 549.961L658.924 553.57C657.05 554.466 655.181 555.324 653.316 556.146L651.703 552.486ZM662.565 547.297C664.32 546.393 666.079 545.456 667.842 544.483L669.774 547.985C667.978 548.976 666.185 549.932 664.396 550.853L662.565 547.297ZM673.144 541.459C674.829 540.467 676.517 539.442 678.209 538.384L680.33 541.775C678.608 542.852 676.89 543.895 675.174 544.906L673.144 541.459ZM683.268 535.128C684.949 534.015 686.634 532.869 688.321 531.689L690.613 534.967C688.898 536.166 687.186 537.331 685.476 538.463L683.268 535.128ZM693.125 528.245C694.729 527.066 696.335 525.857 697.943 524.616L700.386 527.783C698.754 529.043 697.123 530.271 695.494 531.468L693.125 528.245ZM702.751 520.819C704.268 519.594 705.786 518.34 707.306 517.058L709.885 520.116C708.344 521.416 706.804 522.687 705.266 523.93L702.751 520.819ZM711.872 513.125C713.395 511.785 714.921 510.416 716.447 509.018L719.149 511.967C717.603 513.384 716.057 514.771 714.513 516.129L711.872 513.125ZM720.776 504.977C722.211 503.613 723.647 502.222 725.084 500.805L727.893 503.653C726.439 505.087 724.985 506.495 723.533 507.876L720.776 504.977ZM729.398 496.472C730.118 495.736 730.838 494.994 731.558 494.245L734.442 497.017C733.714 497.774 732.986 498.525 732.258 499.269L729.398 496.472Z" fill="#676C6C"/>
</svg>
