<?xml version="1.0" encoding="UTF-8"?>
<svg width="906px" height="413px" viewBox="0 0 906 413" version="1.1" xmlns="http://www.w3.org/2000/svg" xmlns:xlink="http://www.w3.org/1999/xlink">
    <!-- Generator: Sketch 52.5 (67469) - http://www.bohemiancoding.com/sketch -->
    <title>Slice</title>
    <desc>Created with Sketch.</desc>
    <defs>
        <ellipse id="path-1" cx="459" cy="29" rx="138" ry="26"></ellipse>
        <mask id="mask-2" maskContentUnits="userSpaceOnUse" maskUnits="objectBoundingBox" x="-2" y="-2" width="280" height="56">
            <rect x="319" y="1" width="280" height="56" fill="white"></rect>
            <use xlink:href="#path-1" fill="black"></use>
        </mask>
    </defs>
    <g id="Page-1" stroke="none" stroke-width="1" fill="none" fill-rule="evenodd">
        <path d="M270.350586,242.061035 L265.569336,242.061035 L265.569336,247 L263.079102,247 L263.079102,234.914062 L270.948242,234.914062 L270.948242,236.931152 L265.569336,236.931152 L265.569336,240.052246 L270.350586,240.052246 L270.350586,242.061035 Z M277.065918,240.268066 C276.739419,240.223795 276.451661,240.20166 276.202637,240.20166 C275.29508,240.20166 274.700197,240.508786 274.417969,241.123047 L274.417969,247 L272.019043,247 L272.019043,238.018555 L274.285156,238.018555 L274.351562,239.089355 C274.83301,238.264807 275.499833,237.852539 276.352051,237.852539 C276.617677,237.852539 276.866698,237.888509 277.099121,237.960449 L277.065918,240.268066 Z M283.175293,247 C283.064615,246.784179 282.984375,246.515789 282.93457,246.194824 C282.353513,246.842288 281.598149,247.166016 280.668457,247.166016 C279.78857,247.166016 279.059492,246.911461 278.481201,246.402344 C277.902911,245.893227 277.61377,245.251306 277.61377,244.476562 C277.61377,243.524735 277.966549,242.794273 278.672119,242.285156 C279.377689,241.776039 280.397292,241.518717 281.730957,241.513184 L282.834961,241.513184 L282.834961,240.998535 C282.834961,240.583494 282.728435,240.251466 282.515381,240.002441 C282.302326,239.753417 281.966148,239.628906 281.506836,239.628906 C281.102863,239.628906 280.786053,239.725748 280.556396,239.919434 C280.32674,240.113119 280.211914,240.378742 280.211914,240.716309 L277.812988,240.716309 C277.812988,240.196124 277.973468,239.714683 278.294434,239.271973 C278.615399,238.829262 279.06917,238.482016 279.655762,238.230225 C280.242353,237.978433 280.900875,237.852539 281.631348,237.852539 C282.738124,237.852539 283.616615,238.130612 284.266846,238.686768 C284.917077,239.242923 285.242188,240.024572 285.242188,241.031738 L285.242188,244.924805 C285.247721,245.777022 285.366698,246.42171 285.599121,246.858887 L285.599121,247 L283.175293,247 Z M281.191406,245.331543 C281.545575,245.331543 281.872069,245.252686 282.170898,245.094971 C282.469728,244.937255 282.69108,244.725587 282.834961,244.459961 L282.834961,242.916016 L281.938477,242.916016 C280.737624,242.916016 280.09847,243.331051 280.020996,244.161133 L280.012695,244.302246 C280.012695,244.601076 280.117837,244.84733 280.328125,245.041016 C280.538413,245.234701 280.82617,245.331543 281.191406,245.331543 Z M289.334473,238.018555 L289.40918,239.022949 C290.045576,238.242672 290.906082,237.852539 291.990723,237.852539 C293.147304,237.852539 293.941404,238.309077 294.373047,239.222168 C295.003909,238.309077 295.903152,237.852539 297.070801,237.852539 C298.044764,237.852539 298.769692,238.136146 299.245605,238.703369 C299.721519,239.270592 299.959473,240.12418 299.959473,241.26416 L299.959473,247 L297.552246,247 L297.552246,241.272461 C297.552246,240.763344 297.452638,240.391196 297.253418,240.156006 C297.054198,239.920816 296.702802,239.803223 296.199219,239.803223 C295.479814,239.803223 294.981772,240.146318 294.705078,240.83252 L294.713379,247 L292.314453,247 L292.314453,241.280762 C292.314453,240.760577 292.212078,240.384279 292.007324,240.151855 C291.802571,239.919432 291.453941,239.803223 290.961426,239.803223 C290.280758,239.803223 289.78825,240.085446 289.483887,240.649902 L289.483887,247 L287.084961,247 L287.084961,238.018555 L289.334473,238.018555 Z M305.936035,247.166016 C304.618971,247.166016 303.546798,246.762048 302.719482,245.954102 C301.892167,245.146155 301.478516,244.069831 301.478516,242.725098 L301.478516,242.492676 C301.478516,241.590653 301.65283,240.784102 302.001465,240.072998 C302.350099,239.361894 302.843991,238.814048 303.483154,238.429443 C304.122318,238.044839 304.851396,237.852539 305.67041,237.852539 C306.898932,237.852539 307.865963,238.239905 308.571533,239.014648 C309.277103,239.789392 309.629883,240.887851 309.629883,242.310059 L309.629883,243.289551 L303.910645,243.289551 C303.988119,243.876142 304.221922,244.346515 304.612061,244.700684 C305.002199,245.054852 305.496091,245.231934 306.09375,245.231934 C307.017908,245.231934 307.740069,244.897139 308.260254,244.227539 L309.438965,245.547363 C309.079263,246.05648 308.592288,246.45353 307.978027,246.738525 C307.363766,247.02352 306.683109,247.166016 305.936035,247.166016 Z M305.662109,239.794922 C305.186196,239.794922 304.800213,239.955402 304.50415,240.276367 C304.208088,240.597332 304.018555,241.056638 303.935547,241.654297 L307.272461,241.654297 L307.272461,241.463379 C307.261393,240.932126 307.117514,240.521242 306.84082,240.230713 C306.564126,239.940184 306.171227,239.794922 305.662109,239.794922 Z" id="Frame-Copy" fill="#3D3D3D"></path>
        <path d="M125.079102,247 L125.079102,234.914062 L128.797852,234.914062 C129.860357,234.914062 130.810787,235.153399 131.64917,235.63208 C132.487553,236.110761 133.141925,236.791418 133.612305,237.674072 C134.082685,238.556726 134.317871,239.559727 134.317871,240.683105 L134.317871,241.239258 C134.317871,242.362636 134.086835,243.361487 133.624756,244.23584 C133.162677,245.110193 132.511072,245.788084 131.669922,246.269531 C130.828772,246.750979 129.879725,246.994466 128.822754,247 L125.079102,247 Z M127.569336,236.931152 L127.569336,244.999512 L128.772949,244.999512 C129.746912,244.999512 130.491208,244.681318 131.005859,244.044922 C131.52051,243.408525 131.783366,242.498216 131.794434,241.313965 L131.794434,240.674805 C131.794434,239.446283 131.539879,238.515221 131.030762,237.881592 C130.521645,237.247962 129.777349,236.931152 128.797852,236.931152 L127.569336,236.931152 Z M138.501465,247 L136.094238,247 L136.094238,238.018555 L138.501465,238.018555 L138.501465,247 Z M135.953125,235.694336 C135.953125,235.334634 136.073485,235.038575 136.314209,234.806152 C136.554933,234.573729 136.88281,234.45752 137.297852,234.45752 C137.707359,234.45752 138.033853,234.573729 138.277344,234.806152 C138.520835,235.038575 138.642578,235.334634 138.642578,235.694336 C138.642578,236.059572 138.519451,236.358397 138.273193,236.59082 C138.026936,236.823243 137.701825,236.939453 137.297852,236.939453 C136.893878,236.939453 136.568768,236.823243 136.32251,236.59082 C136.076252,236.358397 135.953125,236.059572 135.953125,235.694336 Z M145.341309,244.518066 C145.341309,244.224771 145.196046,243.993735 144.905518,243.824951 C144.614989,243.656168 144.148766,243.505372 143.506836,243.372559 C141.370758,242.924314 140.302734,242.016771 140.302734,240.649902 C140.302734,239.853023 140.633379,239.187584 141.294678,238.653564 C141.955977,238.119545 142.820633,237.852539 143.888672,237.852539 C145.028652,237.852539 145.940345,238.120928 146.623779,238.657715 C147.307214,239.194501 147.648926,239.89176 147.648926,240.749512 L145.25,240.749512 C145.25,240.406411 145.139324,240.122804 144.917969,239.898682 C144.696613,239.674559 144.350751,239.5625 143.880371,239.5625 C143.476398,239.5625 143.163738,239.653808 142.942383,239.836426 C142.721028,240.019044 142.610352,240.251463 142.610352,240.533691 C142.610352,240.799318 142.736245,241.013752 142.988037,241.177002 C143.239829,241.340251 143.664548,241.481363 144.262207,241.600342 C144.859866,241.71932 145.363442,241.853515 145.772949,242.00293 C147.040208,242.467776 147.673828,243.272943 147.673828,244.418457 C147.673828,245.237472 147.322432,245.900144 146.619629,246.406494 C145.916826,246.912844 145.009283,247.166016 143.896973,247.166016 C143.144365,247.166016 142.476159,247.031821 141.892334,246.763428 C141.308509,246.495034 140.850588,246.127037 140.518555,245.659424 C140.186522,245.191811 140.020508,244.686852 140.020508,244.144531 L142.294922,244.144531 C142.317057,244.57064 142.474771,244.897134 142.768066,245.124023 C143.061362,245.350913 143.454262,245.464355 143.946777,245.464355 C144.40609,245.464355 144.753335,245.377198 144.988525,245.202881 C145.223715,245.028564 145.341309,244.800294 145.341309,244.518066 Z M152.953125,245.231934 C153.395836,245.231934 153.755532,245.11019 154.032227,244.866699 C154.308921,244.623208 154.452799,244.299481 154.463867,243.895508 L156.713379,243.895508 C156.707845,244.504235 156.541831,245.061765 156.215332,245.568115 C155.888833,246.074465 155.441979,246.467365 154.874756,246.746826 C154.307533,247.026287 153.68083,247.166016 152.994629,247.166016 C151.710768,247.166016 150.698083,246.757898 149.956543,245.94165 C149.215003,245.125403 148.844238,243.997891 148.844238,242.559082 L148.844238,242.401367 C148.844238,241.017897 149.212236,239.913904 149.948242,239.089355 C150.684248,238.264807 151.694167,237.852539 152.978027,237.852539 C154.101405,237.852539 155.002031,238.172116 155.679932,238.811279 C156.357832,239.450443 156.702311,240.301264 156.713379,241.36377 L154.463867,241.36377 C154.452799,240.898923 154.308921,240.521242 154.032227,240.230713 C153.755532,239.940184 153.390302,239.794922 152.936523,239.794922 C152.377601,239.794922 151.955649,239.998289 151.670654,240.405029 C151.385659,240.81177 151.243164,241.471675 151.243164,242.384766 L151.243164,242.633789 C151.243164,243.557947 151.384276,244.222003 151.666504,244.625977 C151.948732,245.02995 152.377601,245.231934 152.953125,245.231934 Z M157.709473,242.42627 C157.709473,241.535315 157.88102,240.741214 158.224121,240.043945 C158.567222,239.346676 159.061113,238.807131 159.705811,238.425293 C160.350508,238.043455 161.098954,237.852539 161.951172,237.852539 C163.163092,237.852539 164.152259,238.223304 164.918701,238.964844 C165.685144,239.706384 166.11263,240.713535 166.201172,241.986328 L166.217773,242.600586 C166.217773,243.978523 165.833174,245.083899 165.063965,245.916748 C164.294755,246.749597 163.262702,247.166016 161.967773,247.166016 C160.672845,247.166016 159.639408,246.750981 158.867432,245.920898 C158.095455,245.090816 157.709473,243.961921 157.709473,242.53418 L157.709473,242.42627 Z M160.108398,242.600586 C160.108398,243.452804 160.268879,244.104409 160.589844,244.55542 C160.910809,245.006431 161.370114,245.231934 161.967773,245.231934 C162.548831,245.231934 163.002603,245.009198 163.329102,244.563721 C163.655601,244.118243 163.818848,243.405767 163.818848,242.42627 C163.818848,241.590653 163.655601,240.943199 163.329102,240.483887 C163.002603,240.024575 162.543297,239.794922 161.951172,239.794922 C161.36458,239.794922 160.910809,240.023191 160.589844,240.479736 C160.268879,240.936282 160.108398,241.643224 160.108398,242.600586 Z M170.932617,244.069824 L172.601074,238.018555 L175.10791,238.018555 L172.078125,247 L169.787109,247 L166.757324,238.018555 L169.26416,238.018555 L170.932617,244.069824 Z M180.187988,247.166016 C178.870924,247.166016 177.798751,246.762048 176.971436,245.954102 C176.14412,245.146155 175.730469,244.069831 175.730469,242.725098 L175.730469,242.492676 C175.730469,241.590653 175.904783,240.784102 176.253418,240.072998 C176.602053,239.361894 177.095944,238.814048 177.735107,238.429443 C178.374271,238.044839 179.103349,237.852539 179.922363,237.852539 C181.150885,237.852539 182.117916,238.239905 182.823486,239.014648 C183.529056,239.789392 183.881836,240.887851 183.881836,242.310059 L183.881836,243.289551 L178.162598,243.289551 C178.240072,243.876142 178.473875,244.346515 178.864014,244.700684 C179.254152,245.054852 179.748044,245.231934 180.345703,245.231934 C181.269861,245.231934 181.992022,244.897139 182.512207,244.227539 L183.690918,245.547363 C183.331216,246.05648 182.844241,246.45353 182.22998,246.738525 C181.61572,247.02352 180.935062,247.166016 180.187988,247.166016 Z M179.914062,239.794922 C179.438149,239.794922 179.052166,239.955402 178.756104,240.276367 C178.460041,240.597332 178.270508,241.056638 178.1875,241.654297 L181.524414,241.654297 L181.524414,241.463379 C181.513346,240.932126 181.369468,240.521242 181.092773,240.230713 C180.816079,239.940184 180.42318,239.794922 179.914062,239.794922 Z M190.290039,240.268066 C189.96354,240.223795 189.675782,240.20166 189.426758,240.20166 C188.519201,240.20166 187.924318,240.508786 187.64209,241.123047 L187.64209,247 L185.243164,247 L185.243164,238.018555 L187.509277,238.018555 L187.575684,239.089355 C188.057131,238.264807 188.723954,237.852539 189.576172,237.852539 C189.841798,237.852539 190.090819,237.888509 190.323242,237.960449 L190.290039,240.268066 Z" id="Discover-Copy" fill="#3D3D3D"></path>
        <path d="M564.727051,205 L562.236816,205 L562.236816,192.914062 L564.727051,192.914062 L564.727051,205 Z M566.503418,200.442871 C566.503418,199.042799 566.817461,197.927739 567.445557,197.097656 C568.073652,196.267574 568.932774,195.852539 570.022949,195.852539 C570.897303,195.852539 571.619463,196.179033 572.189453,196.832031 L572.189453,192.25 L574.59668,192.25 L574.59668,205 L572.430176,205 L572.313965,204.04541 C571.716306,204.792484 570.947108,205.166016 570.006348,205.166016 C568.949376,205.166016 568.101322,204.749597 567.462158,203.916748 C566.822995,203.083899 566.503418,201.925951 566.503418,200.442871 Z M568.902344,200.617188 C568.902344,201.458338 569.048989,202.103025 569.342285,202.55127 C569.635581,202.999514 570.061683,203.223633 570.620605,203.223633 C571.362146,203.223633 571.88509,202.910973 572.189453,202.285645 L572.189453,198.741211 C571.890624,198.115882 571.373213,197.803223 570.637207,197.803223 C569.480626,197.803223 568.902344,198.741202 568.902344,200.617188 Z M580.589844,205.166016 C579.27278,205.166016 578.200606,204.762048 577.373291,203.954102 C576.545976,203.146155 576.132324,202.069831 576.132324,200.725098 L576.132324,200.492676 C576.132324,199.590653 576.306639,198.784102 576.655273,198.072998 C577.003908,197.361894 577.4978,196.814048 578.136963,196.429443 C578.776126,196.044839 579.505204,195.852539 580.324219,195.852539 C581.552741,195.852539 582.519772,196.239905 583.225342,197.014648 C583.930912,197.789392 584.283691,198.887851 584.283691,200.310059 L584.283691,201.289551 L578.564453,201.289551 C578.641927,201.876142 578.87573,202.346515 579.265869,202.700684 C579.656008,203.054852 580.149899,203.231934 580.747559,203.231934 C581.671717,203.231934 582.393878,202.897139 582.914062,202.227539 L584.092773,203.547363 C583.733071,204.05648 583.246097,204.45353 582.631836,204.738525 C582.017575,205.02352 581.336918,205.166016 580.589844,205.166016 Z M580.315918,197.794922 C579.840004,197.794922 579.454022,197.955402 579.157959,198.276367 C578.861896,198.597332 578.672364,199.056638 578.589355,199.654297 L581.92627,199.654297 L581.92627,199.463379 C581.915202,198.932126 581.771323,198.521242 581.494629,198.230713 C581.217935,197.940184 580.825035,197.794922 580.315918,197.794922 Z M590.849609,205 C590.738932,204.784179 590.658692,204.515789 590.608887,204.194824 C590.027829,204.842288 589.272466,205.166016 588.342773,205.166016 C587.462886,205.166016 586.733808,204.911461 586.155518,204.402344 C585.577227,203.893227 585.288086,203.251306 585.288086,202.476562 C585.288086,201.524735 585.640866,200.794273 586.346436,200.285156 C587.052005,199.776039 588.071608,199.518717 589.405273,199.513184 L590.509277,199.513184 L590.509277,198.998535 C590.509277,198.583494 590.402752,198.251466 590.189697,198.002441 C589.976643,197.753417 589.640465,197.628906 589.181152,197.628906 C588.777179,197.628906 588.460369,197.725748 588.230713,197.919434 C588.001057,198.113119 587.88623,198.378742 587.88623,198.716309 L585.487305,198.716309 C585.487305,198.196124 585.647785,197.714683 585.96875,197.271973 C586.289715,196.829262 586.743487,196.482016 587.330078,196.230225 C587.91667,195.978433 588.575192,195.852539 589.305664,195.852539 C590.41244,195.852539 591.290931,196.130612 591.941162,196.686768 C592.591393,197.242923 592.916504,198.024572 592.916504,199.031738 L592.916504,202.924805 C592.922038,203.777022 593.041014,204.42171 593.273438,204.858887 L593.273438,205 L590.849609,205 Z M588.865723,203.331543 C589.219891,203.331543 589.546385,203.252686 589.845215,203.094971 C590.144044,202.937255 590.365396,202.725587 590.509277,202.459961 L590.509277,200.916016 L589.612793,200.916016 C588.411941,200.916016 587.772787,201.331051 587.695312,202.161133 L587.687012,202.302246 C587.687012,202.601076 587.792154,202.84733 588.002441,203.041016 C588.212729,203.234701 588.500486,203.331543 588.865723,203.331543 Z M597.631348,193.810547 L597.631348,196.018555 L599.166992,196.018555 L599.166992,197.77832 L597.631348,197.77832 L597.631348,202.260742 C597.631348,202.592775 597.694986,202.830728 597.822266,202.974609 C597.949545,203.11849 598.193032,203.19043 598.552734,203.19043 C598.818361,203.19043 599.053547,203.171061 599.258301,203.132324 L599.258301,204.950195 C598.787921,205.094076 598.303713,205.166016 597.805664,205.166016 C596.123364,205.166016 595.265625,204.316578 595.232422,202.617676 L595.232422,197.77832 L593.920898,197.77832 L593.920898,196.018555 L595.232422,196.018555 L595.232422,193.810547 L597.631348,193.810547 Z M604.637207,205.166016 C603.320143,205.166016 602.24797,204.762048 601.420654,203.954102 C600.593339,203.146155 600.179688,202.069831 600.179688,200.725098 L600.179688,200.492676 C600.179688,199.590653 600.354002,198.784102 600.702637,198.072998 C601.051271,197.361894 601.545163,196.814048 602.184326,196.429443 C602.82349,196.044839 603.552568,195.852539 604.371582,195.852539 C605.600104,195.852539 606.567135,196.239905 607.272705,197.014648 C607.978275,197.789392 608.331055,198.887851 608.331055,200.310059 L608.331055,201.289551 L602.611816,201.289551 C602.689291,201.876142 602.923094,202.346515 603.313232,202.700684 C603.703371,203.054852 604.197263,203.231934 604.794922,203.231934 C605.71908,203.231934 606.441241,202.897139 606.961426,202.227539 L608.140137,203.547363 C607.780434,204.05648 607.29346,204.45353 606.679199,204.738525 C606.064938,205.02352 605.384281,205.166016 604.637207,205.166016 Z M604.363281,197.794922 C603.887367,197.794922 603.501385,197.955402 603.205322,198.276367 C602.90926,198.597332 602.719727,199.056638 602.636719,199.654297 L605.973633,199.654297 L605.973633,199.463379 C605.962565,198.932126 605.818686,198.521242 605.541992,198.230713 C605.265298,197.940184 604.872398,197.794922 604.363281,197.794922 Z" id="Ideate-Copy" fill="#3D3D3D"></path>
        <path d="M655.079102,148 L655.079102,135.914062 L658.797852,135.914062 C659.860357,135.914062 660.810787,136.153399 661.64917,136.63208 C662.487553,137.110761 663.141925,137.791418 663.612305,138.674072 C664.082685,139.556726 664.317871,140.559727 664.317871,141.683105 L664.317871,142.239258 C664.317871,143.362636 664.086835,144.361487 663.624756,145.23584 C663.162677,146.110193 662.511072,146.788084 661.669922,147.269531 C660.828772,147.750979 659.879725,147.994466 658.822754,148 L655.079102,148 Z M657.569336,137.931152 L657.569336,145.999512 L658.772949,145.999512 C659.746912,145.999512 660.491208,145.681318 661.005859,145.044922 C661.52051,144.408525 661.783366,143.498216 661.794434,142.313965 L661.794434,141.674805 C661.794434,140.446283 661.539879,139.515221 661.030762,138.881592 C660.521645,138.247962 659.777349,137.931152 658.797852,137.931152 L657.569336,137.931152 Z M670.103516,148.166016 C668.786452,148.166016 667.714278,147.762048 666.886963,146.954102 C666.059648,146.146155 665.645996,145.069831 665.645996,143.725098 L665.645996,143.492676 C665.645996,142.590653 665.820311,141.784102 666.168945,141.072998 C666.51758,140.361894 667.011471,139.814048 667.650635,139.429443 C668.289798,139.044839 669.018876,138.852539 669.837891,138.852539 C671.066412,138.852539 672.033444,139.239905 672.739014,140.014648 C673.444584,140.789392 673.797363,141.887851 673.797363,143.310059 L673.797363,144.289551 L668.078125,144.289551 C668.155599,144.876142 668.389402,145.346515 668.779541,145.700684 C669.16968,146.054852 669.663571,146.231934 670.26123,146.231934 C671.185389,146.231934 671.907549,145.897139 672.427734,145.227539 L673.606445,146.547363 C673.246743,147.05648 672.759769,147.45353 672.145508,147.738525 C671.531247,148.02352 670.85059,148.166016 670.103516,148.166016 Z M669.82959,140.794922 C669.353676,140.794922 668.967694,140.955402 668.671631,141.276367 C668.375568,141.597332 668.186036,142.056638 668.103027,142.654297 L671.439941,142.654297 L671.439941,142.463379 C671.428874,141.932126 671.284995,141.521242 671.008301,141.230713 C670.731607,140.940184 670.338707,140.794922 669.82959,140.794922 Z M680.022949,145.518066 C680.022949,145.224771 679.877687,144.993735 679.587158,144.824951 C679.296629,144.656168 678.830407,144.505372 678.188477,144.372559 C676.052398,143.924314 674.984375,143.016771 674.984375,141.649902 C674.984375,140.853023 675.315019,140.187584 675.976318,139.653564 C676.637617,139.119545 677.502273,138.852539 678.570312,138.852539 C679.710292,138.852539 680.621986,139.120928 681.30542,139.657715 C681.988854,140.194501 682.330566,140.89176 682.330566,141.749512 L679.931641,141.749512 C679.931641,141.406411 679.820965,141.122804 679.599609,140.898682 C679.378254,140.674559 679.032392,140.5625 678.562012,140.5625 C678.158038,140.5625 677.845379,140.653808 677.624023,140.836426 C677.402668,141.019044 677.291992,141.251463 677.291992,141.533691 C677.291992,141.799318 677.417886,142.013752 677.669678,142.177002 C677.921469,142.340251 678.346188,142.481363 678.943848,142.600342 C679.541507,142.71932 680.045083,142.853515 680.45459,143.00293 C681.721849,143.467776 682.355469,144.272943 682.355469,145.418457 C682.355469,146.237472 682.004073,146.900144 681.30127,147.406494 C680.598467,147.912844 679.690924,148.166016 678.578613,148.166016 C677.826005,148.166016 677.157799,148.031821 676.573975,147.763428 C675.99015,147.495034 675.532228,147.127037 675.200195,146.659424 C674.868162,146.191811 674.702148,145.686852 674.702148,145.144531 L676.976562,145.144531 C676.998698,145.57064 677.156411,145.897134 677.449707,146.124023 C677.743003,146.350913 678.135902,146.464355 678.628418,146.464355 C679.08773,146.464355 679.434976,146.377198 679.670166,146.202881 C679.905356,146.028564 680.022949,145.800294 680.022949,145.518066 Z M686.431152,148 L684.023926,148 L684.023926,139.018555 L686.431152,139.018555 L686.431152,148 Z M683.882812,136.694336 C683.882812,136.334634 684.003173,136.038575 684.243896,135.806152 C684.48462,135.573729 684.812498,135.45752 685.227539,135.45752 C685.637046,135.45752 685.96354,135.573729 686.207031,135.806152 C686.450522,136.038575 686.572266,136.334634 686.572266,136.694336 C686.572266,137.059572 686.449139,137.358397 686.202881,137.59082 C685.956623,137.823243 685.631512,137.939453 685.227539,137.939453 C684.823566,137.939453 684.498455,137.823243 684.252197,137.59082 C684.00594,137.358397 683.882812,137.059572 683.882812,136.694336 Z M688.058105,143.442871 C688.058105,142.064935 688.385983,140.955408 689.041748,140.114258 C689.697513,139.273108 690.581537,138.852539 691.693848,138.852539 C692.678879,138.852539 693.44531,139.190101 693.993164,139.865234 L694.092773,139.018555 L696.267578,139.018555 L696.267578,147.701172 C696.267578,148.486983 696.089113,149.170407 695.732178,149.751465 C695.375242,150.332522 694.87305,150.775226 694.225586,151.07959 C693.578122,151.383953 692.819991,151.536133 691.951172,151.536133 C691.29264,151.536133 690.650719,151.404705 690.025391,151.141846 C689.400062,150.878986 688.926922,150.540041 688.605957,150.125 L689.668457,148.664062 C690.266116,149.333662 690.991044,149.668457 691.843262,149.668457 C692.479658,149.668457 692.974933,149.498293 693.329102,149.157959 C693.68327,148.817625 693.860352,148.334801 693.860352,147.709473 L693.860352,147.228027 C693.306963,147.853356 692.579269,148.166016 691.677246,148.166016 C690.598139,148.166016 689.725182,147.744063 689.05835,146.900146 C688.391517,146.05623 688.058105,144.937019 688.058105,143.54248 L688.058105,143.442871 Z M690.457031,143.617188 C690.457031,144.430668 690.620278,145.068438 690.946777,145.530518 C691.273276,145.992597 691.721514,146.223633 692.291504,146.223633 C693.021976,146.223633 693.54492,145.94971 693.860352,145.401855 L693.860352,141.625 C693.539386,141.077146 693.021976,140.803223 692.308105,140.803223 C691.732582,140.803223 691.280194,141.038409 690.950928,141.508789 C690.621662,141.979169 690.457031,142.681961 690.457031,143.617188 Z M700.318359,139.018555 L700.393066,140.056152 C701.034997,139.253739 701.895502,138.852539 702.974609,138.852539 C703.926437,138.852539 704.634763,139.131996 705.099609,139.690918 C705.564455,140.24984 705.802409,141.085444 705.813477,142.197754 L705.813477,148 L703.414551,148 L703.414551,142.255859 C703.414551,141.746742 703.303875,141.377361 703.08252,141.147705 C702.861164,140.918049 702.493167,140.803223 701.978516,140.803223 C701.303382,140.803223 700.797039,141.09098 700.459473,141.666504 L700.459473,148 L698.060547,148 L698.060547,139.018555 L700.318359,139.018555 Z" id="Design-Copy" fill="#3D3D3D"></path>
        <path d="M771.566895,204.974121 C771.472819,206.274583 770.992761,207.298336 770.126709,208.04541 C769.260656,208.792484 768.11931,209.166016 766.702637,209.166016 C765.15315,209.166016 763.934331,208.644455 763.046143,207.601318 C762.157955,206.558182 761.713867,205.126311 761.713867,203.305664 L761.713867,202.566895 C761.713867,201.404779 761.918618,200.381027 762.328125,199.495605 C762.737632,198.610184 763.322831,197.930911 764.08374,197.457764 C764.844649,196.984617 765.728673,196.748047 766.73584,196.748047 C768.130378,196.748047 769.253739,197.121578 770.105957,197.868652 C770.958175,198.615726 771.450683,199.664381 771.583496,201.014648 L769.093262,201.014648 C769.032389,200.234371 768.815187,199.66854 768.44165,199.317139 C768.068113,198.965737 767.499516,198.790039 766.73584,198.790039 C765.905758,198.790039 765.284589,199.087481 764.872314,199.682373 C764.46004,200.277265 764.248372,201.200026 764.237305,202.450684 L764.237305,203.36377 C764.237305,204.669766 764.435138,205.624346 764.830811,206.227539 C765.226483,206.830732 765.850419,207.132324 766.702637,207.132324 C767.471846,207.132324 768.045978,206.956626 768.425049,206.605225 C768.80412,206.253823 769.021321,205.710127 769.07666,204.974121 L771.566895,204.974121 Z M778.091309,202.268066 C777.76481,202.223795 777.477052,202.20166 777.228027,202.20166 C776.320471,202.20166 775.725587,202.508786 775.443359,203.123047 L775.443359,209 L773.044434,209 L773.044434,200.018555 L775.310547,200.018555 L775.376953,201.089355 C775.858401,200.264807 776.525224,199.852539 777.377441,199.852539 C777.643068,199.852539 777.892089,199.888509 778.124512,199.960449 L778.091309,202.268066 Z M783.221191,209.166016 C781.904128,209.166016 780.831954,208.762048 780.004639,207.954102 C779.177323,207.146155 778.763672,206.069831 778.763672,204.725098 L778.763672,204.492676 C778.763672,203.590653 778.937987,202.784102 779.286621,202.072998 C779.635256,201.361894 780.129147,200.814048 780.768311,200.429443 C781.407474,200.044839 782.136552,199.852539 782.955566,199.852539 C784.184088,199.852539 785.15112,200.239905 785.856689,201.014648 C786.562259,201.789392 786.915039,202.887851 786.915039,204.310059 L786.915039,205.289551 L781.195801,205.289551 C781.273275,205.876142 781.507078,206.346515 781.897217,206.700684 C782.287355,207.054852 782.781247,207.231934 783.378906,207.231934 C784.303065,207.231934 785.025225,206.897139 785.54541,206.227539 L786.724121,207.547363 C786.364419,208.05648 785.877444,208.45353 785.263184,208.738525 C784.648923,209.02352 783.968265,209.166016 783.221191,209.166016 Z M782.947266,201.794922 C782.471352,201.794922 782.085369,201.955402 781.789307,202.276367 C781.493244,202.597332 781.303711,203.056638 781.220703,203.654297 L784.557617,203.654297 L784.557617,203.463379 C784.546549,202.932126 784.402671,202.521242 784.125977,202.230713 C783.849282,201.940184 783.456383,201.794922 782.947266,201.794922 Z M793.480957,209 C793.370279,208.784179 793.290039,208.515789 793.240234,208.194824 C792.659177,208.842288 791.903813,209.166016 790.974121,209.166016 C790.094234,209.166016 789.365156,208.911461 788.786865,208.402344 C788.208575,207.893227 787.919434,207.251306 787.919434,206.476562 C787.919434,205.524735 788.272213,204.794273 788.977783,204.285156 C789.683353,203.776039 790.702956,203.518717 792.036621,203.513184 L793.140625,203.513184 L793.140625,202.998535 C793.140625,202.583494 793.034099,202.251466 792.821045,202.002441 C792.60799,201.753417 792.271812,201.628906 791.8125,201.628906 C791.408527,201.628906 791.091717,201.725748 790.862061,201.919434 C790.632404,202.113119 790.517578,202.378742 790.517578,202.716309 L788.118652,202.716309 C788.118652,202.196124 788.279133,201.714683 788.600098,201.271973 C788.921063,200.829262 789.374834,200.482016 789.961426,200.230225 C790.548017,199.978433 791.206539,199.852539 791.937012,199.852539 C793.043788,199.852539 793.922279,200.130612 794.57251,200.686768 C795.222741,201.242923 795.547852,202.024572 795.547852,203.031738 L795.547852,206.924805 C795.553385,207.777022 795.672362,208.42171 795.904785,208.858887 L795.904785,209 L793.480957,209 Z M791.49707,207.331543 C791.851239,207.331543 792.177733,207.252686 792.476562,207.094971 C792.775392,206.937255 792.996744,206.725587 793.140625,206.459961 L793.140625,204.916016 L792.244141,204.916016 C791.043288,204.916016 790.404135,205.331051 790.32666,206.161133 L790.318359,206.302246 C790.318359,206.601076 790.423502,206.84733 790.633789,207.041016 C790.844077,207.234701 791.131834,207.331543 791.49707,207.331543 Z M800.262695,197.810547 L800.262695,200.018555 L801.79834,200.018555 L801.79834,201.77832 L800.262695,201.77832 L800.262695,206.260742 C800.262695,206.592775 800.326334,206.830728 800.453613,206.974609 C800.580893,207.11849 800.82438,207.19043 801.184082,207.19043 C801.449708,207.19043 801.684895,207.171061 801.889648,207.132324 L801.889648,208.950195 C801.419268,209.094076 800.935061,209.166016 800.437012,209.166016 C798.754712,209.166016 797.896973,208.316578 797.86377,206.617676 L797.86377,201.77832 L796.552246,201.77832 L796.552246,200.018555 L797.86377,200.018555 L797.86377,197.810547 L800.262695,197.810547 Z M807.268555,209.166016 C805.951491,209.166016 804.879317,208.762048 804.052002,207.954102 C803.224687,207.146155 802.811035,206.069831 802.811035,204.725098 L802.811035,204.492676 C802.811035,203.590653 802.98535,202.784102 803.333984,202.072998 C803.682619,201.361894 804.17651,200.814048 804.815674,200.429443 C805.454837,200.044839 806.183915,199.852539 807.00293,199.852539 C808.231451,199.852539 809.198483,200.239905 809.904053,201.014648 C810.609623,201.789392 810.962402,202.887851 810.962402,204.310059 L810.962402,205.289551 L805.243164,205.289551 C805.320638,205.876142 805.554441,206.346515 805.94458,206.700684 C806.334719,207.054852 806.82861,207.231934 807.42627,207.231934 C808.350428,207.231934 809.072589,206.897139 809.592773,206.227539 L810.771484,207.547363 C810.411782,208.05648 809.924808,208.45353 809.310547,208.738525 C808.696286,209.02352 808.015629,209.166016 807.268555,209.166016 Z M806.994629,201.794922 C806.518715,201.794922 806.132733,201.955402 805.83667,202.276367 C805.540607,202.597332 805.351075,203.056638 805.268066,203.654297 L808.60498,203.654297 L808.60498,203.463379 C808.593913,202.932126 808.450034,202.521242 808.17334,202.230713 C807.896646,201.940184 807.503746,201.794922 806.994629,201.794922 Z" id="Create-Copy" fill="#3D3D3D"></path>
        <path d="M762.902344,277.509766 L758.536133,277.509766 L757.706055,280 L755.058105,280 L759.557129,267.914062 L761.864746,267.914062 L766.388672,280 L763.740723,280 L762.902344,277.509766 Z M759.208496,275.492676 L762.22998,275.492676 L760.710938,270.96875 L759.208496,275.492676 Z M771.095215,278.231934 C771.537925,278.231934 771.897622,278.11019 772.174316,277.866699 C772.45101,277.623208 772.594889,277.299481 772.605957,276.895508 L774.855469,276.895508 C774.849935,277.504235 774.683921,278.061765 774.357422,278.568115 C774.030923,279.074465 773.584069,279.467365 773.016846,279.746826 C772.449623,280.026287 771.82292,280.166016 771.136719,280.166016 C769.852858,280.166016 768.840173,279.757898 768.098633,278.94165 C767.357093,278.125403 766.986328,276.997891 766.986328,275.559082 L766.986328,275.401367 C766.986328,274.017897 767.354326,272.913904 768.090332,272.089355 C768.826338,271.264807 769.836257,270.852539 771.120117,270.852539 C772.243495,270.852539 773.144121,271.172116 773.822021,271.811279 C774.499922,272.450443 774.844401,273.301264 774.855469,274.36377 L772.605957,274.36377 C772.594889,273.898923 772.45101,273.521242 772.174316,273.230713 C771.897622,272.940184 771.532392,272.794922 771.078613,272.794922 C770.519691,272.794922 770.097739,272.998289 769.812744,273.405029 C769.527749,273.81177 769.385254,274.471675 769.385254,275.384766 L769.385254,275.633789 C769.385254,276.557947 769.526366,277.222003 769.808594,277.625977 C770.090822,278.02995 770.519691,278.231934 771.095215,278.231934 Z M779.097168,268.810547 L779.097168,271.018555 L780.632812,271.018555 L780.632812,272.77832 L779.097168,272.77832 L779.097168,277.260742 C779.097168,277.592775 779.160807,277.830728 779.288086,277.974609 C779.415365,278.11849 779.658852,278.19043 780.018555,278.19043 C780.284181,278.19043 780.519367,278.171061 780.724121,278.132324 L780.724121,279.950195 C780.253741,280.094076 779.769534,280.166016 779.271484,280.166016 C777.589184,280.166016 776.731445,279.316578 776.698242,277.617676 L776.698242,272.77832 L775.386719,272.77832 L775.386719,271.018555 L776.698242,271.018555 L776.698242,268.810547 L779.097168,268.810547 Z M784.500977,280 L782.09375,280 L782.09375,271.018555 L784.500977,271.018555 L784.500977,280 Z M781.952637,268.694336 C781.952637,268.334634 782.072997,268.038575 782.313721,267.806152 C782.554445,267.573729 782.882322,267.45752 783.297363,267.45752 C783.706871,267.45752 784.033365,267.573729 784.276855,267.806152 C784.520346,268.038575 784.64209,268.334634 784.64209,268.694336 C784.64209,269.059572 784.518963,269.358397 784.272705,269.59082 C784.026447,269.823243 783.701337,269.939453 783.297363,269.939453 C782.89339,269.939453 782.568279,269.823243 782.322021,269.59082 C782.075764,269.358397 781.952637,269.059572 781.952637,268.694336 Z M789.838379,277.069824 L791.506836,271.018555 L794.013672,271.018555 L790.983887,280 L788.692871,280 L785.663086,271.018555 L788.169922,271.018555 L789.838379,277.069824 Z M800.147949,280 C800.037272,279.784179 799.957031,279.515789 799.907227,279.194824 C799.326169,279.842288 798.570805,280.166016 797.641113,280.166016 C796.761226,280.166016 796.032148,279.911461 795.453857,279.402344 C794.875567,278.893227 794.586426,278.251306 794.586426,277.476562 C794.586426,276.524735 794.939205,275.794273 795.644775,275.285156 C796.350345,274.776039 797.369948,274.518717 798.703613,274.513184 L799.807617,274.513184 L799.807617,273.998535 C799.807617,273.583494 799.701092,273.251466 799.488037,273.002441 C799.274983,272.753417 798.938804,272.628906 798.479492,272.628906 C798.075519,272.628906 797.758709,272.725748 797.529053,272.919434 C797.299397,273.113119 797.18457,273.378742 797.18457,273.716309 L794.785645,273.716309 C794.785645,273.196124 794.946125,272.714683 795.26709,272.271973 C795.588055,271.829262 796.041826,271.482016 796.628418,271.230225 C797.215009,270.978433 797.873532,270.852539 798.604004,270.852539 C799.71078,270.852539 800.589271,271.130612 801.239502,271.686768 C801.889733,272.242923 802.214844,273.024572 802.214844,274.031738 L802.214844,277.924805 C802.220378,278.777022 802.339354,279.42171 802.571777,279.858887 L802.571777,280 L800.147949,280 Z M798.164062,278.331543 C798.518231,278.331543 798.844725,278.252686 799.143555,278.094971 C799.442384,277.937255 799.663736,277.725587 799.807617,277.459961 L799.807617,275.916016 L798.911133,275.916016 C797.71028,275.916016 797.071127,276.331051 796.993652,277.161133 L796.985352,277.302246 C796.985352,277.601076 797.090494,277.84733 797.300781,278.041016 C797.511069,278.234701 797.798826,278.331543 798.164062,278.331543 Z M806.929688,268.810547 L806.929688,271.018555 L808.465332,271.018555 L808.465332,272.77832 L806.929688,272.77832 L806.929688,277.260742 C806.929688,277.592775 806.993326,277.830728 807.120605,277.974609 C807.247885,278.11849 807.491372,278.19043 807.851074,278.19043 C808.116701,278.19043 808.351887,278.171061 808.556641,278.132324 L808.556641,279.950195 C808.086261,280.094076 807.602053,280.166016 807.104004,280.166016 C805.421704,280.166016 804.563965,279.316578 804.530762,277.617676 L804.530762,272.77832 L803.219238,272.77832 L803.219238,271.018555 L804.530762,271.018555 L804.530762,268.810547 L806.929688,268.810547 Z M813.935547,280.166016 C812.618483,280.166016 811.546309,279.762048 810.718994,278.954102 C809.891679,278.146155 809.478027,277.069831 809.478027,275.725098 L809.478027,275.492676 C809.478027,274.590653 809.652342,273.784102 810.000977,273.072998 C810.349611,272.361894 810.843503,271.814048 811.482666,271.429443 C812.121829,271.044839 812.850907,270.852539 813.669922,270.852539 C814.898444,270.852539 815.865475,271.239905 816.571045,272.014648 C817.276615,272.789392 817.629395,273.887851 817.629395,275.310059 L817.629395,276.289551 L811.910156,276.289551 C811.987631,276.876142 812.221434,277.346515 812.611572,277.700684 C813.001711,278.054852 813.495602,278.231934 814.093262,278.231934 C815.01742,278.231934 815.739581,277.897139 816.259766,277.227539 L817.438477,278.547363 C817.078774,279.05648 816.5918,279.45353 815.977539,279.738525 C815.363278,280.02352 814.682621,280.166016 813.935547,280.166016 Z M813.661621,272.794922 C813.185707,272.794922 812.799725,272.955402 812.503662,273.276367 C812.207599,273.597332 812.018067,274.056638 811.935059,274.654297 L815.271973,274.654297 L815.271973,274.463379 C815.260905,273.932126 815.117026,273.521242 814.840332,273.230713 C814.563638,272.940184 814.170738,272.794922 813.661621,272.794922 Z" id="Activate-Copy" fill="#3D3D3D"></path>
        <path d="M225.906638,73.5 L226.5,413.43819" id="Line-Copy" stroke="#BFBFBF" stroke-linecap="square" stroke-dasharray="2" fill-rule="nonzero"></path>
        <path d="M604.5,355 L747,129.5" id="Line-2-Copy" stroke="#BFBFBF" stroke-linecap="square" stroke-dasharray="2" fill-rule="nonzero"></path>
        <path d="M897,244 L461,242" id="Line-6-Copy" stroke="#BFBFBF" stroke-linecap="square" stroke-dasharray="2" fill-rule="nonzero"></path>
        <path d="M749.5,354.5 L605,135.5" id="Line-7-Copy" stroke="#BFBFBF" stroke-linecap="square" stroke-dasharray="2" fill-rule="nonzero"></path>
        <path d="M659.569336,345.999512 L664.856934,345.999512 L664.856934,348 L657.079102,348 L657.079102,335.914062 L659.569336,335.914062 L659.569336,345.999512 Z M670.260742,348.166016 C668.943678,348.166016 667.871505,347.762048 667.044189,346.954102 C666.216874,346.146155 665.803223,345.069831 665.803223,343.725098 L665.803223,343.492676 C665.803223,342.590653 665.977537,341.784102 666.326172,341.072998 C666.674806,340.361894 667.168698,339.814048 667.807861,339.429443 C668.447025,339.044839 669.176103,338.852539 669.995117,338.852539 C671.223639,338.852539 672.19067,339.239905 672.89624,340.014648 C673.60181,340.789392 673.95459,341.887851 673.95459,343.310059 L673.95459,344.289551 L668.235352,344.289551 C668.312826,344.876142 668.546629,345.346515 668.936768,345.700684 C669.326906,346.054852 669.820798,346.231934 670.418457,346.231934 C671.342615,346.231934 672.064776,345.897139 672.584961,345.227539 L673.763672,346.547363 C673.40397,347.05648 672.916995,347.45353 672.302734,347.738525 C671.688473,348.02352 671.007816,348.166016 670.260742,348.166016 Z M669.986816,340.794922 C669.510903,340.794922 669.12492,340.955402 668.828857,341.276367 C668.532795,341.597332 668.343262,342.056638 668.260254,342.654297 L671.597168,342.654297 L671.597168,342.463379 C671.5861,341.932126 671.442221,341.521242 671.165527,341.230713 C670.888833,340.940184 670.495934,340.794922 669.986816,340.794922 Z M680.520508,348 C680.40983,347.784179 680.32959,347.515789 680.279785,347.194824 C679.698728,347.842288 678.943364,348.166016 678.013672,348.166016 C677.133785,348.166016 676.404707,347.911461 675.826416,347.402344 C675.248125,346.893227 674.958984,346.251306 674.958984,345.476562 C674.958984,344.524735 675.311764,343.794273 676.017334,343.285156 C676.722904,342.776039 677.742506,342.518717 679.076172,342.513184 L680.180176,342.513184 L680.180176,341.998535 C680.180176,341.583494 680.07365,341.251466 679.860596,341.002441 C679.647541,340.753417 679.311363,340.628906 678.852051,340.628906 C678.448077,340.628906 678.131267,340.725748 677.901611,340.919434 C677.671955,341.113119 677.557129,341.378742 677.557129,341.716309 L675.158203,341.716309 C675.158203,341.196124 675.318683,340.714683 675.639648,340.271973 C675.960614,339.829262 676.414385,339.482016 677.000977,339.230225 C677.587568,338.978433 678.24609,338.852539 678.976562,338.852539 C680.083339,338.852539 680.961829,339.130612 681.612061,339.686768 C682.262292,340.242923 682.587402,341.024572 682.587402,342.031738 L682.587402,345.924805 C682.592936,346.777022 682.711913,347.42171 682.944336,347.858887 L682.944336,348 L680.520508,348 Z M678.536621,346.331543 C678.89079,346.331543 679.217284,346.252686 679.516113,346.094971 C679.814943,345.937255 680.036295,345.725587 680.180176,345.459961 L680.180176,343.916016 L679.283691,343.916016 C678.082839,343.916016 677.443685,344.331051 677.366211,345.161133 L677.35791,345.302246 C677.35791,345.601076 677.463052,345.84733 677.67334,346.041016 C677.883627,346.234701 678.171385,346.331543 678.536621,346.331543 Z M689.477051,341.268066 C689.150552,341.223795 688.862794,341.20166 688.61377,341.20166 C687.706213,341.20166 687.11133,341.508786 686.829102,342.123047 L686.829102,348 L684.430176,348 L684.430176,339.018555 L686.696289,339.018555 L686.762695,340.089355 C687.244143,339.264807 687.910966,338.852539 688.763184,338.852539 C689.02881,338.852539 689.277831,338.888509 689.510254,338.960449 L689.477051,341.268066 Z M692.838867,339.018555 L692.913574,340.056152 C693.555505,339.253739 694.41601,338.852539 695.495117,338.852539 C696.446945,338.852539 697.155271,339.131996 697.620117,339.690918 C698.084963,340.24984 698.322917,341.085444 698.333984,342.197754 L698.333984,348 L695.935059,348 L695.935059,342.255859 C695.935059,341.746742 695.824383,341.377361 695.603027,341.147705 C695.381672,340.918049 695.013674,340.803223 694.499023,340.803223 C693.82389,340.803223 693.317547,341.09098 692.97998,341.666504 L692.97998,348 L690.581055,348 L690.581055,339.018555 L692.838867,339.018555 Z" id="Learn-Copy" fill="#3D3D3D"></path>
        <path d="M564.006836,274.230957 C564.006836,275.420742 563.796552,276.463863 563.375977,277.360352 C562.955402,278.25684 562.353601,278.948565 561.570557,279.435547 C560.787512,279.922528 559.889654,280.166016 558.876953,280.166016 C557.875321,280.166016 556.981612,279.925295 556.195801,279.443848 C555.40999,278.9624 554.801272,278.274825 554.369629,277.381104 C553.937986,276.487382 553.719401,275.459478 553.713867,274.297363 L553.713867,273.699707 C553.713867,272.509922 553.928302,271.462651 554.357178,270.557861 C554.786054,269.653072 555.392005,268.95858 556.175049,268.474365 C556.958093,267.990151 557.853185,267.748047 558.860352,267.748047 C559.867518,267.748047 560.76261,267.990151 561.545654,268.474365 C562.328699,268.95858 562.93465,269.653072 563.363525,270.557861 C563.792401,271.462651 564.006836,272.507156 564.006836,273.691406 L564.006836,274.230957 Z M561.483398,273.683105 C561.483398,272.415847 561.256513,271.452966 560.802734,270.794434 C560.348956,270.135902 559.701502,269.806641 558.860352,269.806641 C558.024735,269.806641 557.380048,270.131751 556.92627,270.781982 C556.472491,271.432214 556.242839,272.38541 556.237305,273.641602 L556.237305,274.230957 C556.237305,275.465013 556.46419,276.42236 556.917969,277.103027 C557.371747,277.783695 558.024735,278.124023 558.876953,278.124023 C559.712569,278.124023 560.35449,277.796146 560.802734,277.140381 C561.250979,276.484616 561.477865,275.528652 561.483398,274.272461 L561.483398,273.683105 Z M573.743652,275.592285 C573.743652,276.975756 573.429609,278.083899 572.801514,278.916748 C572.173418,279.749597 571.325363,280.166016 570.257324,280.166016 C569.349768,280.166016 568.616539,279.850589 568.057617,279.219727 L568.057617,283.453125 L565.658691,283.453125 L565.658691,271.018555 L567.883301,271.018555 L567.966309,271.898438 C568.547366,271.201168 569.305497,270.852539 570.240723,270.852539 C571.347499,270.852539 572.208005,271.26204 572.822266,272.081055 C573.436527,272.900069 573.743652,274.028964 573.743652,275.467773 L573.743652,275.592285 Z M571.344727,275.417969 C571.344727,274.582353 571.196697,273.937665 570.900635,273.483887 C570.604572,273.030108 570.174319,272.803223 569.609863,272.803223 C568.857255,272.803223 568.339845,273.09098 568.057617,273.666504 L568.057617,277.34375 C568.350913,277.935875 568.873857,278.231934 569.626465,278.231934 C570.771978,278.231934 571.344727,277.293955 571.344727,275.417969 Z M578.101562,268.810547 L578.101562,271.018555 L579.637207,271.018555 L579.637207,272.77832 L578.101562,272.77832 L578.101562,277.260742 C578.101562,277.592775 578.165201,277.830728 578.29248,277.974609 C578.41976,278.11849 578.663247,278.19043 579.022949,278.19043 C579.288576,278.19043 579.523762,278.171061 579.728516,278.132324 L579.728516,279.950195 C579.258136,280.094076 578.773928,280.166016 578.275879,280.166016 C576.593579,280.166016 575.73584,279.316578 575.702637,277.617676 L575.702637,272.77832 L574.391113,272.77832 L574.391113,271.018555 L575.702637,271.018555 L575.702637,268.810547 L578.101562,268.810547 Z M583.505371,280 L581.098145,280 L581.098145,271.018555 L583.505371,271.018555 L583.505371,280 Z M580.957031,268.694336 C580.957031,268.334634 581.077391,268.038575 581.318115,267.806152 C581.558839,267.573729 581.886717,267.45752 582.301758,267.45752 C582.711265,267.45752 583.037759,267.573729 583.28125,267.806152 C583.524741,268.038575 583.646484,268.334634 583.646484,268.694336 C583.646484,269.059572 583.523357,269.358397 583.2771,269.59082 C583.030842,269.823243 582.705731,269.939453 582.301758,269.939453 C581.897784,269.939453 581.572674,269.823243 581.326416,269.59082 C581.080158,269.358397 580.957031,269.059572 580.957031,268.694336 Z M587.730469,271.018555 L587.805176,272.022949 C588.441572,271.242672 589.302078,270.852539 590.386719,270.852539 C591.5433,270.852539 592.3374,271.309077 592.769043,272.222168 C593.399905,271.309077 594.299148,270.852539 595.466797,270.852539 C596.44076,270.852539 597.165688,271.136146 597.641602,271.703369 C598.117515,272.270592 598.355469,273.12418 598.355469,274.26416 L598.355469,280 L595.948242,280 L595.948242,274.272461 C595.948242,273.763344 595.848634,273.391196 595.649414,273.156006 C595.450194,272.920816 595.098798,272.803223 594.595215,272.803223 C593.87581,272.803223 593.377768,273.146318 593.101074,273.83252 L593.109375,280 L590.710449,280 L590.710449,274.280762 C590.710449,273.760577 590.608074,273.384279 590.40332,273.151855 C590.198567,272.919432 589.849937,272.803223 589.357422,272.803223 C588.676754,272.803223 588.184246,273.085446 587.879883,273.649902 L587.879883,280 L585.480957,280 L585.480957,271.018555 L587.730469,271.018555 Z M602.72998,280 L600.322754,280 L600.322754,271.018555 L602.72998,271.018555 L602.72998,280 Z M600.181641,268.694336 C600.181641,268.334634 600.302001,268.038575 600.542725,267.806152 C600.783448,267.573729 601.111326,267.45752 601.526367,267.45752 C601.935874,267.45752 602.262369,267.573729 602.505859,267.806152 C602.74935,268.038575 602.871094,268.334634 602.871094,268.694336 C602.871094,269.059572 602.747967,269.358397 602.501709,269.59082 C602.255451,269.823243 601.930341,269.939453 601.526367,269.939453 C601.122394,269.939453 600.797283,269.823243 600.551025,269.59082 C600.304768,269.358397 600.181641,269.059572 600.181641,268.694336 Z M609.569824,277.518066 C609.569824,277.224771 609.424562,276.993735 609.134033,276.824951 C608.843504,276.656168 608.377282,276.505372 607.735352,276.372559 C605.599273,275.924314 604.53125,275.016771 604.53125,273.649902 C604.53125,272.853023 604.861894,272.187584 605.523193,271.653564 C606.184492,271.119545 607.049148,270.852539 608.117188,270.852539 C609.257167,270.852539 610.168861,271.120928 610.852295,271.657715 C611.535729,272.194501 611.877441,272.89176 611.877441,273.749512 L609.478516,273.749512 C609.478516,273.406411 609.36784,273.122804 609.146484,272.898682 C608.925129,272.674559 608.579267,272.5625 608.108887,272.5625 C607.704913,272.5625 607.392254,272.653808 607.170898,272.836426 C606.949543,273.019044 606.838867,273.251463 606.838867,273.533691 C606.838867,273.799318 606.964761,274.013752 607.216553,274.177002 C607.468344,274.340251 607.893063,274.481363 608.490723,274.600342 C609.088382,274.71932 609.591958,274.853515 610.001465,275.00293 C611.268724,275.467776 611.902344,276.272943 611.902344,277.418457 C611.902344,278.237472 611.550948,278.900144 610.848145,279.406494 C610.145342,279.912844 609.237799,280.166016 608.125488,280.166016 C607.37288,280.166016 606.704674,280.031821 606.12085,279.763428 C605.537025,279.495034 605.079103,279.127037 604.74707,278.659424 C604.415037,278.191811 604.249023,277.686852 604.249023,277.144531 L606.523438,277.144531 C606.545573,277.57064 606.703286,277.897134 606.996582,278.124023 C607.289878,278.350913 607.682777,278.464355 608.175293,278.464355 C608.634605,278.464355 608.981851,278.377198 609.217041,278.202881 C609.452231,278.028564 609.569824,277.800294 609.569824,277.518066 Z M617.580078,280.166016 C616.263014,280.166016 615.190841,279.762048 614.363525,278.954102 C613.53621,278.146155 613.122559,277.069831 613.122559,275.725098 L613.122559,275.492676 C613.122559,274.590653 613.296873,273.784102 613.645508,273.072998 C613.994142,272.361894 614.488034,271.814048 615.127197,271.429443 C615.766361,271.044839 616.495439,270.852539 617.314453,270.852539 C618.542975,270.852539 619.510006,271.239905 620.215576,272.014648 C620.921146,272.789392 621.273926,273.887851 621.273926,275.310059 L621.273926,276.289551 L615.554688,276.289551 C615.632162,276.876142 615.865965,277.346515 616.256104,277.700684 C616.646242,278.054852 617.140134,278.231934 617.737793,278.231934 C618.661951,278.231934 619.384112,277.897139 619.904297,277.227539 L621.083008,278.547363 C620.723305,279.05648 620.236331,279.45353 619.62207,279.738525 C619.007809,280.02352 618.327152,280.166016 617.580078,280.166016 Z M617.306152,272.794922 C616.830239,272.794922 616.444256,272.955402 616.148193,273.276367 C615.852131,273.597332 615.662598,274.056638 615.57959,274.654297 L618.916504,274.654297 L618.916504,274.463379 C618.905436,273.932126 618.761557,273.521242 618.484863,273.230713 C618.208169,272.940184 617.815269,272.794922 617.306152,272.794922 Z" id="Optimise-Copy" fill="#3D3D3D"></path>
        <path d="M178.953857,22.0703125 L178.953857,31.8422852 C178.953857,32.9497126 178.71802,33.9084432 178.246338,34.7185059 C177.774656,35.5285685 177.097905,36.1455057 176.216064,36.5693359 C175.334224,36.9931662 174.291754,37.2050781 173.088623,37.2050781 C171.270255,37.2050781 169.83814,36.7334032 168.792236,35.7900391 C167.746333,34.846675 167.213135,33.5546957 167.192627,31.9140625 L167.192627,22.0703125 L170.812256,22.0703125 L170.812256,31.9858398 C170.853272,33.6196371 171.612053,34.4365234 173.088623,34.4365234 C173.833744,34.4365234 174.397703,34.2314474 174.780518,33.8212891 C175.163332,33.4111308 175.354736,32.7446335 175.354736,31.8217773 L175.354736,22.0703125 L178.953857,22.0703125 Z M184.214111,25.9052734 L184.326904,27.2075195 C185.092533,26.2026317 186.148675,25.7001953 187.495361,25.7001953 C188.650641,25.7001953 189.513669,26.0454067 190.084473,26.7358398 C190.655276,27.426273 190.950928,28.4653251 190.971436,29.8530273 L190.971436,37 L187.505615,37 L187.505615,29.996582 C187.505615,29.4360324 187.392823,29.0241712 187.167236,28.7609863 C186.941649,28.4978014 186.531497,28.3662109 185.936768,28.3662109 C185.260006,28.3662109 184.75757,28.6328098 184.429443,29.1660156 L184.429443,37 L180.973877,37 L180.973877,25.9052734 L184.214111,25.9052734 Z M192.447998,31.3706055 C192.447998,29.6137607 192.827389,28.2294972 193.586182,27.2177734 C194.344974,26.2060496 195.404534,25.7001953 196.764893,25.7001953 C197.756108,25.7001953 198.590085,26.0898399 199.266846,26.8691406 L199.266846,21.25 L202.732666,21.25 L202.732666,37 L199.625732,37 L199.451416,35.8105469 C198.740475,36.740239 197.83814,37.2050781 196.744385,37.2050781 C195.425042,37.2050781 194.379154,36.6992238 193.606689,35.6875 C192.834225,34.6757762 192.447998,33.2368257 192.447998,31.3706055 Z M195.903564,31.5859375 C195.903564,33.5546973 196.477777,34.5390625 197.626221,34.5390625 C198.39185,34.5390625 198.938719,34.2177767 199.266846,33.5751953 L199.266846,29.3505859 C198.952391,28.6943327 198.412357,28.3662109 197.646729,28.3662109 C196.580317,28.3662109 196.002686,29.2275304 195.913818,30.9501953 L195.903564,31.5859375 Z M210.064209,37.2050781 C208.362052,37.2050781 206.984624,36.6975148 205.931885,35.682373 C204.879145,34.6672313 204.352783,33.3461995 204.352783,31.7192383 L204.352783,31.4321289 C204.352783,30.2973576 204.562986,29.2959028 204.983398,28.4277344 C205.403811,27.559566 206.01733,26.8879418 206.823975,26.4128418 C207.630619,25.9377418 208.587641,25.7001953 209.695068,25.7001953 C211.25367,25.7001953 212.484126,26.1838331 213.386475,27.151123 C214.288823,28.118413 214.73999,29.4667882 214.73999,31.1962891 L214.73999,32.5395508 L207.869873,32.5395508 C207.992921,33.1616242 208.262937,33.6503888 208.679932,34.0058594 C209.096926,34.3613299 209.63696,34.5390625 210.300049,34.5390625 C211.393804,34.5390625 212.248288,34.1562538 212.863525,33.390625 L214.442627,35.2568359 C214.011961,35.8515655 213.401859,36.3249494 212.612305,36.677002 C211.82275,37.0290545 210.973393,37.2050781 210.064209,37.2050781 Z M209.674561,28.3662109 C208.662837,28.3662109 208.06128,29.0361261 207.869873,30.3759766 L211.356201,30.3759766 L211.356201,30.109375 C211.369873,29.5556613 211.229738,29.1267105 210.935791,28.8225098 C210.641844,28.518309 210.221438,28.3662109 209.674561,28.3662109 Z M222.840576,29.0327148 L221.702393,28.9506836 C220.615473,28.9506836 219.918214,29.2924771 219.610596,29.9760742 L219.610596,37 L216.155029,37 L216.155029,25.9052734 L219.395264,25.9052734 L219.508057,27.3305664 C220.089114,26.2436469 220.899165,25.7001953 221.938232,25.7001953 C222.307375,25.7001953 222.628661,25.7412105 222.9021,25.8232422 L222.840576,29.0327148 Z M229.895264,33.8828125 C229.895264,33.5888657 229.741457,33.3530282 229.433838,33.175293 C229.126219,32.9975577 228.541752,32.8129892 227.68042,32.621582 C226.819087,32.4301748 226.108157,32.1789566 225.547607,31.8679199 C224.987058,31.5568832 224.559816,31.1792014 224.265869,30.7348633 C223.971922,30.2905251 223.824951,29.7812529 223.824951,29.2070312 C223.824951,28.1884715 224.245357,27.3493685 225.086182,26.6896973 C225.927006,26.030026 227.027581,25.7001953 228.387939,25.7001953 C229.850837,25.7001953 231.026607,26.031735 231.915283,26.6948242 C232.80396,27.3579135 233.248291,28.2294868 233.248291,29.3095703 L229.782471,29.3095703 C229.782471,28.420894 229.314214,27.9765625 228.377686,27.9765625 C228.015379,27.9765625 227.711183,28.0773916 227.465088,28.2790527 C227.218993,28.4807139 227.095947,28.7319321 227.095947,29.0327148 C227.095947,29.3403336 227.246336,29.5898428 227.547119,29.78125 C227.847902,29.9726572 228.328122,30.1298822 228.987793,30.2529297 C229.647464,30.3759772 230.226804,30.5229484 230.72583,30.6938477 C232.393807,31.2680693 233.227783,32.2968676 233.227783,33.7802734 C233.227783,34.7919972 232.778325,35.6157195 231.879395,36.2514648 C230.980464,36.8872102 229.816658,37.2050781 228.387939,37.2050781 C227.437739,37.2050781 226.590092,37.0341814 225.844971,36.6923828 C225.09985,36.3505842 224.518801,35.8857451 224.101807,35.2978516 C223.684812,34.709958 223.476318,34.0913118 223.476318,33.4418945 L226.706299,33.4418945 C226.719971,33.9545924 226.890868,34.3288562 227.218994,34.5646973 C227.547121,34.8005383 227.967527,34.918457 228.480225,34.918457 C228.951907,34.918457 229.305663,34.8227549 229.541504,34.6313477 C229.777345,34.4399404 229.895264,34.1904312 229.895264,33.8828125 Z M238.867432,23.1469727 L238.867432,25.9052734 L240.692627,25.9052734 L240.692627,28.3046875 L238.867432,28.3046875 L238.867432,33.3803711 C238.867432,33.7973654 238.942626,34.0878898 239.093018,34.2519531 C239.243409,34.4160164 239.540769,34.4980469 239.985107,34.4980469 C240.326906,34.4980469 240.614013,34.4775393 240.846436,34.4365234 L240.846436,36.9077148 C240.224362,37.105958 239.574955,37.2050781 238.898193,37.2050781 C237.708734,37.2050781 236.830325,36.9248075 236.262939,36.3642578 C235.695554,35.8037081 235.411865,34.9526424 235.411865,33.8110352 L235.411865,28.3046875 L233.996826,28.3046875 L233.996826,25.9052734 L235.411865,25.9052734 L235.411865,23.1469727 L238.867432,23.1469727 Z M248.301025,37 C248.177978,36.7744129 248.068604,36.4428733 247.9729,36.0053711 C247.337155,36.8051798 246.448492,37.2050781 245.306885,37.2050781 C244.260981,37.2050781 243.372318,36.8889192 242.640869,36.2565918 C241.90942,35.6242644 241.543701,34.8295946 241.543701,33.8725586 C241.543701,32.6694276 241.988033,31.760257 242.876709,31.1450195 C243.765385,30.5297821 245.057365,30.222168 246.752686,30.222168 L247.819092,30.222168 L247.819092,29.6376953 C247.819092,28.6191355 247.378178,28.1098633 246.496338,28.1098633 C245.676021,28.1098633 245.265869,28.5131796 245.265869,29.3198242 L241.810303,29.3198242 C241.810303,28.2465767 242.266597,27.3750033 243.179199,26.7050781 C244.091801,26.0351529 245.255608,25.7001953 246.670654,25.7001953 C248.0857,25.7001953 249.203365,26.0454067 250.023682,26.7358398 C250.843998,27.426273 251.264404,28.3730409 251.284912,29.5761719 L251.284912,34.487793 C251.298584,35.5063527 251.455809,36.2856418 251.756592,36.8256836 L251.756592,37 L248.301025,37 Z M246.137451,34.7441406 C246.568117,34.7441406 246.925292,34.6518564 247.208984,34.4672852 C247.492677,34.2827139 247.696044,34.0742199 247.819092,33.8417969 L247.819092,32.0678711 L246.814209,32.0678711 C245.611078,32.0678711 245.009521,32.6079048 245.009521,33.6879883 C245.009521,34.002443 245.115477,34.2570791 245.327393,34.4519043 C245.539308,34.6467295 245.809325,34.7441406 246.137451,34.7441406 Z M256.37085,25.9052734 L256.483643,27.2075195 C257.249271,26.2026317 258.305413,25.7001953 259.6521,25.7001953 C260.807379,25.7001953 261.670407,26.0454067 262.241211,26.7358398 C262.812015,27.426273 263.107666,28.4653251 263.128174,29.8530273 L263.128174,37 L259.662354,37 L259.662354,29.996582 C259.662354,29.4360324 259.549562,29.0241712 259.323975,28.7609863 C259.098388,28.4978014 258.688235,28.3662109 258.093506,28.3662109 C257.416745,28.3662109 256.914308,28.6328098 256.586182,29.1660156 L256.586182,37 L253.130615,37 L253.130615,25.9052734 L256.37085,25.9052734 Z M264.604736,31.3706055 C264.604736,29.6137607 264.984127,28.2294972 265.74292,27.2177734 C266.501713,26.2060496 267.561272,25.7001953 268.921631,25.7001953 C269.912847,25.7001953 270.746823,26.0898399 271.423584,26.8691406 L271.423584,21.25 L274.889404,21.25 L274.889404,37 L271.782471,37 L271.608154,35.8105469 C270.897213,36.740239 269.994879,37.2050781 268.901123,37.2050781 C267.581781,37.2050781 266.535893,36.6992238 265.763428,35.6875 C264.990963,34.6757762 264.604736,33.2368257 264.604736,31.3706055 Z M268.060303,31.5859375 C268.060303,33.5546973 268.634516,34.5390625 269.782959,34.5390625 C270.548588,34.5390625 271.095457,34.2177767 271.423584,33.5751953 L271.423584,29.3505859 C271.109129,28.6943327 270.569096,28.3662109 269.803467,28.3662109 C268.737055,28.3662109 268.159424,29.2275304 268.070557,30.9501953 L268.060303,31.5859375 Z" id="Understand-Copy" fill="#3D3D3D"></path>
        <path d="M652.796387,30.6733398 L647.13623,30.6733398 L647.13623,34.2314453 L653.821777,34.2314453 L653.821777,37 L643.537109,37 L643.537109,22.0703125 L653.842285,22.0703125 L653.842285,24.8491211 L647.13623,24.8491211 L647.13623,27.9970703 L652.796387,27.9970703 L652.796387,30.6733398 Z M659.625488,28.9609375 L661.235352,25.9052734 L664.824219,25.9052734 L661.901855,31.309082 L664.967773,37 L661.358398,37 L659.615234,33.71875 L657.902832,37 L654.272949,37 L657.349121,31.309082 L654.437012,25.9052734 L658.066895,25.9052734 L659.625488,28.9609375 Z M671.099609,37.2050781 C669.397452,37.2050781 668.020025,36.6975148 666.967285,35.682373 C665.914546,34.6672313 665.388184,33.3461995 665.388184,31.7192383 L665.388184,31.4321289 C665.388184,30.2973576 665.598387,29.2959028 666.018799,28.4277344 C666.439211,27.559566 667.05273,26.8879418 667.859375,26.4128418 C668.66602,25.9377418 669.623041,25.7001953 670.730469,25.7001953 C672.28907,25.7001953 673.519527,26.1838331 674.421875,27.151123 C675.324223,28.118413 675.775391,29.4667882 675.775391,31.1962891 L675.775391,32.5395508 L668.905273,32.5395508 C669.028321,33.1616242 669.298338,33.6503888 669.715332,34.0058594 C670.132326,34.3613299 670.67236,34.5390625 671.335449,34.5390625 C672.429205,34.5390625 673.283688,34.1562538 673.898926,33.390625 L675.478027,35.2568359 C675.047361,35.8515655 674.43726,36.3249494 673.647705,36.677002 C672.85815,37.0290545 672.008794,37.2050781 671.099609,37.2050781 Z M670.709961,28.3662109 C669.698237,28.3662109 669.096681,29.0361261 668.905273,30.3759766 L672.391602,30.3759766 L672.391602,30.109375 C672.405274,29.5556613 672.265138,29.1267105 671.971191,28.8225098 C671.677245,28.518309 671.256839,28.3662109 670.709961,28.3662109 Z M681.855957,34.5390625 C682.341311,34.5390625 682.717284,34.407472 682.983887,34.1442871 C683.25049,33.8811022 683.380371,33.5136742 683.373535,33.0419922 L686.61377,33.0419922 C686.61377,34.2587951 686.177983,35.256832 685.306396,36.0361328 C684.43481,36.8154336 683.312019,37.2050781 681.937988,37.2050781 C680.324699,37.2050781 679.053227,36.6992238 678.123535,35.6875 C677.193843,34.6757762 676.729004,33.274423 676.729004,31.4833984 L676.729004,31.3398438 C676.729004,30.2187444 676.935789,29.2292523 677.349365,28.3713379 C677.762942,27.5134234 678.359371,26.8537621 679.138672,26.392334 C679.917973,25.9309059 680.840815,25.7001953 681.907227,25.7001953 C683.349617,25.7001953 684.494625,26.1000937 685.342285,26.8999023 C686.189946,27.699711 686.61377,28.7831963 686.61377,30.1503906 L683.373535,30.1503906 C683.373535,29.576169 683.2334,29.1352554 682.953125,28.8276367 C682.67285,28.520018 682.296877,28.3662109 681.825195,28.3662109 C680.929683,28.3662109 680.406739,28.937006 680.256348,30.0786133 C680.208496,30.4409198 680.18457,30.9399382 680.18457,31.5756836 C680.18457,32.689947 680.31787,33.4624002 680.584473,33.8930664 C680.851076,34.3237326 681.274899,34.5390625 681.855957,34.5390625 Z M694.683594,35.800293 C693.952145,36.7368211 692.964362,37.2050781 691.720215,37.2050781 C690.503412,37.2050781 689.582279,36.8513219 688.956787,36.1437988 C688.331296,35.4362758 688.018555,34.4194402 688.018555,33.0932617 L688.018555,25.9052734 L691.474121,25.9052734 L691.474121,33.1137695 C691.474121,34.0639696 691.935542,34.5390625 692.858398,34.5390625 C693.651371,34.5390625 694.21533,34.2553739 694.550293,33.6879883 L694.550293,25.9052734 L698.026367,25.9052734 L698.026367,37 L694.786133,37 L694.683594,35.800293 Z M703.942871,23.1469727 L703.942871,25.9052734 L705.768066,25.9052734 L705.768066,28.3046875 L703.942871,28.3046875 L703.942871,33.3803711 C703.942871,33.7973654 704.018066,34.0878898 704.168457,34.2519531 C704.318848,34.4160164 704.616209,34.4980469 705.060547,34.4980469 C705.402345,34.4980469 705.689452,34.4775393 705.921875,34.4365234 L705.921875,36.9077148 C705.299802,37.105958 704.650394,37.2050781 703.973633,37.2050781 C702.784174,37.2050781 701.905765,36.9248075 701.338379,36.3642578 C700.770993,35.8037081 700.487305,34.9526424 700.487305,33.8110352 L700.487305,28.3046875 L699.072266,28.3046875 L699.072266,25.9052734 L700.487305,25.9052734 L700.487305,23.1469727 L703.942871,23.1469727 Z M712.494629,37.2050781 C710.792472,37.2050781 709.415044,36.6975148 708.362305,35.682373 C707.309565,34.6672313 706.783203,33.3461995 706.783203,31.7192383 L706.783203,31.4321289 C706.783203,30.2973576 706.993406,29.2959028 707.413818,28.4277344 C707.834231,27.559566 708.44775,26.8879418 709.254395,26.4128418 C710.061039,25.9377418 711.018061,25.7001953 712.125488,25.7001953 C713.68409,25.7001953 714.914546,26.1838331 715.816895,27.151123 C716.719243,28.118413 717.17041,29.4667882 717.17041,31.1962891 L717.17041,32.5395508 L710.300293,32.5395508 C710.42334,33.1616242 710.693357,33.6503888 711.110352,34.0058594 C711.527346,34.3613299 712.067379,34.5390625 712.730469,34.5390625 C713.824224,34.5390625 714.678708,34.1562538 715.293945,33.390625 L716.873047,35.2568359 C716.442381,35.8515655 715.832279,36.3249494 715.042725,36.677002 C714.25317,37.0290545 713.403813,37.2050781 712.494629,37.2050781 Z M712.10498,28.3662109 C711.093257,28.3662109 710.4917,29.0361261 710.300293,30.3759766 L713.786621,30.3759766 L713.786621,30.109375 C713.800293,29.5556613 713.660158,29.1267105 713.366211,28.8225098 C713.072264,28.518309 712.651858,28.3662109 712.10498,28.3662109 Z" id="Execute-Copy" fill="#3D3D3D"></path>
        <path d="M428.239746,36 L425.95752,36 L428.304688,22.4921875 L430.586914,22.4921875 L428.239746,36 Z M435.837891,23.5219727 L435.411133,25.9619141 L437.127441,25.9619141 L436.839844,27.6318359 L435.114258,27.6318359 L434.167969,33.2539062 C434.149414,33.4085294 434.146322,33.5476882 434.158691,33.6713867 C434.195801,34.073407 434.443194,34.2836913 434.900879,34.3022461 C435.129721,34.3022461 435.389484,34.2744143 435.680176,34.21875 L435.531738,35.9814453 C435.074054,36.1113288 434.613284,36.1762695 434.149414,36.1762695 C433.382483,36.1638997 432.80884,35.9025904 432.428467,35.392334 C432.048094,34.8820775 431.898112,34.2063844 431.978516,33.3652344 L432.915527,27.6318359 L431.310547,27.6318359 L431.607422,25.9619141 L433.203125,25.9619141 L433.629883,23.5219727 L435.837891,23.5219727 Z M441.682617,36.1855469 C440.810543,36.1669921 440.054447,35.9474305 439.414307,35.5268555 C438.774167,35.1062804 438.301027,34.5310909 437.994873,33.8012695 C437.688719,33.0714482 437.572754,32.2581425 437.646973,31.3613281 L437.674805,30.980957 C437.786133,29.9604441 438.084552,29.0435425 438.570068,28.2302246 C439.055585,27.4169067 439.660153,26.7999696 440.383789,26.3793945 C441.107425,25.9588195 441.892899,25.7578124 442.740234,25.7763672 C443.995775,25.8011069 444.937415,26.2680619 445.565186,27.1772461 C446.192956,28.0864303 446.429526,29.270826 446.274902,30.7304688 L446.14502,31.6953125 L439.827148,31.6953125 C439.771484,32.4931681 439.93229,33.1363908 440.30957,33.625 C440.686851,34.1136092 441.206377,34.364095 441.868164,34.3764648 C442.814458,34.4073895 443.686519,33.996098 444.484375,33.1425781 L445.597656,34.3115234 C445.177081,34.9114613 444.623539,35.3768701 443.937012,35.7077637 C443.250485,36.0386573 442.499028,36.1979167 441.682617,36.1855469 Z M442.619629,27.5761719 C441.456863,27.5390623 440.584801,28.3616452 440.003418,30.0439453 L444.168945,30.0532227 L444.206055,29.8583984 C444.249349,29.5738918 444.252442,29.2955743 444.215332,29.0234375 C444.147298,28.5843077 443.974122,28.237957 443.695801,27.984375 C443.417479,27.730793 443.058759,27.5947267 442.619629,27.5761719 Z M453.6875,28.0214844 C453.402993,27.9596351 453.115399,27.9287109 452.824707,27.9287109 C451.859858,27.9039712 451.092939,28.302893 450.523926,29.1254883 L449.317871,36 L447.119141,36 L448.854004,25.9619141 L450.941406,25.9526367 L450.71875,27.09375 C451.405277,26.1845658 452.196936,25.7392577 453.09375,25.7578125 C453.297853,25.7578125 453.579263,25.8041988 453.937988,25.8969727 L453.6875,28.0214844 Z M459.374512,36 C459.300293,35.7526029 459.269368,35.4402688 459.281738,35.0629883 C458.452958,35.8361041 457.55925,36.2102866 456.600586,36.1855469 C455.728511,36.173177 455.006432,35.8933133 454.434326,35.3459473 C453.86222,34.7985812 453.594726,34.1043336 453.631836,33.2631836 C453.681315,32.2055611 454.138993,31.3737009 455.004883,30.7675781 C455.870773,30.1614553 457.033521,29.8583984 458.493164,29.8583984 L459.921875,29.8769531 L460.051758,29.1904297 C460.088867,28.9492175 460.088867,28.7234711 460.051758,28.5131836 C459.928059,27.8452115 459.485844,27.5019532 458.725098,27.4833984 C458.255043,27.4710286 457.842206,27.5900866 457.486572,27.8405762 C457.130939,28.0910657 456.912924,28.4265929 456.83252,28.847168 L454.633789,28.8657227 C454.677084,28.24723 454.896645,27.7045108 455.29248,27.2375488 C455.688316,26.7705869 456.214027,26.4072279 456.869629,26.1474609 C457.525231,25.887694 458.217933,25.7639973 458.947754,25.7763672 C460.042486,25.8011069 460.895993,26.1304493 461.508301,26.7644043 C462.120609,27.3983593 462.374187,28.219396 462.269043,29.2275391 L461.499023,33.9311523 L461.424805,34.7661133 C461.40625,35.131024 461.452636,35.4866519 461.563965,35.8330078 L461.554688,36 L459.374512,36 Z M457.11084,34.3857422 C457.574709,34.398112 458.004555,34.2914237 458.400391,34.0656738 C458.796226,33.839924 459.133299,33.5476906 459.411621,33.1889648 L459.754883,31.2871094 L458.706543,31.277832 C457.877763,31.277832 457.215986,31.4339991 456.721191,31.7463379 C456.226397,32.0586767 455.944987,32.4869764 455.876953,33.03125 C455.827474,33.4456401 455.9187,33.7718901 456.150635,34.0100098 C456.38257,34.2481294 456.702635,34.3733723 457.11084,34.3857422 Z M468.401367,23.5219727 L467.974609,25.9619141 L469.690918,25.9619141 L469.40332,27.6318359 L467.677734,27.6318359 L466.731445,33.2539062 C466.712891,33.4085294 466.709798,33.5476882 466.722168,33.6713867 C466.759278,34.073407 467.006671,34.2836913 467.464355,34.3022461 C467.693198,34.3022461 467.952961,34.2744143 468.243652,34.21875 L468.095215,35.9814453 C467.63753,36.1113288 467.17676,36.1762695 466.712891,36.1762695 C465.94596,36.1638997 465.372316,35.9025904 464.991943,35.392334 C464.61157,34.8820775 464.461588,34.2063844 464.541992,33.3652344 L465.479004,27.6318359 L463.874023,27.6318359 L464.170898,25.9619141 L465.766602,25.9619141 L466.193359,23.5219727 L468.401367,23.5219727 Z M474.246094,36.1855469 C473.374019,36.1669921 472.617923,35.9474305 471.977783,35.5268555 C471.337643,35.1062804 470.864503,34.5310909 470.55835,33.8012695 C470.252196,33.0714482 470.13623,32.2581425 470.210449,31.3613281 L470.238281,30.980957 C470.34961,29.9604441 470.648028,29.0435425 471.133545,28.2302246 C471.619062,27.4169067 472.223629,26.7999696 472.947266,26.3793945 C473.670902,25.9588195 474.456376,25.7578124 475.303711,25.7763672 C476.559251,25.8011069 477.500892,26.2680619 478.128662,27.1772461 C478.756432,28.0864303 478.993002,29.270826 478.838379,30.7304688 L478.708496,31.6953125 L472.390625,31.6953125 C472.334961,32.4931681 472.495766,33.1363908 472.873047,33.625 C473.250327,34.1136092 473.769853,34.364095 474.431641,34.3764648 C475.377934,34.4073895 476.249996,33.996098 477.047852,33.1425781 L478.161133,34.3115234 C477.740558,34.9114613 477.187015,35.3768701 476.500488,35.7077637 C475.813961,36.0386573 475.062504,36.1979167 474.246094,36.1855469 Z M475.183105,27.5761719 C474.020339,27.5390623 473.148278,28.3616452 472.566895,30.0439453 L476.732422,30.0532227 L476.769531,29.8583984 C476.812826,29.5738918 476.815918,29.2955743 476.778809,29.0234375 C476.710774,28.5843077 476.537599,28.237957 476.259277,27.984375 C475.980956,27.730793 475.622235,27.5947267 475.183105,27.5761719 Z" id="Iterate" fill="#3D3D3D"></path>
        <path d="M4.15862702,243.219095 L226.27417,410.309783 L448.389713,243.219095 L226.27417,76.1284071 L4.15862702,243.219095 Z" id="Rectangle" stroke="#DA1710" stroke-width="5" fill-rule="nonzero"></path>
        <path d="M457.166565,243.712079 L679.27417,410.299114 L901.381775,243.712079 L679.27417,77.1250428 L457.166565,243.712079 Z" id="Rectangle-Copy" stroke="#DA1710" stroke-width="5" fill-rule="nonzero"></path>
        <use id="Oval" stroke="#C3C3C3" mask="url(#mask-2)" stroke-width="4" stroke-dasharray="9" fill-rule="nonzero" xlink:href="#path-1"></use>
        <polygon id="Triangle" fill="#C3C3C3" fill-rule="nonzero" transform="translate(346.322314, 12.665126) rotate(-106.000000) translate(-346.322314, -12.665126) " points="346.322314 7.66512611 351.822314 17.6651261 340.822314 17.6651261"></polygon>
        <polygon id="Triangle" fill="#C3C3C3" fill-rule="nonzero" transform="translate(569.253134, 45.606687) rotate(75.000000) translate(-569.253134, -45.606687) " points="569.253134 40.6066873 574.753134 50.6066873 563.753134 50.6066873"></polygon>
    </g>
</svg>