<?xml version="1.0" encoding="UTF-8"?>
<svg width="464px" height="530px" viewBox="0 0 464 530" version="1.1" xmlns="http://www.w3.org/2000/svg" xmlns:xlink="http://www.w3.org/1999/xlink">
    <!-- Generator: Sketch 52.5 (67469) - http://www.bohemiancoding.com/sketch -->
    <title>Artboard Copy</title>
    <desc>Created with Sketch.</desc>
    <defs>
        <path d="M162.9,169.4 C182.9,151.3 195.4,125.1 195,96 C194.3,42 149.5,-1.1 95.3,0.4 C42.7,1.9 0.5,45.7 1,98.3 C1.3,127.4 14.3,153.3 34.8,170.9 C42.8,177.8 48,187.4 49.2,197.9 L149.6,196.5 C150.5,186.1 155.2,176.4 162.9,169.4 Z" id="path-1"></path>
        <filter x="-3.9%" y="-2.8%" width="107.7%" height="107.6%" filterUnits="objectBoundingBox" id="filter-2">
            <feMorphology radius="0.5" operator="dilate" in="SourceAlpha" result="shadowSpreadOuter1"></feMorphology>
            <feOffset dx="0" dy="2" in="shadowSpreadOuter1" result="shadowOffsetOuter1"></feOffset>
            <feGaussianBlur stdDeviation="2" in="shadowOffsetOuter1" result="shadowBlurOuter1"></feGaussianBlur>
            <feComposite in="shadowBlurOuter1" in2="SourceAlpha" operator="out" result="shadowBlurOuter1"></feComposite>
            <feColorMatrix values="0 0 0 0 0   0 0 0 0 0   0 0 0 0 0  0 0 0 0.5 0" type="matrix" in="shadowBlurOuter1"></feColorMatrix>
        </filter>
        <filter x="-3.4%" y="-2.3%" width="106.7%" height="106.6%" filterUnits="objectBoundingBox" id="filter-3">
            <feGaussianBlur stdDeviation="1.5" in="SourceAlpha" result="shadowBlurInner1"></feGaussianBlur>
            <feOffset dx="0" dy="1" in="shadowBlurInner1" result="shadowOffsetInner1"></feOffset>
            <feComposite in="shadowOffsetInner1" in2="SourceAlpha" operator="arithmetic" k2="-1" k3="1" result="shadowInnerInner1"></feComposite>
            <feColorMatrix values="0 0 0 0 0   0 0 0 0 0   0 0 0 0 0  0 0 0 0.5 0" type="matrix" in="shadowInnerInner1"></feColorMatrix>
        </filter>
    </defs>
    <g id="Artboard-Copy" stroke="none" stroke-width="1" fill="none" fill-rule="evenodd">
        <g id="screen" transform="translate(60.000000, 10.000000)">
            <g id="Group" transform="translate(72.000000, 73.000000)">
                <g id="change1_1" transform="translate(53.000000, 200.000000)" fill="#F2685C">
                    <path d="M0.4,5.7 L0.5,12 C0.9,39.6 23.6,61.7 51.2,61.3 C78.8,60.9 100.9,38.2 100.5,10.6 L100.4,4.8 C100.4,3.3 100.4,1.9 100.6,0.4 L0.2,1.8 C0.3,3.1 0.4,4.4 0.4,5.7 Z" id="Path"></path>
                </g>
                <g id="change2_1" transform="translate(4.000000, 4.000000)">
                    <g id="Path">
                        <use fill="black" fill-opacity="1" filter="url(#filter-2)" xlink:href="#path-1"></use>
                        <use fill-opacity="0" fill="#FFFFFF" fill-rule="evenodd" xlink:href="#path-1"></use>
                        <use fill="black" fill-opacity="1" filter="url(#filter-3)" xlink:href="#path-1"></use>
                        <use stroke="#979797" stroke-width="1" xlink:href="#path-1"></use>
                    </g>
                </g>
                <g fill="#FFFFFF">
                    <g id="change3_1" fill-rule="nonzero">
                        <path d="M104.2,265.3 C74.4,265.7 49.9,241.8 49.5,212 L49.4,205.7 C49.3,195.1 44.4,185 36.1,177.8 C14,158.8 1.2,131.3 0.9,102.2 C0.3,47.5 44.4,1.7 99.1,0.2 C126.3,-0.5 152.2,9.4 171.8,28.3 C191.5,47.2 202.5,72.6 202.9,99.8 C203.3,128.9 191.1,156.7 169.5,176.2 C161.6,183.3 157.2,193.7 157.3,204.6 L157.4,210.4 C157.9,240.4 134,264.9 104.2,265.3 Z M100.7,8.4 C100.3,8.4 99.8,8.4 99.4,8.4 C49,9.8 8.5,51.9 9,102.3 C9.3,129.1 21.1,154.4 41.4,171.9 C51.4,180.5 57.3,192.8 57.4,205.7 L57.5,212 C57.8,237.4 78.8,257.7 104.1,257.4 C129.4,257.1 149.8,236.1 149.5,210.8 L149.4,205 C149.2,191.8 154.6,179.2 164.2,170.5 C184.1,152.6 195.3,126.9 194.9,100.1 C194.6,75 184.4,51.6 166.3,34.3 C148.6,17.2 125.3,8 100.7,8.4 Z" id="Shape"></path>
                    </g>
                    <g transform="translate(29.000000, 62.000000)">
                        <g id="change3_2" transform="translate(0.000000, 134.000000)">
                            <path d="M144.4,8.2 L4.4,10.1 C2.2,10.1 0.4,8.4 0.3,6.2 C0.3,4 2,2.2 4.2,2.1 L144.2,0.2 C146.4,0.2 148.2,1.9 148.3,4.1 C148.4,6.3 146.6,8.2 144.4,8.2 Z" id="Path"></path>
                        </g>
                        <g transform="translate(24.000000, 155.000000)">
                            <g id="change3_3">
                                <path d="M98.7,6.9 L3.7,8.2 C2,8.2 0.7,6.9 0.7,5.2 C0.7,3.5 2,2.2 3.7,2.2 L98.7,0.9 C100.4,0.9 101.7,2.2 101.7,3.9 C101.7,5.6 100.3,6.9 98.7,6.9 Z" id="Path"></path>
                            </g>
                            <g id="change3_4" transform="translate(9.000000, 21.000000)">
                                <path d="M82,6.5 L3,7.6 C1.3,7.6 0,6.3 0,4.6 C0,2.9 1.3,1.6 3,1.6 L82,0.5 C83.7,0.5 85,1.8 85,3.5 C84.9,5.1 83.6,6.5 82,6.5 Z" id="Path"></path>
                            </g>
                        </g>
                        <g id="change3_5" transform="translate(47.000000, 0.000000)">
                            <path d="M6.2,143.5 C4,143.5 2.2,141.8 2.1,139.6 L1.5,92.3 C1.5,91.2 1.9,90.2 2.6,89.5 L38.6,52.5 L4.9,53 C3.3,53 1.8,52.1 1.2,50.6 C0.6,49.1 0.9,47.4 2,46.2 L45.1,1.9 C46.6,0.3 49.2,0.3 50.8,1.8 C52.4,3.3 52.4,5.9 50.9,7.5 L14.5,44.9 L48.2,44.4 C49.8,44.4 51.3,45.3 51.9,46.8 C52.5,48.3 52.2,50 51.1,51.2 L9.5,93.9 L10.1,139.5 C10.2,141.6 8.4,143.4 6.2,143.5 Z" id="Path"></path>
                        </g>
                        <g id="change3_6" transform="translate(82.000000, 86.000000)">
                            <path d="M4.9,57 C2.7,57 0.9,55.3 0.8,53.1 L0.1,4.8 C0.1,2.6 1.8,0.8 4,0.7 C6.2,0.7 8,2.4 8.1,4.6 L8.8,52.9 C8.9,55.1 7.1,57 4.9,57 Z" id="Path"></path>
                        </g>
                    </g>
                </g>
            </g>
            <g id="Group" fill="#FFFFFF">
                <g transform="translate(0.000000, 168.000000)">
                    <g id="change3_7" transform="translate(310.000000, 0.000000)">
                        <path d="M35,6.6 L3,7 C1.3,7 0,5.7 0,4 C0,2.3 1.3,1 3,1 L35,0.6 C36.7,0.6 38,1.9 38,3.6 C38,5.3 36.7,6.6 35,6.6 Z" id="Path"></path>
                    </g>
                    <g id="change3_8" transform="translate(0.000000, 4.000000)">
                        <path d="M35,6.9 L3,7.3 C1.3,7.3 0,6 0,4.3 C0,2.6 1.3,1.3 3,1.3 L35,0.9 C36.7,0.9 38,2.2 38,3.9 C38,5.5 36.7,6.9 35,6.9 Z" id="Path"></path>
                    </g>
                </g>
                <g id="change3_9" transform="translate(168.000000, 0.000000)">
                    <path d="M4.1,38 C2.4,38 1.1,36.7 1.1,35 L0.7,3 C0.7,1.3 2,0 3.7,0 C5.4,0 6.7,1.3 6.7,3 L7.1,35 C7.1,36.6 5.8,38 4.1,38 Z" id="Path"></path>
                </g>
                <g transform="translate(51.000000, 48.000000)">
                    <g id="change3_10" transform="translate(0.000000, 222.000000)">
                        <path d="M3.8,29.5 C3,29.5 2.3,29.2 1.7,28.7 C0.5,27.5 0.5,25.6 1.6,24.5 L23.9,1.6 C25.1,0.4 27,0.4 28.1,1.5 C29.3,2.7 29.3,4.6 28.2,5.7 L5.9,28.6 C5.3,29.2 4.5,29.5 3.8,29.5 Z" id="Path"></path>
                    </g>
                    <g id="change3_11" transform="translate(216.000000, 0.000000)">
                        <path d="M4,29.4 C3.2,29.4 2.5,29.1 1.9,28.6 C0.7,27.4 0.7,25.5 1.8,24.4 L24.1,1.5 C25.3,0.3 27.2,0.3 28.3,1.4 C29.5,2.6 29.5,4.5 28.4,5.6 L6.1,28.5 C5.5,29 4.7,29.3 4,29.4 Z" id="Path"></path>
                    </g>
                </g>
                <g transform="translate(48.000000, 51.000000)">
                    <g id="change3_12">
                        <path d="M26.4,29.1 C25.6,29.1 24.9,28.8 24.3,28.3 L1.3,5.9 C0.1,4.7 0.1,2.8 1.2,1.7 C2.4,0.5 4.3,0.5 5.4,1.6 L28.3,23.9 C29.5,25.1 29.5,27 28.4,28.1 C27.9,28.7 27.2,29 26.4,29.1 Z" id="Path"></path>
                    </g>
                    <g id="change3_13" transform="translate(222.000000, 216.000000)">
                        <path d="M26.6,29.2 C25.8,29.2 25.1,28.9 24.5,28.4 L1.6,6.1 C0.4,4.9 0.4,3 1.5,1.9 C2.7,0.7 4.6,0.7 5.7,1.8 L28.6,24.1 C29.8,25.3 29.8,27.2 28.7,28.3 C28.1,28.9 27.4,29.2 26.6,29.2 Z" id="Path"></path>
                    </g>
                </g>
            </g>
        </g>
        <text id="DIGITAL-SOLUTIONS" font-family="RobotoCondensed-Regular, Roboto Condensed" font-size="84" font-style="condensed" font-weight="normal" line-spacing="83" letter-spacing="8.40000057" fill="#FFFFFF">
            <tspan x="70.6254077" y="440">DIGITAL</tspan>
            <tspan x="1" y="523">SOLUTION</tspan>
            <tspan x="414.207817" y="523" letter-spacing="8.50120544">S</tspan>
        </text>
    </g>
</svg>