<?xml version="1.0" encoding="UTF-8"?>
<svg width="464px" height="530px" viewBox="0 0 464 530" version="1.1" xmlns="http://www.w3.org/2000/svg" xmlns:xlink="http://www.w3.org/1999/xlink">
    <!-- Generator: Sketch 52.5 (67469) - http://www.bohemiancoding.com/sketch -->
    <title>Artboard Copy</title>
    <desc>Created with Sketch.</desc>
    <defs>
        <path d="M162.9,169.4 C182.9,151.3 195.4,125.1 195,96 C194.3,42 149.5,-1.1 95.3,0.4 C42.7,1.9 0.5,45.7 1,98.3 C1.3,127.4 14.3,153.3 34.8,170.9 C42.8,177.8 48,187.4 49.2,197.9 L149.6,196.5 C150.5,186.1 155.2,176.4 162.9,169.4 Z" id="path-1"></path>
        <filter x="-3.9%" y="-2.8%" width="107.7%" height="107.6%" filterUnits="objectBoundingBox" id="filter-2">
            <feMorphology radius="0.5" operator="dilate" in="SourceAlpha" result="shadowSpreadOuter1"></feMorphology>
            <feOffset dx="0" dy="2" in="shadowSpreadOuter1" result="shadowOffsetOuter1"></feOffset>
            <feGaussianBlur stdDeviation="2" in="shadowOffsetOuter1" result="shadowBlurOuter1"></feGaussianBlur>
            <feComposite in="shadowBlurOuter1" in2="SourceAlpha" operator="out" result="shadowBlurOuter1"></feComposite>
            <feColorMatrix values="0 0 0 0 0   0 0 0 0 0   0 0 0 0 0  0 0 0 0.5 0" type="matrix" in="shadowBlurOuter1"></feColorMatrix>
        </filter>
        <filter x="-3.4%" y="-2.3%" width="106.7%" height="106.6%" filterUnits="objectBoundingBox" id="filter-3">
            <feGaussianBlur stdDeviation="1.5" in="SourceAlpha" result="shadowBlurInner1"></feGaussianBlur>
            <feOffset dx="0" dy="1" in="shadowBlurInner1" result="shadowOffsetInner1"></feOffset>
            <feComposite in="shadowOffsetInner1" in2="SourceAlpha" operator="arithmetic" k2="-1" k3="1" result="shadowInnerInner1"></feComposite>
            <feColorMatrix values="0 0 0 0 0   0 0 0 0 0   0 0 0 0 0  0 0 0 0.5 0" type="matrix" in="shadowInnerInner1"></feColorMatrix>
        </filter>
    </defs>
    <g id="Artboard-Copy" stroke="none" stroke-width="1" fill="none" fill-rule="evenodd">
        <g id="screen" transform="translate(60.000000, 10.000000)">
            <g id="Group" transform="translate(72.000000, 73.000000)">
                <g id="change1_1" transform="translate(53.000000, 200.000000)" fill="#F2685C">
                    <path d="M0.4,5.7 L0.5,12 C0.9,39.6 23.6,61.7 51.2,61.3 C78.8,60.9 100.9,38.2 100.5,10.6 L100.4,4.8 C100.4,3.3 100.4,1.9 100.6,0.4 L0.2,1.8 C0.3,3.1 0.4,4.4 0.4,5.7 Z" id="Path"></path>
                </g>
                <g id="change2_1" transform="translate(4.000000, 4.000000)">
                    <g id="Path">
                        <use fill="black" fill-opacity="1" filter="url(#filter-2)" xlink:href="#path-1"></use>
                        <use fill-opacity="0" fill="#FFFFFF" fill-rule="evenodd" xlink:href="#path-1"></use>
                        <use fill="black" fill-opacity="1" filter="url(#filter-3)" xlink:href="#path-1"></use>
                        <use stroke="#979797" stroke-width="1" xlink:href="#path-1"></use>
                    </g>
                </g>
                <g fill="#FFFFFF">
                    <g id="change3_1" fill-rule="nonzero">
                        <path d="M104.2,265.3 C74.4,265.7 49.9,241.8 49.5,212 L49.4,205.7 C49.3,195.1 44.4,185 36.1,177.8 C14,158.8 1.2,131.3 0.9,102.2 C0.3,47.5 44.4,1.7 99.1,0.2 C126.3,-0.5 152.2,9.4 171.8,28.3 C191.5,47.2 202.5,72.6 202.9,99.8 C203.3,128.9 191.1,156.7 169.5,176.2 C161.6,183.3 157.2,193.7 157.3,204.6 L157.4,210.4 C157.9,240.4 134,264.9 104.2,265.3 Z M100.7,8.4 C100.3,8.4 99.8,8.4 99.4,8.4 C49,9.8 8.5,51.9 9,102.3 C9.3,129.1 21.1,154.4 41.4,171.9 C51.4,180.5 57.3,192.8 57.4,205.7 L57.5,212 C57.8,237.4 78.8,257.7 104.1,257.4 C129.4,257.1 149.8,236.1 149.5,210.8 L149.4,205 C149.2,191.8 154.6,179.2 164.2,170.5 C184.1,152.6 195.3,126.9 194.9,100.1 C194.6,75 184.4,51.6 166.3,34.3 C148.6,17.2 125.3,8 100.7,8.4 Z" id="Shape"></path>
                    </g>
                    <g transform="translate(29.000000, 62.000000)">
                        <g id="change3_2" transform="translate(0.000000, 134.000000)">
                            <path d="M144.4,8.2 L4.4,10.1 C2.2,10.1 0.4,8.4 0.3,6.2 C0.3,4 2,2.2 4.2,2.1 L144.2,0.2 C146.4,0.2 148.2,1.9 148.3,4.1 C148.4,6.3 146.6,8.2 144.4,8.2 Z" id="Path"></path>
                        </g>
                        <g transform="translate(24.000000, 155.000000)">
                            <g id="change3_3">
                                <path d="M98.7,6.9 L3.7,8.2 C2,8.2 0.7,6.9 0.7,5.2 C0.7,3.5 2,2.2 3.7,2.2 L98.7,0.9 C100.4,0.9 101.7,2.2 101.7,3.9 C101.7,5.6 100.3,6.9 98.7,6.9 Z" id="Path"></path>
                            </g>
                            <g id="change3_4" transform="translate(9.000000, 21.000000)">
                                <path d="M82,6.5 L3,7.6 C1.3,7.6 0,6.3 0,4.6 C0,2.9 1.3,1.6 3,1.6 L82,0.5 C83.7,0.5 85,1.8 85,3.5 C84.9,5.1 83.6,6.5 82,6.5 Z" id="Path"></path>
                            </g>
                        </g>
                        <g id="change3_5" transform="translate(47.000000, 0.000000)">
                            <path d="M6.2,143.5 C4,143.5 2.2,141.8 2.1,139.6 L1.5,92.3 C1.5,91.2 1.9,90.2 2.6,89.5 L38.6,52.5 L4.9,53 C3.3,53 1.8,52.1 1.2,50.6 C0.6,49.1 0.9,47.4 2,46.2 L45.1,1.9 C46.6,0.3 49.2,0.3 50.8,1.8 C52.4,3.3 52.4,5.9 50.9,7.5 L14.5,44.9 L48.2,44.4 C49.8,44.4 51.3,45.3 51.9,46.8 C52.5,48.3 52.2,50 51.1,51.2 L9.5,93.9 L10.1,139.5 C10.2,141.6 8.4,143.4 6.2,143.5 Z" id="Path"></path>
                        </g>
                        <g id="change3_6" transform="translate(82.000000, 86.000000)">
                            <path d="M4.9,57 C2.7,57 0.9,55.3 0.8,53.1 L0.1,4.8 C0.1,2.6 1.8,0.8 4,0.7 C6.2,0.7 8,2.4 8.1,4.6 L8.8,52.9 C8.9,55.1 7.1,57 4.9,57 Z" id="Path"></path>
                        </g>
                    </g>
                </g>
            </g>
            <g id="Group" fill="#FFFFFF">
                <g transform="translate(0.000000, 168.000000)">
                    <g id="change3_7" transform="translate(310.000000, 0.000000)">
                        <path d="M35,6.6 L3,7 C1.3,7 0,5.7 0,4 C0,2.3 1.3,1 3,1 L35,0.6 C36.7,0.6 38,1.9 38,3.6 C38,5.3 36.7,6.6 35,6.6 Z" id="Path"></path>
                    </g>
                    <g id="change3_8" transform="translate(0.000000, 4.000000)">
                        <path d="M35,6.9 L3,7.3 C1.3,7.3 0,6 0,4.3 C0,2.6 1.3,1.3 3,1.3 L35,0.9 C36.7,0.9 38,2.2 38,3.9 C38,5.5 36.7,6.9 35,6.9 Z" id="Path"></path>
                    </g>
                </g>
                <g id="change3_9" transform="translate(168.000000, 0.000000)">
                    <path d="M4.1,38 C2.4,38 1.1,36.7 1.1,35 L0.7,3 C0.7,1.3 2,0 3.7,0 C5.4,0 6.7,1.3 6.7,3 L7.1,35 C7.1,36.6 5.8,38 4.1,38 Z" id="Path"></path>
                </g>
                <g transform="translate(51.000000, 48.000000)">
                    <g id="change3_10" transform="translate(0.000000, 222.000000)">
                        <path d="M3.8,29.5 C3,29.5 2.3,29.2 1.7,28.7 C0.5,27.5 0.5,25.6 1.6,24.5 L23.9,1.6 C25.1,0.4 27,0.4 28.1,1.5 C29.3,2.7 29.3,4.6 28.2,5.7 L5.9,28.6 C5.3,29.2 4.5,29.5 3.8,29.5 Z" id="Path"></path>
                    </g>
                    <g id="change3_11" transform="translate(216.000000, 0.000000)">
                        <path d="M4,29.4 C3.2,29.4 2.5,29.1 1.9,28.6 C0.7,27.4 0.7,25.5 1.8,24.4 L24.1,1.5 C25.3,0.3 27.2,0.3 28.3,1.4 C29.5,2.6 29.5,4.5 28.4,5.6 L6.1,28.5 C5.5,29 4.7,29.3 4,29.4 Z" id="Path"></path>
                    </g>
                </g>
                <g transform="translate(48.000000, 51.000000)">
                    <g id="change3_12">
                        <path d="M26.4,29.1 C25.6,29.1 24.9,28.8 24.3,28.3 L1.3,5.9 C0.1,4.7 0.1,2.8 1.2,1.7 C2.4,0.5 4.3,0.5 5.4,1.6 L28.3,23.9 C29.5,25.1 29.5,27 28.4,28.1 C27.9,28.7 27.2,29 26.4,29.1 Z" id="Path"></path>
                    </g>
                    <g id="change3_13" transform="translate(222.000000, 216.000000)">
                        <path d="M26.6,29.2 C25.8,29.2 25.1,28.9 24.5,28.4 L1.6,6.1 C0.4,4.9 0.4,3 1.5,1.9 C2.7,0.7 4.6,0.7 5.7,1.8 L28.6,24.1 C29.8,25.3 29.8,27.2 28.7,28.3 C28.1,28.9 27.4,29.2 26.6,29.2 Z" id="Path"></path>
                    </g>
                </g>
            </g>
        </g>
        <path d="M77.451559,432 L77.451559,372.28125 L91.6839809,372.28125 C98.656672,372.28125 104.07068,374.461892 107.926168,378.823242 C111.781656,383.184592 113.709372,389.316367 113.709372,397.21875 L113.709372,407.226562 C113.709372,415.128946 111.754313,421.233377 107.844137,425.540039 C103.933961,429.846701 98.2601899,432 90.8226528,432 L77.451559,432 Z M84.9574184,378.761719 L84.9574184,425.560547 L90.9867153,425.560547 C96.2640854,425.560547 100.119516,424.04982 102.553122,421.02832 C104.986727,418.006821 106.230856,413.529327 106.285543,407.595703 L106.285543,397.013672 C106.285543,390.724578 105.075595,386.110366 102.655661,383.170898 C100.235727,380.231431 96.5785366,378.761719 91.6839809,378.761719 L84.9574184,378.761719 Z M141.63281,432 L134.126951,432 L134.126951,372.28125 L141.63281,372.28125 L141.63281,432 Z M200.564061,424.576172 L199.251561,426.216797 C195.478105,430.619163 189.954722,432.820312 182.681249,432.820312 C176.228091,432.820312 171.162712,430.680685 167.484959,426.401367 C163.807207,422.122049 161.927343,416.072305 161.845311,408.251953 L161.845311,396.521484 C161.845311,388.154255 163.520099,381.885763 166.869725,377.71582 C170.219351,373.545878 175.230043,371.460938 181.901952,371.460938 C187.58948,371.460938 192.039631,373.046859 195.252538,376.21875 C198.465444,379.390641 200.235934,383.915986 200.564061,389.794922 L193.058202,389.794922 C192.757419,386.076153 191.725203,383.170909 189.961522,381.079102 C188.197841,378.987294 185.525016,377.941406 181.942967,377.941406 C177.649977,377.941406 174.505477,379.342759 172.509374,382.145508 C170.51327,384.948256 169.474218,389.42575 169.392186,395.578125 L169.392186,407.759766 C169.392186,413.775421 170.540612,418.389632 172.837499,421.602539 C175.134385,424.815446 178.429274,426.421875 182.722264,426.421875 C186.769159,426.421875 189.8453,425.43751 191.95078,423.46875 L193.058202,422.443359 L193.058202,408.662109 L182.148045,408.662109 L182.148045,402.263672 L200.564061,402.263672 L200.564061,424.576172 Z M229.061718,432 L221.555859,432 L221.555859,372.28125 L229.061718,372.28125 L229.061718,432 Z M284.342579,378.761719 L268.633594,378.761719 L268.633594,432 L261.127735,432 L261.127735,378.761719 L245.459766,378.761719 L245.459766,372.28125 L284.342579,372.28125 L284.342579,378.761719 Z M326.170314,416.414062 L305.990627,416.414062 L301.355861,432 L293.644923,432 L312.881252,372.28125 L319.320705,372.28125 L338.598048,432 L330.887111,432 L326.170314,416.414062 Z M307.959377,409.933594 L324.24258,409.933594 L316.08047,382.78125 L307.959377,409.933594 Z M362.666018,425.560547 L386.08594,425.560547 L386.08594,432 L355.119143,432 L355.119143,372.28125 L362.666018,372.28125 L362.666018,425.560547 Z M33.9120888,499.90625 C33.9120888,496.925766 33.1054563,494.642586 31.4921669,493.056641 C29.8788776,491.470695 26.9667974,489.925789 22.7558388,488.421875 C18.5448803,486.917961 15.3251859,485.338875 13.0966591,483.68457 C10.8681324,482.030265 9.20018029,480.143565 8.09275288,478.024414 C6.98532546,475.905263 6.43162006,473.478529 6.43162006,470.744141 C6.43162006,466.013648 8.01070583,462.117203 11.1689248,459.054688 C14.3271437,455.992172 18.4628445,454.460938 23.5761513,454.460938 C27.0761688,454.460938 30.1933251,455.247062 32.9277138,456.819336 C35.6621025,458.391609 37.7675502,460.572252 39.2441201,463.361328 C40.7206899,466.150405 41.4589638,469.212874 41.4589638,472.548828 L33.9120888,472.548828 C33.9120888,468.857403 33.0234258,466.00001 31.2460732,463.976562 C29.4687206,461.953115 26.9121055,460.941406 23.5761513,460.941406 C20.5409799,460.941406 18.1894409,461.789054 16.5214638,463.484375 C14.8534867,465.179696 14.0195107,467.558578 14.0195107,470.621094 C14.0195107,473.136731 14.9218454,475.242179 16.7265419,476.9375 C18.5312385,478.632821 21.3202731,480.150384 25.0937294,481.490234 C30.9726651,483.43165 35.1767246,485.824205 37.7060341,488.667969 C40.2353436,491.511733 41.4999794,495.230446 41.4999794,499.824219 C41.4999794,504.664087 39.9277295,508.540025 36.7831826,511.452148 C33.6386356,514.364272 29.3593815,515.820312 23.9452919,515.820312 C20.4726183,515.820312 17.2665957,515.061531 14.3271279,513.543945 C11.3876601,512.02636 9.07713628,509.893568 7.39548725,507.145508 C5.71383822,504.397447 4.87302631,501.246112 4.87302631,497.691406 L12.4199013,497.691406 C12.4199013,501.382831 13.4521176,504.253896 15.516581,506.304688 C17.5810444,508.355479 20.3905867,509.380859 23.9452919,509.380859 C27.2539022,509.380859 29.7421586,508.533212 31.4101357,506.837891 C33.0781128,505.14257 33.9120888,502.832046 33.9120888,499.90625 Z M98.5855273,490.390625 C98.5855273,498.539103 96.8492166,504.814431 93.3765429,509.216797 C89.9038693,513.619163 84.9683718,515.820312 78.5699023,515.820312 C72.4175278,515.820312 67.5572248,513.680685 63.9888476,509.401367 C60.4204704,505.122049 58.5679499,499.072305 58.4312304,491.251953 L58.4312304,480.013672 C58.4312304,472.029257 60.1948847,465.774437 63.7222461,461.249023 C67.2496074,456.72361 72.1714332,454.460938 78.4878711,454.460938 C84.776965,454.460938 89.6782832,456.627908 93.1919726,460.961914 C96.7056621,465.29592 98.5034957,471.482382 98.5855273,479.521484 L98.5855273,490.390625 Z M91.0796679,479.931641 C91.0796679,473.615203 90.0474517,468.918961 87.9829883,465.842773 C85.9185248,462.766586 82.7535174,461.228516 78.4878711,461.228516 C74.3589442,461.228516 71.234952,462.787094 69.1158008,465.904297 C66.9966495,469.0215 65.9234181,473.615204 65.8960742,479.685547 L65.8960742,490.390625 C65.8960742,496.488312 66.9556339,501.136703 69.0747851,504.335938 C71.1939363,507.535172 74.3589438,509.134766 78.5699023,509.134766 C82.7808609,509.134766 85.8980172,507.658218 87.9214648,504.705078 C89.9449124,501.751938 90.9976363,497.226593 91.0796679,491.128906 L91.0796679,479.931641 Z M126.139825,508.560547 L149.559747,508.560547 L149.559747,515 L118.59295,515 L118.59295,455.28125 L126.139825,455.28125 L126.139825,508.560547 Z M200.287873,455.28125 L200.287873,497.732422 C200.233185,503.392606 198.592577,507.82225 195.365998,511.021484 C192.139419,514.220719 187.641418,515.820312 181.871857,515.820312 C175.965578,515.820312 171.453904,514.254898 168.336701,511.124023 C165.219498,507.993148 163.633576,503.529326 163.578889,497.732422 L163.578889,455.28125 L171.043732,455.28125 L171.043732,497.445312 C171.043732,501.464864 171.898216,504.46581 173.607209,506.448242 C175.316202,508.430674 178.071057,509.421875 181.871857,509.421875 C185.700002,509.421875 188.468529,508.430674 190.177522,506.448242 C191.886514,504.46581 192.740998,501.464864 192.740998,497.445312 L192.740998,455.28125 L200.287873,455.28125 Z M255.158577,461.761719 L239.449593,461.761719 L239.449593,515 L231.943733,515 L231.943733,461.761719 L216.275765,461.761719 L216.275765,455.28125 L255.158577,455.28125 L255.158577,461.761719 Z M280.210922,515 L272.705063,515 L272.705063,455.28125 L280.210922,455.28125 L280.210922,515 Z M340.618735,490.390625 C340.618735,498.539103 338.882425,504.814431 335.409751,509.216797 C331.937077,513.619163 327.00158,515.820312 320.60311,515.820312 C314.450736,515.820312 309.590433,513.680685 306.022056,509.401367 C302.453679,505.122049 300.601158,499.072305 300.464439,491.251953 L300.464439,480.013672 C300.464439,472.029257 302.228093,465.774437 305.755454,461.249023 C309.282816,456.72361 314.204641,454.460938 320.521079,454.460938 C326.810173,454.460938 331.711491,456.627908 335.225181,460.961914 C338.73887,465.29592 340.536704,471.482382 340.618735,479.521484 L340.618735,490.390625 Z M333.112876,479.931641 C333.112876,473.615203 332.08066,468.918961 330.016196,465.842773 C327.951733,462.766586 324.786726,461.228516 320.521079,461.228516 C316.392152,461.228516 313.26816,462.787094 311.149009,465.904297 C309.029858,469.0215 307.956626,473.615204 307.929282,479.685547 L307.929282,490.390625 C307.929282,496.488312 308.988842,501.136703 311.107993,504.335938 C313.227144,507.535172 316.392152,509.134766 320.60311,509.134766 C324.814069,509.134766 327.931225,507.658218 329.954673,504.705078 C331.978121,501.751938 333.030844,497.226593 333.112876,491.128906 L333.112876,479.931641 Z M399.632018,515 L392.085143,515 L368.173033,468.980469 L368.173033,515 L360.626158,515 L360.626158,455.28125 L368.173033,455.28125 L392.167174,501.505859 L392.167174,455.28125 L399.632018,455.28125 L399.632018,515 Z M447.119909,499.90625 C447.119909,496.925766 446.313277,494.642586 444.699987,493.056641 C443.086698,491.470695 440.174618,489.925789 435.963659,488.421875 C431.752701,486.917961 428.533006,485.338875 426.30448,483.68457 C424.075953,482.030265 422.408001,480.143565 421.300573,478.024414 C420.193146,475.905263 419.639441,473.478529 419.639441,470.744141 C419.639441,466.013648 421.218526,462.117203 424.376745,459.054688 C427.534964,455.992172 431.670665,454.460938 436.783972,454.460938 C440.283989,454.460938 443.401146,455.247062 446.135534,456.819336 C448.869923,458.391609 450.975371,460.572252 452.451941,463.361328 C453.92851,466.150405 454.666784,469.212874 454.666784,472.548828 L447.119909,472.548828 C447.119909,468.857403 446.231246,466.00001 444.453894,463.976562 C442.676541,461.953115 440.119926,460.941406 436.783972,460.941406 C433.7488,460.941406 431.397261,461.789054 429.729284,463.484375 C428.061307,465.179696 427.227331,467.558578 427.227331,470.621094 C427.227331,473.136731 428.129666,475.242179 429.934362,476.9375 C431.739059,478.632821 434.528094,480.150384 438.30155,481.490234 C444.180486,483.43165 448.384545,485.824205 450.913855,488.667969 C453.443164,491.511733 454.7078,495.230446 454.7078,499.824219 C454.7078,504.664087 453.13555,508.540025 449.991003,511.452148 C446.846456,514.364272 442.567202,515.820312 437.153112,515.820312 C433.680439,515.820312 430.474416,515.061531 427.534948,513.543945 C424.595481,512.02636 422.284957,509.893568 420.603308,507.145508 C418.921659,504.397447 418.080847,501.246112 418.080847,497.691406 L425.627722,497.691406 C425.627722,501.382831 426.659938,504.253896 428.724401,506.304688 C430.788865,508.355479 433.598407,509.380859 437.153112,509.380859 C440.461723,509.380859 442.949979,508.533212 444.617956,506.837891 C446.285933,505.14257 447.119909,502.832046 447.119909,499.90625 Z" id="DIGITAL-SOLUTIONS" fill="#FFFFFF"></path>
    </g>
</svg>